<?xml version="1.0" standalone="no"?>
<!DOCTYPE svg PUBLIC "-//W3C//DTD SVG 1.1//EN" "http://www.w3.org/Graphics/SVG/1.1/DTD/svg11.dtd" >
<svg xmlns="http://www.w3.org/2000/svg" xmlns:xlink="http://www.w3.org/1999/xlink" version="1.1">
<metadata>
Created by FontForge 20170910 at Thu Jan 18 01:34:06 2001
 By Jimmy Wärting
(c) Dana Rice &#38; Apostrophic Laboratories. Based on an OEM font called MrQ designed for greeting cards. All rights reserved. apostrofe@mail.com
</metadata>
<defs>
<font id="Desyrel" horiz-adv-x="438" >
  <font-face 
    font-family="Desyrel"
    font-weight="400"
    font-stretch="normal"
    units-per-em="1000"
    panose-1="2 0 6 3 5 0 0 2 0 3"
    ascent="800"
    descent="-200"
    x-height="302"
    cap-height="631"
    bbox="-160 -367 1243 903"
    underline-thickness="20"
    underline-position="-143"
    unicode-range="U+0020-FB02"
  />
<missing-glyph horiz-adv-x="500" 
 />
    <glyph glyph-name=".notdef" horiz-adv-x="500" 
 />
    <glyph glyph-name=".null" horiz-adv-x="0" 
 />
    <glyph glyph-name="nonmarkingreturn" horiz-adv-x="500" 
 />
    <glyph glyph-name="space" unicode=" " horiz-adv-x="322" 
 />
    <glyph glyph-name="space" unicode="&#xa0;" horiz-adv-x="322" 
 />
    <glyph glyph-name="breve" unicode="&#x2d8;" horiz-adv-x="269" 
d="M181 596q12 7 25 19t24.5 26.5t19.5 28.5t10 26v5q-1 16 -11 23.5t-22 6.5q-11 0 -20 -6t-13 -18q-1 -6 -6.5 -14t-12.5 -16t-13 -14l-8 -8l-2 -2q1 1 1 2q0 2 -1 2q-13 -5 -22.5 -2.5t-28.5 25.5q-4 4 -5 12.5t-3.5 17t-7.5 14.5t-17 5q-17 -2 -23 -13t-6 -21
q1 -11 9.5 -28t15.5 -26q17 -22 38 -37.5t45 -15.5q20 0 34 8z" />
    <glyph glyph-name="dotaccent" unicode="&#x2d9;" horiz-adv-x="170" 
d="M126 572q10 7 14.5 18t4.5 23t-4.5 23.5t-14.5 18.5q-15 10 -32 10q-8 0 -17 -2.5t-15 -7.5q-20 -17 -20 -39q0 -26 16 -40t36 -14q19 0 32 10z" />
    <glyph glyph-name="ring" unicode="&#x2da;" horiz-adv-x="269" 
d="M208 582q26 29 26 66q0 38 -26 67q-29 26 -67 26q-37 0 -66 -26q-26 -29 -26 -67q0 -37 26 -66q29 -26 66 -26q38 0 67 26zM171 618q-12 -12 -30 -12t-30 12q-13 13 -13 30q0 18 13 31q12 12 30 12t30 -12q13 -12 13 -31q0 -18 -13 -30z" />
    <glyph glyph-name="hungarumlaut" unicode="&#x2dd;" horiz-adv-x="436" 
d="M243 610v1q-11 17 -30 17q-5 0 -9.5 -1t-9.5 -4q-15 -8 -33.5 -17t-38 -18.5t-38.5 -18.5t-34 -16q-12 -6 -18 -15t-6 -17q0 -5 4 -15q5 -8 12 -14t19 -6q4 0 9 1.5t12 3.5q15 7 35 16.5t41 19.5t40 20t33 17q18 11 18 28q0 9 -6 18zM425 594v1q-11 17 -29 17
q-13 0 -20 -5q-15 -8 -33.5 -17t-38 -18.5t-38.5 -18.5t-34 -16q-12 -6 -18 -15t-6 -17q0 -7 5 -15q4 -8 11 -14t19 -6q4 0 9 1.5t12 3.5q15 7 35 16.5t41 19.5t40 20t33 17q18 11 18 28q0 9 -6 18z" />
    <glyph glyph-name="ogonek" unicode="&#x2db;" horiz-adv-x="176" 
d="M53 -95q14 -23 35 -37t44 -17h5q16 0 23.5 10t7.5 22q0 11 -6 20t-18 13q-23 6 -31 15l-2 2q1 -1 2 -1q2 0 2 1q-5 13 -2 22t26 29q4 3 13 7t17.5 7.5t14 8t4.5 9.5q-4 16 -13.5 22.5t-19.5 6.5q-11 0 -28 -8.5t-27 -15.5q-22 -16 -38 -37t-16 -45q0 -21 7 -34z" />
    <glyph glyph-name="caron" unicode="&#x2c7;" horiz-adv-x="319" 
d="M72 605h1q14 -14 31 -30.5t28 -27.5q10 -9 26 -9q11 0 25 8v-1q10 5 21 12t24 14q12 8 25 14.5t25 14.5q17 9 17 26q0 9 -6 17q-9 17 -30 17q-9 0 -19 -5q-7 -5 -13.5 -8t-12.5 -7h1q-14 -8 -26.5 -15.5t-23.5 -13.5v1q-5 5 -10 9t-11 9t-12.5 11t-11.5 11q-6 5 -11.5 6
t-10.5 1q-14 0 -24.5 -8.5t-10.5 -22.5q0 -5 1.5 -11.5t7.5 -11.5z" />
    <glyph glyph-name="dotlessi" unicode="&#x131;" horiz-adv-x="351" 
d="M483 70v2q-1 17 -12.5 30.5t-34.5 13.5h-2q-24 0 -58.5 -12t-68.5 -25q-20 -8 -39 -14.5t-33 -8.5q-6 -2 -10 -2h-8q-19 0 -25 21q-2 8 -3 18t-1 22v16q2 31 12.5 63.5t21.5 52.5q3 7 3 16q0 11 -8 20.5t-22 14.5q-12 3 -21 3q-18 0 -32 -11q-8 -8 -16.5 -22t-13.5 -25
q-2 -8 -2 -13q0 -8 4 -12q-6 -20 -10.5 -41.5t-6.5 -43.5q-1 -7 -1.5 -15.5t-0.5 -18.5q0 -32 6 -54q13 -45 36 -64.5t63 -19.5q23 0 55 8q20 5 44.5 13.5t49.5 16.5q27 10 51.5 17.5t39.5 9.5q24 3 33.5 16t9.5 28z" />
    <glyph glyph-name="fraction" unicode="&#x2215;" horiz-adv-x="502" 
d="M527 610q1 5 1 9v10q0 18 -5.5 30.5t-18.5 14.5l1 -1q-5 2 -8 2h-5q-11 0 -21 -6t-18 -22q-8 -12 -10.5 -26.5t-2.5 -32.5q-21 -33 -48 -70.5t-57.5 -78.5t-64 -83t-66.5 -84q-44 -56 -85 -108t-73 -97t-52 -80t-22 -55v-7q0 -31 29 -37l-1 1q8 -4 16 -4q11 0 17.5 6
t11.5 21q4 18 24 49.5t50 72.5t67 89t77 98q46 59 91.5 118.5t82.5 111.5t61.5 93.5t28.5 65.5z" />
    <glyph glyph-name="fi" unicode="&#xfb01;" horiz-adv-x="697" 
d="M698 122v2q-1 18 -12.5 32t-35.5 14h-2q-24 0 -59.5 -12t-69.5 -26q-22 -8 -41 -15t-33 -9q-6 -2 -11 -2h-8q-19 0 -25 21q-2 8 -3 19t-1 23v17q2 32 12.5 66t21.5 55q4 7 4 14t-2.5 12t-6.5 11l1 -1q-5 10 -14 16.5t-24 6.5q-2 0 -3.5 -0.5t-3.5 -0.5q-41 -5 -81 -9
t-75 -8q8 46 19.5 87t28.5 76q9 17 21 34.5t23 28.5q17 17 36 28.5t33 12.5h2q12 0 17 -15v1q0 -1 0.5 -1.5l0.5 -0.5q1 -3 1 -7q0 -6 3 -12l-1 1q3 -17 14 -25.5t26 -8.5q2 0 3 0.5t2 0.5q15 0 28 9.5t18 26.5q1 5 1 19v8q0 5 -1 10v-1q-1 16 -8.5 32.5t-21 29.5t-32 21
t-42.5 8q-23 0 -45 -7.5t-41.5 -18.5t-35.5 -23.5t-26 -22.5q-17 -18 -32 -40t-29 -48q-23 -47 -38 -102t-23 -112q-6 -1 -12 -1.5t-12 -0.5q-9 -1 -20.5 -2l-11.5 -1h1q-22 -3 -33 -17t-11 -29v-2q0 -17 11 -30t33 -13h2q23 0 44 3q-2 -31 -3 -66t-1 -73q0 -79 6.5 -157.5
t23.5 -135.5q13 -43 47 -62q11 -7 27 -7q17 0 34 15q14 14 14 30q0 12 -7 25q-7 12 -12 17q-9 7 -12 16q-6 15 -11 42t-8.5 62.5t-5.5 77t-2 85.5q0 34 1 69.5t5 70.5q8 0 13 1q21 2 44 4.5t47 5.5q-11 -38 -14 -76q-1 -8 -1.5 -16t-0.5 -19q0 -34 6 -56q13 -47 36.5 -67
t64.5 -20q24 0 56 8q20 5 45 13.5t51 17.5q28 11 53 18.5t41 9.5q24 3 33.5 16.5t9.5 28.5z" />
    <glyph glyph-name="fl" unicode="&#xfb02;" horiz-adv-x="837" 
d="M836 78v-1q-5 14 -16.5 23t-26.5 9q-10 0 -18 -4h1q-51 -19 -107 -35t-103 -16q-6 0 -12.5 0.5t-12.5 1.5q-7 2 -15 5.5t-13 7.5q31 33 63.5 76t55.5 96q20 45 31 103.5t11 110.5v13t-1 13q-3 71 -25 107t-55 40l2 -1q-5 2 -7 2h-5q-38 0 -78 -40v14v8q0 5 -1 10v-1
q-1 16 -8.5 32.5t-21 29.5t-32.5 21t-43 8q-23 0 -45.5 -7.5t-42 -18.5t-35.5 -23.5t-26 -22.5q-17 -18 -32 -40t-29 -48q-23 -47 -38 -102t-23 -112q-6 -1 -12.5 -1.5t-12.5 -0.5q-8 -1 -20 -2l-12 -1h1q-22 -3 -33 -17t-11 -29v-2q0 -17 11 -30t33 -13h2q22 0 45 3
q-3 -31 -4 -66t-1 -73q0 -39 1.5 -79t5 -78t9.5 -73t14 -63q14 -43 48 -62q11 -7 28 -7q16 0 34 15q13 13 13 30q0 11 -6 25q-5 9 -13 17q-9 7 -12 16q-6 15 -10.5 42t-8.5 62.5t-6 77t-2 85.5q0 34 1 69.5t5 69.5q36 4 76 9t79 10q-1 -11 -1 -22v-21v-7q0 -95 24 -159
t87 -90q19 -8 39 -11t41 -3q30 0 61 5.5t61 13t57 16.5t48 17v-1q5 2 9 4t9 4q19 7 27 19t8 26q0 9 -4 16zM387 364q-26 -2 -52.5 -4.5t-52.5 -5.5q-28 -4 -55 -6q8 46 19.5 87t28.5 76q9 17 21 34.5t23 28.5q17 17 36.5 28.5t33.5 12.5h2q12 0 17 -15v1q0 -1 0.5 -1.5
l0.5 -0.5q1 -3 1 -7q0 -6 3 -12l-1 1q3 -17 14 -25.5t26 -8.5q2 0 3 0.5t3 0.5q8 0 11 1q-2 -2 -2 -4q0 -1 -2 -3q-23 -32 -43.5 -78t-34.5 -100zM549 280q-14 -35 -35.5 -65.5t-45.5 -58.5q-6 28 -6 62v10q1 35 8 72t17.5 71t23 62.5t24.5 47.5q11 17 19 24.5t13 7.5
q10 -5 13 -49v-11q0 -22 -2.5 -46.5t-7 -48t-10 -44.5t-11.5 -34z" />
    <glyph glyph-name="Lslash" unicode="&#x141;" horiz-adv-x="570" 
d="M341 419l-1 1q-6 11 -17.5 14t-25.5 -5l-5 -3q-9 -8 -24 -15q9 49 15 95t10 90v6q0 22 -13.5 32t-31.5 10q-17 0 -31.5 -10t-16.5 -32q-7 -52 -16 -115t-25 -138q-7 -4 -13 -7.5t-12 -6.5l-25 -15t-16 -13q-26 -24 -17 -52q0 -4 2 -6q4 -7 10.5 -10t14.5 -5v1q14 -2 24 5
l9 6q-6 -23 -12.5 -46.5t-13.5 -48.5q-18 -59 -18 -99q0 -45 25 -69q15 -17 40 -24t61 -8q47 0 98 5t100 15.5t93.5 26.5t79.5 37q14 8 19 19t5 22q0 13 -8 26l-1 1q-13 19 -36 19q-6 0 -13 -1t-14 -5q-24 -14 -58.5 -26.5t-75 -22t-84.5 -15.5t-87 -7q-31 0 -39 9
q-5 7 -5 20q0 9 2.5 21.5t7.5 29.5q15 53 27.5 104t23.5 101q8 5 15 8.5t14 8.5q14 8 26 16t20 13q14 11 16 23t-3 20z" />
    <glyph glyph-name="lslash" unicode="&#x142;" horiz-adv-x="409" 
d="M470 381v1q0 12 -8.5 21t-24.5 9h-6q-6 -1 -14 -1h-18h-9q3 28 3 55v13q0 7 -1 13q-4 70 -25 106t-54 40l2 -1q-5 2 -12 2q-27 0 -57 -22.5t-59 -64.5q-18 -26 -35 -61.5t-30 -76.5q-17 0 -28 -0.5t-19 -2.5h1q-35 -6 -43 -36q0 -1 -0.5 -3t-0.5 -3q0 -14 14 -26v1
q11 -8 24 -8q11 0 18 4h-1q2 1 4.5 2t4.5 3q4 3 9 4q-12 -54 -12 -107v-7q0 -47 5.5 -86.5t18 -71t33.5 -54.5t52 -36q35 -13 79 -13q29 0 59.5 5.5t60 13t55.5 16.5t47 16v-1q5 2 9.5 4t9.5 4q17 8 25.5 19.5t8.5 25.5q0 9 -4 16v-1q-11 31 -42 31q-10 0 -18 -4h1
q-25 -9 -51.5 -18t-53.5 -16t-53 -11.5t-48 -4.5q-6 0 -13 0.5t-12 1.5q-7 2 -14.5 5.5t-12.5 6.5q30 33 62 76t55 95q18 42 29 95h2q16 0 30 0.5t24 0.5q17 3 25 12t8 19zM270 293q-14 -34 -35 -64.5t-44 -58.5q-7 27 -7 62v10q1 26 5 53.5t11 54.5h86q-4 -17 -7.5 -31.5
t-8.5 -25.5zM300 477v-13q0 -24 -3 -51q-18 0 -36 0.5t-42 0.5q8 24 18 44t19 34q11 17 19 24.5t13 7.5q9 -5 12 -47z" />
    <glyph glyph-name="Zcaron" horiz-adv-x="550" 
d="M564 491q-8 21 -28.5 34t-55.5 13h-11q-97 -2 -180.5 -12t-159.5 -28q-29 -8 -44 -24q-18 -18 -18 -37q0 -15 7 -26q6 -12 13.5 -16t18.5 -4q10 0 21.5 4t22.5 11q72 17 138 25.5t144 12.5q14 0 16 -3q0 -1 0.5 -1.5l0.5 -0.5q0 -6 -11 -17v1q-39 -34 -82 -73t-87.5 -80
t-88.5 -83.5t-84 -82.5q-49 -51 -49 -91q0 -13 4 -21l-1 1q17 -49 102 -58q27 -3 56 -3q39 0 80 4.5t79.5 13t73 19.5t61.5 23q29 14 29 40q0 5 -1 12t-5 14q-6 10 -15.5 17t-23.5 7q-5 0 -12 -1.5t-13 -5.5q-19 -10 -47 -19.5t-61 -16.5t-69 -11t-72 -4q-7 0 -13 0.5
t-12 0.5q-11 1 -17 3.5t-8 4.5q0 5 6 12.5t15 15.5q40 42 96 93.5t113 102.5q38 33 72 64t61 57q22 21 33 44t11 43q0 15 -5 26zM188 669h1q14 -16 32 -34.5t29 -30.5q12 -11 28 -11q11 0 26 10v-1q11 6 22 13.5t25 15.5l26 16t27 16q17 12 17 31q0 10 -6 19q-11 19 -32 19
q-10 0 -20 -6q-7 -5 -13.5 -8.5t-13.5 -8.5h1q-14 -8 -27.5 -16.5t-24.5 -16.5v2q-5 5 -10 9.5t-12 11.5q-6 5 -12.5 12t-12.5 12t-12 6.5t-11 1.5q-14 0 -25.5 -10t-11.5 -25q0 -6 2 -13t8 -14zM161 35v-1q1 0 1 -1q-1 1 -1 2z" />
    <glyph glyph-name="Zcaron" unicode="&#x17d;" horiz-adv-x="550" 
d="M564 491q-8 21 -28.5 34t-55.5 13h-11q-97 -2 -180.5 -12t-159.5 -28q-29 -8 -44 -24q-18 -18 -18 -37q0 -15 7 -26q6 -12 13.5 -16t18.5 -4q10 0 21.5 4t22.5 11q72 17 138 25.5t144 12.5q14 0 16 -3q0 -1 0.5 -1.5l0.5 -0.5q0 -6 -11 -17v1q-39 -34 -82 -73t-87.5 -80
t-88.5 -83.5t-84 -82.5q-49 -51 -49 -91q0 -13 4 -21l-1 1q17 -49 102 -58q27 -3 56 -3q39 0 80 4.5t79.5 13t73 19.5t61.5 23q29 14 29 40q0 5 -1 12t-5 14q-6 10 -15.5 17t-23.5 7q-5 0 -12 -1.5t-13 -5.5q-19 -10 -47 -19.5t-61 -16.5t-69 -11t-72 -4q-7 0 -13 0.5
t-12 0.5q-11 1 -17 3.5t-8 4.5q0 5 6 12.5t15 15.5q40 42 96 93.5t113 102.5q38 33 72 64t61 57q22 21 33 44t11 43q0 15 -5 26zM188 669h1q14 -16 32 -34.5t29 -30.5q12 -11 28 -11q11 0 26 10v-1q11 6 22 13.5t25 15.5l26 16t27 16q17 12 17 31q0 10 -6 19q-11 19 -32 19
q-10 0 -20 -6q-7 -5 -13.5 -8.5t-13.5 -8.5h1q-14 -8 -27.5 -16.5t-24.5 -16.5v2q-5 5 -10 9.5t-12 11.5q-6 5 -12.5 12t-12.5 12t-12 6.5t-11 1.5q-14 0 -25.5 -10t-11.5 -25q0 -6 2 -13t8 -14zM161 35v-1q1 0 1 -1q-1 1 -1 2z" />
    <glyph glyph-name="zcaron" horiz-adv-x="430" 
d="M486 41l1 -1q-3 13 -13.5 23t-26.5 10q-5 0 -8.5 -0.5t-6.5 -1.5q-21 -7 -47.5 -12t-54.5 -8.5t-55 -5.5t-48 -2h-14t-13 1q-2 1 -4 1h-1l0.5 1t2.5 3q20 26 45 50.5t48 44.5q8 7 14 12l12 10q45 45 45 85q0 13 -6 25q-20 48 -92 48h-24t-29.5 0.5t-30 1t-26.5 1.5
q-14 9 -28 9q-13 0 -30 -10v1q-11 -7 -16.5 -15.5t-5.5 -22.5q0 -17 12.5 -30.5t34.5 -16.5q9 -1 22 -2t28.5 -1.5t32 -1t31.5 -0.5q14 0 14 -2q1 -2 1 -3q0 -5 -12 -17v1q-6 -5 -12.5 -12t-13.5 -13q-26 -23 -58.5 -54.5t-59.5 -66.5q-12 -14 -16.5 -27.5t-4.5 -26.5
q0 -5 0.5 -9.5t2.5 -9.5v1q12 -35 53 -43q14 -2 32.5 -3t38.5 -1q33 0 70 3t72 8t65 11t49 13v-1q17 5 24.5 18.5t7.5 26.5v4t-2 7zM105 481h1q14 -16 32 -35t29 -30q12 -11 28 -11q10 0 25 10v-1q11 6 22 13.5t24 15.5t26.5 16t26.5 16q17 12 17 30q0 11 -6 19
q-11 19 -31 19q-11 0 -20 -6q-7 -5 -14 -8.5t-13 -8.5h1q-14 -8 -27.5 -16.5t-24.5 -15.5v2q-5 4 -10 8.5t-12 11.5q-5 6 -12 12.5t-12 11.5q-6 5 -12 6.5t-11 1.5q-14 0 -25.5 -10t-11.5 -25q0 -6 2 -12.5t8 -13.5z" />
    <glyph glyph-name="zcaron" unicode="&#x17e;" horiz-adv-x="430" 
d="M486 41l1 -1q-3 13 -13.5 23t-26.5 10q-5 0 -8.5 -0.5t-6.5 -1.5q-21 -7 -47.5 -12t-54.5 -8.5t-55 -5.5t-48 -2h-14t-13 1q-2 1 -4 1h-1l0.5 1t2.5 3q20 26 45 50.5t48 44.5q8 7 14 12l12 10q45 45 45 85q0 13 -6 25q-20 48 -92 48h-24t-29.5 0.5t-30 1t-26.5 1.5
q-14 9 -28 9q-13 0 -30 -10v1q-11 -7 -16.5 -15.5t-5.5 -22.5q0 -17 12.5 -30.5t34.5 -16.5q9 -1 22 -2t28.5 -1.5t32 -1t31.5 -0.5q14 0 14 -2q1 -2 1 -3q0 -5 -12 -17v1q-6 -5 -12.5 -12t-13.5 -13q-26 -23 -58.5 -54.5t-59.5 -66.5q-12 -14 -16.5 -27.5t-4.5 -26.5
q0 -5 0.5 -9.5t2.5 -9.5v1q12 -35 53 -43q14 -2 32.5 -3t38.5 -1q33 0 70 3t72 8t65 11t49 13v-1q17 5 24.5 18.5t7.5 26.5v4t-2 7zM105 481h1q14 -16 32 -35t29 -30q12 -11 28 -11q10 0 25 10v-1q11 6 22 13.5t24 15.5t26.5 16t26.5 16q17 12 17 30q0 11 -6 19
q-11 19 -31 19q-11 0 -20 -6q-7 -5 -14 -8.5t-13 -8.5h1q-14 -8 -27.5 -16.5t-24.5 -15.5v2q-5 4 -10 8.5t-12 11.5q-5 6 -12 12.5t-12 11.5q-6 5 -12 6.5t-11 1.5q-14 0 -25.5 -10t-11.5 -25q0 -6 2 -12.5t8 -13.5z" />
    <glyph glyph-name="exclam" unicode="!" horiz-adv-x="295" 
d="M284 584v19q0 12 -2 20v-1q-4 20 -14.5 29.5t-23.5 9.5q-16 0 -28 -10.5t-13 -33.5q-3 -26 -5.5 -67t-5.5 -89q-3 -59 -6.5 -121.5t-8.5 -117.5v-5q0 -20 12 -30.5t27 -10.5q14 0 26 10t13 31q4 41 8 86.5t6.5 90.5t4.5 87t4 75q6 9 6 28zM234 66l-1 1q-8 6 -15.5 9.5
t-18.5 3.5q-18 0 -34 -13q-21 -20 -21 -48q0 -23 14 -40q8 -11 19 -16t22 -5q17 0 33 13q20 17 20 47q0 14 -4.5 26.5t-13.5 21.5z" />
    <glyph glyph-name="quotedbl" unicode="&#x22;" horiz-adv-x="223" 
d="M108 511v60q-1 18 -10.5 25.5t-20.5 9.5q-27 0 -39 -26q-3 -7 -5.5 -14.5t-2.5 -15.5q0 -11 6 -18v-32q0 -14 -0.5 -28t-0.5 -26q0 -19 11 -27.5t25 -8.5t25 9t11 27v25q0 10 0.5 19.5t0.5 20.5zM226 509v60q-1 18 -10.5 25.5t-20.5 9.5q-27 0 -39 -26q-3 -7 -5.5 -14.5
t-2.5 -15.5q0 -9 6 -18v-32q0 -14 -0.5 -28t-0.5 -26q0 -19 11 -27t25 -8t25 8.5t11 26.5v25q0 10 0.5 20t0.5 20z" />
    <glyph glyph-name="numbersign" unicode="#" horiz-adv-x="501" 
d="M526 299q0 14 -9.5 28t-33.5 18h1q-10 2 -22 3t-30 2q5 24 9 53t4 49q0 18 -12.5 29.5t-27.5 11.5q-14 0 -26.5 -7.5t-15.5 -29.5q-4 -26 -8 -54t-9 -53h-61q3 14 5.5 30t5.5 33v-1q2 9 2.5 18.5t2.5 19.5v5q0 14 -11.5 26.5t-27.5 12.5q-18 0 -29 -7t-14 -29
q-4 -23 -8.5 -53t-9.5 -58q-27 -1 -46 -4t-39 -11h1q-14 -4 -24 -13t-10 -26q0 -18 10.5 -28t23.5 -16q9 -5 23 -5q24 0 39 19q1 0 2 0.5t3 0.5q-2 -8 -2 -11q-8 -45 -17 -91q-26 -1 -48 -4t-35 -8v1q-14 -4 -23.5 -15.5t-9.5 -28.5q0 -18 12 -27.5t22 -14.5q7 -4 20 -4
q10 0 20 4t16 12q2 0 5 0.5t6 0.5q-1 -3 -1.5 -5t-0.5 -5q-4 -24 -7 -47t-3 -40v-11q0 -5 1.5 -12t5.5 -13.5t11 -11.5t19 -6h7q25 0 39 19q5 8 8.5 17t3.5 18q0 15 -9 27q0 16 2.5 35.5t7.5 39.5q8 1 16 1h17h27q-2 -10 -2 -13q-4 -24 -6.5 -46t-2.5 -41v-14q1 -11 8 -26
t30 -16h3q26 0 42 19q5 8 8 16t3 17q0 16 -9 28q0 17 2.5 36.5t7.5 39.5q10 -1 17 -1q8 0 16 -1q3 0 5.5 -0.5t5.5 -0.5q9 -4 15.5 -5t13.5 -1q20 0 30 13.5t10 28.5q0 17 -10 30.5t-32 13.5q-3 0 -8 0.5t-11 1.5l-16 2t-19 2q2 14 5 26.5t6 26.5q2 12 5 24t5 26
q10 -1 19.5 -1.5t19.5 -2.5l0.5 -0.5t1.5 -0.5q7 -2 13 -4t15 -2q18 0 29.5 11.5t11.5 29.5zM310 164h-57q5 26 9.5 52t9.5 51h27h15t15 1q-5 -26 -9.5 -53t-9.5 -51z" />
    <glyph glyph-name="dollar" unicode="$" horiz-adv-x="439" 
d="M492 417v-1q2 5 2.5 8.5t0.5 7.5q0 9 -3.5 17.5t-11.5 14.5q-8 7 -21.5 11.5t-29.5 4.5h-5q-23 0 -50 -4.5t-53 -11.5q2 18 3 37t1 33q0 20 -12 29.5t-26 9.5t-25.5 -10.5t-12.5 -28.5t-2.5 -43t-4.5 -52q-5 -2 -11 -4l-12 -4q-23 -8 -45 -16.5t-36 -16.5
q-27 -17 -40 -37.5t-13 -40.5q1 -23 15.5 -41.5t45.5 -31.5q6 -3 15 -7t19.5 -8.5l21 -9t18.5 -7.5q-1 -10 -2 -19t-2 -19q-5 -41 -9.5 -81t-4.5 -70q-11 -6 -23.5 -10.5t-20.5 -6.5h-4q-5 0 -10.5 2.5t-11.5 5.5q-5 2 -8 2h-7q-11 0 -21 -6.5t-14 -15.5q-5 -12 -5 -19
q0 -11 5.5 -20.5t18.5 -14.5q14 -7 27.5 -9t24.5 -2h8q19 3 40 11v-8q0 -8 0.5 -13t1.5 -9q9 -46 49 -50q2 0 4.5 -0.5t4.5 -0.5q13 0 20.5 5.5t12.5 13.5q5 12 5 18q0 11 -10 24q-5 5 -6 8q-4 6 -7 9q-2 5 -2 10v11v11q0 5 2 10q18 11 34.5 26.5t30.5 30.5q59 61 59 123
q0 27 -12.5 45t-38.5 35h1q-9 6 -22 13t-26 12q3 24 6 56.5t5 58.5q29 8 57.5 14t46.5 7q15 -13 35 -13q14 0 25.5 8t14.5 19zM323 155v-3q0 -16 -12 -34t-29 -35q1 14 3 30l4 32q1 10 2 19.5t2 20.5q9 -4 18 -11l2 -2q6 -5 8 -7.5t2 -9.5zM233 333q-2 -11 -2.5 -21
t-1.5 -18q-11 5 -25 11t-20 9q-5 2 -8.5 4.5t-3.5 5.5q1 4 11 12q8 5 21 10l26 10v-1q2 0 6 2q-1 -6 -1.5 -12.5t-1.5 -11.5z" />
    <glyph glyph-name="percent" unicode="%" horiz-adv-x="684" 
d="M683 56q-4 38 -19.5 74t-53.5 62q1 1 1.5 2t1.5 2q6 7 6 18q0 12 -13 23q-7 7 -25 7q-7 0 -13.5 -1.5t-14.5 -6.5q-21 -14 -44 -35t-44 -47.5t-36.5 -58.5t-20.5 -67q-1 -6 -1.5 -11t-0.5 -11q0 -46 27 -68t72 -22h9t10 1q2 0 3 0.5t3 0.5q20 2 43 5.5t40 8.5
q32 11 51.5 34t19.5 67v11t-1 12zM344 294q-4 38 -19.5 73.5t-53.5 62.5q1 1 1.5 2t1.5 2q6 7 6 17q0 13 -13 23q-8 8 -25 8q-15 0 -28 -8q-21 -14 -44 -35t-44 -48t-36.5 -58.5t-20.5 -66.5q-1 -6 -1.5 -11.5t-0.5 -10.5q0 -46 27 -68t72 -22h9t10 1q2 0 3 0.5t3 0.5
q20 2 43 5.5t40 8.5q32 11 51.5 34t19.5 67v11t-1 12zM567 415l-1 -1q2 6 2.5 9.5t0.5 7.5q0 14 -7 23.5t-18 14.5q-5 2 -10 2q-23 0 -39 -22t-16 -53q-19 -32 -45.5 -73t-55.5 -87q-29 -44 -58 -88.5t-51.5 -83.5t-36.5 -69t-14 -45v-3q1 -15 9.5 -24.5t20.5 -12.5
q2 0 4.5 -0.5t4.5 -0.5q12 0 22 7.5t13 24.5q1 9 11.5 29.5t27.5 48.5t38.5 62t44.5 70q25 40 51 81t47.5 76.5t36.5 63.5t18 43zM269 278v-1q1 -4 1 -9q0 -22 -22 -28q-9 -3 -22.5 -5t-26.5 -4q-5 -1 -11 -1q-5 0 -9 -1h-7q-29 0 -29 22v5q3 22 10.5 41t18 34.5t22 27
t20.5 19.5q17 -8 27 -20t15.5 -25.5t8 -28t4.5 -26.5zM608 41v-1q1 -4 1 -10q0 -12 -5.5 -18t-16.5 -10q-9 -3 -22.5 -5t-26.5 -4q-5 -1 -11 -1q-5 0 -9 -1h-7q-29 0 -29 23v4q3 22 10.5 41t18 34.5t22 27t20.5 19.5q17 -8 27 -20t15.5 -25.5t8 -27.5t4.5 -26z" />
    <glyph glyph-name="ampersand" unicode="&#x26;" horiz-adv-x="424" 
d="M266 -76q0 17 -8 25q39 2 74.5 8.5t61.5 22.5q21 13 21 36q0 6 -2.5 13t-5.5 13v-1q-5 9 -14 15t-20 6q-13 0 -25 -9q-16 -10 -46 -13t-63 -3q-11 0 -21 0.5t-20 1.5q-40 2 -55.5 10t-15.5 22q0 8 2 14q5 15 16.5 26t26.5 16q16 7 31 11.5t28 9.5q8 3 16 5t13 4
q27 13 27 39v3q0 30 -26 43q-4 2 -8.5 4.5t-9.5 4.5q-11 5 -20 9.5t-11 12.5v-3q0 1 -0.5 2t-0.5 2q0 7 9 13.5t27 6.5q25 0 39.5 -3.5t27.5 -8.5q1 0 1 -1h2q4 -1 14 -1q21 0 35 17q3 6 5.5 13t2.5 14q0 10 -5 19t-18 16q-11 7 -25.5 11.5t-31.5 7.5q7 5 11.5 13.5
t5.5 20.5q0 3 1 9t3 13q2 8 4 17.5t4 22.5v1q0 22 -11.5 32.5t-29.5 11.5h-5q-16 0 -28 -11t-12 -33q0 -5 -1 -9.5t-3 -9.5q-8 -21 -8 -39v-5q0 -11 3.5 -18.5t8.5 -13.5q-26 -2 -48 -12.5t-37.5 -26t-24 -34t-8.5 -37.5q0 -14 4 -26q4 -10 11 -17.5t15 -15.5
q-5 -2 -9.5 -4.5t-9.5 -4.5h1q-24 -12 -47.5 -34t-36.5 -51q-10 -27 -10 -53q0 -46 36.5 -78t115.5 -36q-8 -10 -8 -26q0 -6 -2 -12v1q-2 -7 -5 -14.5t-3 -18.5v-2q0 -22 12.5 -31.5t28.5 -9.5t28.5 9.5t15.5 32.5q0 2 1 4.5t2 4.5l-1 -1q2 8 5 17t3 20z" />
    <glyph glyph-name="quotesingle" unicode="'" horiz-adv-x="117" 
d="M94 511v59q-1 18 -9 25.5t-17 9.5q-23 0 -33 -25q-3 -8 -5 -15t-2 -15q0 -12 5 -19v-31q0 -14 -0.5 -28t-0.5 -27q0 -18 9.5 -26.5t20.5 -8.5q13 0 22 9t9 26v26q0 9 0.5 19t0.5 21z" />
    <glyph glyph-name="parenleft" unicode="(" horiz-adv-x="427" 
d="M489 684l2 -1q-12 13 -28 13q-8 0 -15.5 -2.5t-14.5 -10.5h1q-54 -56 -107 -119.5t-95 -132.5t-67.5 -142t-25.5 -148q0 -53 14 -99t42.5 -82.5t72.5 -62t104 -38.5q3 -1 6 -1h7q17 0 25.5 8.5t11.5 22.5q0 2 0.5 4t0.5 4q0 32 -33 40q-91 25 -132.5 74.5t-41.5 130.5
q0 57 20 119t56.5 124.5t86.5 124t110 119.5v-1q12 11 12 28t-12 28z" />
    <glyph glyph-name="parenright" unicode=")" horiz-adv-x="427" 
d="M397 414q0 52 -14 98t-43 82.5t-72.5 62.5t-103.5 38q-3 1 -7 1h-5q-17 0 -26 -8t-11 -22q0 -2 -0.5 -4.5t-0.5 -4.5q0 -14 8 -24.5t25 -14.5h-1q91 -25 132.5 -74.5t41.5 -130.5q0 -57 -20 -119t-56 -124.5t-86.5 -124t-110.5 -119.5v1q-12 -12 -12 -29q0 -15 12 -27
l-2 1q12 -14 29 -14q7 0 15 3t14 11h-1q54 54 107 118t94.5 134t67.5 143t26 147z" />
    <glyph glyph-name="asterisk" unicode="*" horiz-adv-x="303" 
d="M379 530v-1q-11 17 -31 17q-5 0 -10 -1t-12 -3q-11 -5 -34 -19.5t-42 -26.5q2 16 6 34.5t8 35.5q1 5 1.5 9t1.5 8v4q0 16 -11 25t-25 9q-13 0 -24 -6.5t-14 -23.5v1q-2 -8 -2.5 -23.5t-0.5 -32.5v-41q-6 4 -11 9q-13 9 -27 19.5t-28 15.5q-9 4 -19 4q-23 0 -32 -18
q-6 -8 -6 -21q0 -6 2 -11.5t5 -11.5v1q7 -11 16.5 -15.5t20.5 -4.5h11q6 -3 14 -6.5t17 -6.5q2 -2 4 -2q-8 -5 -17 -9t-18 -9q-14 -7 -26 -12.5t-18 -9.5q-10 -7 -14.5 -16t-4.5 -18t5 -17q13 -21 38 -21h7q14 2 25 11t13 22q5 3 10.5 7.5t11.5 9.5q2 2 5.5 4.5t6.5 4.5
q-1 -2 -1 -7q-3 -17 -6 -35.5t-3 -32.5q0 -21 11.5 -31t27.5 -11q15 0 26.5 8.5t15.5 26.5v9q0 11 -6 25q0 6 -0.5 16t-1.5 20q-1 4 -1 12h1v1q8 -8 16.5 -15t14.5 -12q5 -11 15.5 -20t24.5 -12h7q16 0 29 12q10 10 10 22t-9 24q-4 5 -13 12t-20 13.5t-22.5 13t-21.5 11.5
q3 2 6.5 3t6.5 3h-1q12 5 24.5 8.5t19.5 6.5h3q11 0 19.5 4.5t14.5 9.5q9 8 12.5 16.5t3.5 16.5q0 12 -5 18z" />
    <glyph glyph-name="plus" unicode="+" horiz-adv-x="373" 
d="M200 141h2q14 0 24.5 8.5t10.5 24.5v6q-1 7 -1.5 15.5t-0.5 18.5v28t2 32h37q11 0 20 0.5t17 0.5q18 3 26.5 14t8.5 22v2q0 14 -8.5 24.5t-24.5 10.5h-6q-6 -1 -13 -1.5t-16 -0.5q-6 0 -13 0.5t-15 0.5h-10v13q0 35 -3 50q-8 35 -42 43q-2 0 -4 0.5t-4 0.5q-10 0 -17 -4
t-13 -10h1q-5 -5 -7 -11.5t-2 -12.5t0.5 -10t3.5 -8v1q1 -5 6 -9q5 -5 5 -10q1 -4 1 -15v-15q-12 1 -23 1.5t-19 0.5q-43 0 -62.5 -10t-26.5 -36q0 -1 -0.5 -3.5t-0.5 -4.5q0 -18 14 -30v1q10 -10 24 -10q12 0 18 5h-1q2 1 4.5 2.5t4.5 3.5q5 5 10 5q4 0 10 0.5t14 0.5h14
q8 0 18 -1v-50q0 -15 0.5 -28t1.5 -22q2 -17 13 -25.5t22 -8.5z" />
    <glyph glyph-name="comma" unicode="," horiz-adv-x="145" 
d="M103 61h-1q-8 0 -17 -5.5t-14 -18.5q-2 -6 -5.5 -15.5t-3.5 -17.5q0 -11 6 -17q0 -9 -1 -23t-3.5 -30t-6.5 -32t-10 -29q-5 -8 -5 -17q0 -11 6 -19t14 -12q7 -4 15 -4q19 0 28 19q18 38 23.5 79t5.5 74v20t-1 17q-1 16 -10 23.5t-20 7.5z" />
    <glyph glyph-name="hyphen" unicode="-" horiz-adv-x="472" 
d="M440 159v1q0 12 -8.5 21t-24.5 9h-6q-6 -1 -14 -1h-18q-15 0 -33.5 0.5t-37.5 1.5q-20 1 -41 1h-38q-17 0 -29 -0.5t-20 -2.5h1q-35 -6 -43 -36q0 -1 -0.5 -3t-0.5 -3q0 -14 14 -26v1q11 -8 24 -8q11 0 18 4h-1q2 1 4.5 2t4.5 3q6 4 10 4q5 1 13 1h19h56q16 0 32.5 -0.5
t31.5 -0.5q16 0 30 0.5t24 0.5q17 3 25 12t8 19z" />
    <glyph glyph-name="hyphen" unicode="&#xad;" horiz-adv-x="472" 
d="M440 159v1q0 12 -8.5 21t-24.5 9h-6q-6 -1 -14 -1h-18q-15 0 -33.5 0.5t-37.5 1.5q-20 1 -41 1h-38q-17 0 -29 -0.5t-20 -2.5h1q-35 -6 -43 -36q0 -1 -0.5 -3t-0.5 -3q0 -14 14 -26v1q11 -8 24 -8q11 0 18 4h-1q2 1 4.5 2t4.5 3q6 4 10 4q5 1 13 1h19h56q16 0 32.5 -0.5
t31.5 -0.5q16 0 30 0.5t24 0.5q17 3 25 12t8 19z" />
    <glyph glyph-name="period" unicode="." horiz-adv-x="145" 
d="M126 -25q11 7 15.5 18t4.5 23t-4.5 23.5t-15.5 18.5q-13 10 -31 10q-8 0 -17 -2.5t-15 -7.5q-20 -16 -20 -40q0 -26 16 -39.5t36 -13.5q18 0 31 10z" />
    <glyph glyph-name="slash" unicode="/" horiz-adv-x="532" 
d="M634 610q1 5 1 9v10q0 18 -5.5 30.5t-18.5 14.5l1 -1q-5 2 -8 2h-4q-12 0 -21.5 -6t-18.5 -22q-8 -12 -10.5 -26.5t-2.5 -32.5q-21 -33 -48 -70.5t-57.5 -78.5t-64 -83t-66.5 -84q-44 -56 -85 -108t-73 -97t-52 -80t-22 -55v-7q0 -31 29 -37l-1 1q7 -4 17 -4q11 0 17.5 6
t11.5 21q4 18 23.5 49.5t49.5 72.5t67.5 89t76.5 98q46 59 92 118.5t83 111.5t61.5 93.5t27.5 65.5z" />
    <glyph glyph-name="zero" unicode="0" horiz-adv-x="637" 
d="M617 75v1q12 22 12 50q0 21 -8 44t-22 46q-11 17 -25 37t-32.5 40t-42 39t-53.5 33q-20 9 -43.5 15.5t-47.5 11.5q6 6 6 15q0 19 -11 27q-9 6 -18 11t-17 5q-13 0 -28 -9q-9 -8 -23.5 -20t-25.5 -23q-10 -2 -17.5 -9t-9.5 -18q-19 -19 -39.5 -46t-38.5 -60t-31.5 -70.5
t-17.5 -77.5q-1 -6 -1.5 -12.5t-0.5 -13.5q0 -39 12.5 -68t33.5 -50q43 -42 116 -42q21 0 42.5 3t42.5 10q37 13 82 23q26 7 51.5 14t46.5 13q81 27 108 81zM531 117q-6 -13 -20 -21.5t-34 -16.5q-9 -3 -26 -8t-38.5 -10.5t-44.5 -11t-42 -10.5h1q-6 -2 -11.5 -3t-10.5 -3
q-16 -5 -30.5 -7.5t-25.5 -2.5q-34 0 -50 16q-10 10 -16 27.5t-6 40.5q0 14 2 28.5t8 31.5q14 42 40.5 80t51.5 64q36 -2 66.5 -8.5t54.5 -16.5q34 -16 66 -47t57 -71q11 -19 11 -35q0 -10 -3 -16z" />
    <glyph glyph-name="one" unicode="1" horiz-adv-x="344" 
d="M311 44q0 25 -19 35h1q-8 5 -18 7.5t-24 2.5q2 33 6 78.5t8.5 93.5t9 94t8.5 80v5q0 20 -15 35t-35 15q-15 0 -27 -9q-5 -4 -13.5 -9t-17.5 -11q-12 -8 -23 -14t-17 -10h1q-24 -13 -24 -36q0 -14 6 -24q5 -9 14 -15.5t20 -6.5q2 0 2.5 0.5t2.5 0.5q8 3 16 7t15 8
q-3 -24 -7 -60t-7 -76t-5.5 -80t-2.5 -71q-11 -1 -22 -3t-20 -6q-16 -5 -23 -15.5t-7 -23.5q0 -11 4 -19l-1 1q10 -32 44 -36h5q14 0 26 9q4 1 9 1q4 0 5 1q9 -9 23 -9q17 0 26 13h16h9q5 0 10 1q21 3 31 16t10 30z" />
    <glyph glyph-name="two" unicode="2" horiz-adv-x="580" 
d="M595 30v4q0 18 -12.5 33t-38.5 17q-16 2 -34 2h-38q-51 0 -108 -3.5t-113 -10.5q44 35 85 71t69 68v-1q22 26 34.5 53t12.5 53q0 47 -44 81q-11 8 -35 23t-49 23q-14 5 -47 8.5t-68 3.5h-19q-8 0 -16 -1q-21 -1 -30.5 -14.5t-9.5 -27.5v-2q0 -17 11.5 -31t34.5 -15
q12 0 28.5 -1l33 -2t30.5 -2.5t21 -2.5h-1q16 -3 29.5 -11.5t21.5 -15.5q12 -9 12 -22q0 -17 -20 -39q-20 -20 -47 -45t-58.5 -52t-65.5 -53.5t-67 -50.5q-25 -16 -25 -44q0 -14 7 -25v1q6 -13 19 -22.5t32 -9.5h8q37 5 79 10t84.5 9t84.5 6.5t80 2.5q11 0 19.5 0.5
t17.5 -0.5q15 -12 37 -12q11 0 19 4q17 6 25.5 17.5t10.5 25.5z" />
    <glyph glyph-name="three" unicode="3" horiz-adv-x="498" 
d="M471 88q-1 44 -25 79t-74 54q-16 5 -29.5 7.5t-26.5 3.5q26 19 47.5 37.5t35.5 33.5q41 43 41 86q0 22 -8 35q-13 23 -43 39t-81 18h-16q-52 0 -103 -11t-84 -25q-24 -13 -24 -38q0 -15 7 -27q7 -9 17.5 -15.5t23.5 -6.5t24 5q21 11 57 18t74 7h14q20 -1 28 -4t8 -8
q0 -8 -13 -23q-14 -14 -34 -30.5t-42 -33t-43 -31.5t-37 -25q-14 -10 -21 -21t-7 -22q0 -10 4 -18q5 -12 17.5 -21t31.5 -9h7q4 0 8.5 0.5t9.5 1.5q14 2 30.5 3t32.5 1q11 0 22 -1t20 -4q54 -17 54 -55v-3q0 -15 -6.5 -30.5t-20.5 -36.5q-22 -29 -54 -54t-68.5 -45.5
t-73.5 -37t-70 -27.5v1q-18 -6 -25.5 -17.5t-7.5 -25.5q0 -13 5 -20v1q5 -14 16.5 -22t26.5 -8q7 0 19 3q40 13 83.5 32.5t84.5 44.5t77 55t63 64q24 30 36 62t12 64z" />
    <glyph glyph-name="four" unicode="4" horiz-adv-x="626" 
d="M653 168q0 17 -11 31t-34 14h-3q-16 -2 -34 -2q-17 0 -36 -1l-60 -3q3 48 5.5 97.5t4.5 91.5q0 6 0.5 12t0.5 12q0 21 -11.5 32.5t-27.5 14.5q-2 0 -4 0.5t-4 0.5q-16 0 -28.5 -7.5t-18.5 -24.5q-20 -12 -48.5 -30t-61 -40t-66.5 -46t-64.5 -46t-54.5 -41.5t-36 -33.5
q-15 -15 -15 -37q0 -6 0.5 -11.5t3.5 -11.5q7 -14 19.5 -23.5t32.5 -9.5q48 0 96.5 1.5t99.5 3.5l76 2q-1 -5 -1 -9v-8q-4 -53 -6 -88t-2 -69v-24q0 -13 1 -26q1 -30 14 -44t31 -14q24 0 45 27q5 7 9 16t4 19q0 8 -2.5 15.5t-8.5 13.5q0 50 2 99t6 94q38 1 75 2.5t69 3.5
q22 2 32.5 15.5t10.5 31.5zM387 300q-1 -23 -2.5 -46t-4.5 -48q-45 -1 -86 -2t-86 -3q47 33 91 64.5t89 60.5q-1 -7 -1 -14v-12z" />
    <glyph glyph-name="five" unicode="5" horiz-adv-x="508" 
d="M464 227q-14 28 -45.5 45.5t-86.5 27.5q-11 2 -22.5 3t-23.5 1q-29 0 -59 -5.5t-53 -15.5q0 6 1 10q1 9 1.5 19t0.5 23q0 22 -13.5 34t-30.5 12q-18 0 -33 -11t-15 -34q0 -13 -1 -25.5t-2 -25.5q-2 -21 -3.5 -42t-1.5 -39v-11q0 -23 13.5 -34.5t31.5 -12.5h3q14 0 26 7.5
t17 23.5q1 6 12.5 12t28 11t36.5 8t40 3q15 0 30 -3q46 -10 57 -32q3 -8 3 -19q0 -20 -14 -50q-19 -39 -49.5 -86t-69.5 -95.5t-84 -96t-93 -89.5q-17 -15 -17 -34q0 -10 3.5 -17t9.5 -14h-1q14 -16 35 -16q8 0 15.5 2t15.5 9h-1q52 43 101.5 94.5t91.5 104.5t75 104t53 92
q30 61 30 109q0 29 -12 53zM532 434q0 17 -11 31t-34 14q-31 0 -74 0.5t-89 1.5t-90.5 2t-78.5 2h-5q-20 0 -30.5 -13.5t-10.5 -30.5v-2q0 -15 10.5 -29.5t33.5 -15.5q24 -1 55.5 -2t66 -2t70.5 -1.5t69 -0.5h73q23 0 34 14t11 32z" />
    <glyph glyph-name="six" unicode="6" horiz-adv-x="700" 
d="M661 78q23 23 34 48t11 51q0 32 -15.5 59t-43.5 46h1q-46 32 -98 32q-59 0 -117 -40q-46 -33 -87 -100t-76 -161q-6 -1 -12 -1h-10q-38 0 -55 17q-20 20 -20 57q0 35 16 80q15 45 34 87.5t39.5 82.5t41 76t38.5 66q11 6 19 12.5t14 19.5v-1q4 6 5 12.5t1 12.5
q0 14 -6.5 24t-14.5 18q-15 10 -30 10q-11 0 -21.5 -5t-18.5 -17q-24 -33 -50.5 -78.5t-52 -96.5t-48.5 -103.5t-39 -97.5q-12 -31 -17 -59t-5 -51q0 -74 44 -116q23 -21 53.5 -33t67.5 -12q6 0 11.5 0.5t10.5 1.5q11 -13 30 -13q22 0 36 19q25 6 67 18.5t88.5 31.5t93 44.5
t81.5 58.5zM594 144v-1q-15 -17 -41 -33t-56.5 -30t-61.5 -25.5t-56 -18.5q30 67 56 106t52 59q14 11 30 15.5t32 4.5q27 0 45 -15q8 -8 12.5 -15.5t4.5 -14.5q0 -14 -17 -32z" />
    <glyph glyph-name="seven" unicode="7" horiz-adv-x="487" 
d="M521 436q-7 13 -21 22t-39 10q-41 3 -94 3.5t-107 0.5t-103.5 -2t-81.5 -6q-27 -5 -38 -17.5t-11 -27.5q0 -5 1 -9.5t3 -7.5q7 -16 22.5 -27.5t34.5 -11.5h6q11 0 21.5 2.5t21.5 9.5q41 3 73 4.5t61 1.5q26 0 50 -0.5t50 -1.5h25l-1.5 -2.5t-3.5 -5.5l1 1
q-36 -48 -77 -110t-79.5 -131t-71 -141t-51.5 -140q-1 -5 -1.5 -11t-0.5 -11q0 -20 10.5 -34t24.5 -19q8 -2 16 -2q13 0 26 6.5t21 20.5q7 14 7 30q0 5 -1 10.5t-3 12.5q15 54 48 123.5t74.5 141.5t87.5 139.5t86 116.5v-1q18 22 18 44q0 11 -4 19z" />
    <glyph glyph-name="eight" unicode="8" horiz-adv-x="668" 
d="M647 36q2 8 2.5 13.5t0.5 13.5q0 47 -31.5 88.5t-83.5 68.5q20 13 33.5 34t16.5 49q0 4 0.5 7.5t0.5 7.5q0 39 -20 71.5t-51 56t-69 36t-75 12.5q-40 0 -75.5 -16t-63.5 -39.5t-47.5 -51.5t-28.5 -52q-8 -17 -11 -32t-3 -28q0 -49 45 -74q-17 -10 -33.5 -24t-31 -31.5
t-26 -36.5t-18.5 -38q-8 -23 -8 -43q0 -39 24.5 -66t57.5 -44q37 -19 83 -28t90 -9q24 0 44 3q39 4 84 12.5t85 26t70 45t39 68.5zM554 61v-8q-2 -15 -19.5 -28t-45 -23t-61 -17t-66.5 -10q-8 -1 -16 -1h-16q-38 0 -74 6.5t-60 17.5h1q-12 7 -20.5 17t-8.5 21q0 4 2 10
q13 33 31 54t41.5 33.5t53.5 18.5t66 10q8 1 16 1.5t14 0.5q35 0 65 -8.5t51.5 -22.5t33.5 -32.5t12 -39.5zM358 256q-10 -1 -18 -1h-16q-49 0 -66 9.5t-17 24.5q0 5 3 16q3 15 15.5 32.5t30.5 32t39 24t42 9.5q22 0 43.5 -7t38 -19t27 -27t10.5 -31v-4q-2 -29 -38 -41.5
t-94 -17.5z" />
    <glyph glyph-name="nine" unicode="9" horiz-adv-x="600" 
d="M575 240v6q0 6 -1.5 12.5t-6.5 11.5q1 7 1.5 13.5t0.5 14.5q0 31 -7.5 60.5t-21.5 52.5q-25 38 -67 64t-99 26q-60 0 -126 -22.5t-121 -66.5q-35 -29 -59.5 -66t-25.5 -76v-2q0 -88 103 -118q60 -19 136 -19q40 0 80.5 6t81.5 19q-15 -38 -37 -80.5t-47.5 -85t-52.5 -83
t-54 -74.5q-5 -5 -7 -12.5t-2 -15.5q0 -9 3.5 -18.5t9.5 -14.5q18 -13 32 -13q18 0 35 17q35 45 70.5 97t66.5 107.5t55.5 112.5t37.5 111q12 7 16 16.5t6 19.5zM279 224q-58 0 -103 15v-1q-21 7 -28 16.5t-7 20.5t12.5 31.5t30.5 34.5q46 35 96 52t90 17q34 0 55 -13.5
t38 -36.5v1q15 -23 15 -68q0 -7 -0.5 -14t-1.5 -15q-43 -19 -94.5 -29.5t-102.5 -10.5z" />
    <glyph glyph-name="colon" unicode=":" horiz-adv-x="159" 
d="M152 247q-14 12 -33 12t-32 -12q-11 -8 -16 -20.5t-5 -24.5q0 -23 14 -42q16 -18 38 -18q8 0 16 2t16 9q11 8 16.5 20.5t5.5 26.5q0 13 -5 25.5t-15 21.5zM147 -28q9 7 15 19.5t6 26.5t-6 25.5t-15 21.5q-17 12 -33 12t-31 -12q-11 -9 -16 -21t-5 -25q0 -22 14 -41
q14 -17 38 -17q8 0 16.5 2t16.5 9z" />
    <glyph glyph-name="semicolon" unicode=";" horiz-adv-x="233" 
d="M195 63h-2q-8 0 -17 -5.5t-15 -19.5q-2 -6 -5.5 -16t-3.5 -18q0 -13 6 -17q0 -9 -1 -24t-3.5 -31.5t-6.5 -33t-11 -29.5q-5 -10 -5 -18q0 -12 6.5 -20t14.5 -13q7 -4 16 -4q19 0 28 20q19 40 24.5 82t5.5 76v22t-1 18q-1 16 -10 23.5t-20 7.5zM218 252l-1 1
q-13 11 -32 11q-17 0 -31 -11q-11 -10 -16 -22t-5 -26q0 -11 3 -21.5t11 -19.5q14 -18 37 -18q8 0 16.5 2t16.5 9h-1q11 8 16.5 20.5t5.5 25.5q0 27 -20 49z" />
    <glyph glyph-name="semicolon" unicode="&#x37e;" horiz-adv-x="233" 
d="M195 63h-2q-8 0 -17 -5.5t-15 -19.5q-2 -6 -5.5 -16t-3.5 -18q0 -13 6 -17q0 -9 -1 -24t-3.5 -31.5t-6.5 -33t-11 -29.5q-5 -10 -5 -18q0 -12 6.5 -20t14.5 -13q7 -4 16 -4q19 0 28 20q19 40 24.5 82t5.5 76v22t-1 18q-1 16 -10 23.5t-20 7.5zM218 252l-1 1
q-13 11 -32 11q-17 0 -31 -11q-11 -10 -16 -22t-5 -26q0 -11 3 -21.5t11 -19.5q14 -18 37 -18q8 0 16.5 2t16.5 9h-1q11 8 16.5 20.5t5.5 25.5q0 27 -20 49z" />
    <glyph glyph-name="less" unicode="&#x3c;" horiz-adv-x="526" 
d="M434 514q-19 0 -34 -11t-26 -31q-35 -27 -66.5 -48.5t-62.5 -41.5q-45 -31 -91 -63t-103 -80l1 1q-13 -8 -19.5 -22t-6.5 -28t7 -28t21 -22v1q44 -28 98 -56.5t109 -55.5t107 -51.5t91 -42.5q6 -2 13 -4t12 -2q16 0 28.5 10t14.5 31v10q0 8 -6 21t-22 19q-50 23 -95.5 44
t-88.5 42t-83.5 42.5t-80.5 45.5q-2 2 -3.5 2.5l-1.5 0.5q0 2 5 5q54 43 111.5 83t107.5 74q30 20 55 37t42 30q27 20 27 43q0 7 -2.5 13t-6.5 13q-12 14 -28 16.5t-23 2.5z" />
    <glyph glyph-name="equal" unicode="=" horiz-adv-x="419" 
d="M384 314v2q0 13 -8.5 23.5t-24.5 10.5h-6q-5 -1 -13 -1h-16q-15 0 -32 0.5t-36 1.5q-22 0 -43.5 1t-40.5 1q-35 0 -50 -3h1q-17 -4 -28.5 -15t-15.5 -27v-7q0 -18 14 -29v1q5 -5 11.5 -7.5t12.5 -2.5q10 0 18 5h-1q2 1 4.5 2t4.5 3q3 5 10 5q4 1 9 1h14h27t32 -1t35 -1
h35q16 0 30 0.5t24 1.5q17 3 25 13.5t8 21.5zM387 182v2q0 13 -9 23t-24 10h-35h-32t-36 1q-22 1 -43.5 2t-41.5 1q-16 0 -28.5 -1t-20.5 -3h1q-17 -3 -28.5 -14t-15.5 -27q0 -2 -0.5 -3.5t-0.5 -3.5q0 -10 4 -17t10 -13v1q10 -9 25 -9q10 0 18 5h-1q4 1 9 6q6 4 10 4
q3 1 9 1h14h27t32 -1t35 -1h35q16 0 30 0.5t24 1.5q17 3 25 13.5t8 21.5z" />
    <glyph glyph-name="greater" unicode="&#x3e;" horiz-adv-x="528" 
d="M116 515q-7 0 -23 -2.5t-28 -16.5q-4 -7 -6.5 -13t-2.5 -13q0 -23 27 -43q17 -13 42 -30t55 -37q50 -34 107.5 -74t111.5 -83q5 -3 5 -5l-1.5 -0.5t-3.5 -2.5q-80 -47 -164 -87.5t-184 -86.5q-16 -6 -22 -19t-6 -21v-10q2 -21 14.5 -31t28.5 -10q5 0 12 2t13 4
q39 18 91 42.5t107 51.5t109 55.5t98 56.5v-1q14 8 21 21.5t7 27.5q0 15 -7 28.5t-18 21.5q-54 45 -99 76t-87 60q-33 21 -66.5 44.5t-71.5 52.5q-10 20 -25 31t-34 11z" />
    <glyph glyph-name="question" unicode="?" horiz-adv-x="392" 
d="M451 475v6q0 32 -22 59t-66 42q-32 11 -72.5 26t-85.5 33q-10 5 -23 5q-12 0 -22 -5.5t-17 -13.5q-8 -13 -8 -27q0 -19 19 -37q25 -21 50 -21q2 0 3.5 -0.5t3.5 0.5q10 -4 21.5 -8t23.5 -7q20 -8 39.5 -15.5t35.5 -14.5q14 -5 20 -11.5t8 -14.5q0 -11 -16 -27
q-14 -15 -30 -30.5t-32 -30.5q-37 -35 -68.5 -68.5t-50.5 -64.5q-10 -17 -14.5 -32.5t-4.5 -29.5q0 -22 9 -35q7 -9 16.5 -13.5t19.5 -4.5q14 0 25.5 8t14.5 25q2 6 2 13v15v7q14 26 61 73t113 107v-1q47 42 47 93zM266 71q-17 12 -36 12q-22 0 -35 -12q-24 -21 -24 -48
q0 -23 16 -41q17 -20 42 -20q18 0 36 13q12 8 17.5 20.5t5.5 26.5q0 31 -22 49z" />
    <glyph glyph-name="at" unicode="@" horiz-adv-x="883" 
d="M323 -189l1 -1q0 1 1 1h2q1 1 2 1h6v8q17 18 17 33q0 12 -5 22q-7 11 -15 19t-19 11q-2 0 -5 0.5t-5 0.5q-26 0 -44 -28q-34 -8 -55 -8q-26 0 -46 7t-37 19q-17 14 -26 33.5t-9 47.5q0 49 37 136q30 65 69.5 132t83 127.5t88.5 111.5t87 85q33 29 60.5 41t50.5 12
q32 0 58 -21t52 -56q14 -20 29 -48t28 -58.5t23 -60.5t16 -52q6 -25 10 -47.5t4 -41.5q0 -41 -22 -81l1 1q-11 -16 -23 -31.5t-24 -28t-24 -20.5t-22 -9h-4q-11 0 -18.5 5.5t-12.5 19.5q-3 8 -4 19t-1 25v16q0 26 -13 38t-33 12q-25 0 -50 -16v1q-16 -10 -37 -26t-43 -33.5
t-43 -35.5t-37 -31q-4 -3 -11 -10q-11 -9 -17 -9q-1 0 -3 2q-1 1 -1 9q0 14 7 28q10 22 27.5 46t38.5 46t42 40.5t39 30.5q39 27 67 27q20 0 33 -12q13 -9 29 -9q14 0 25.5 7t18.5 18q5 12 5 23q0 9 -3.5 18.5t-13.5 17.5q-22 17 -42.5 24.5t-40.5 7.5q-38 0 -71 -17.5
t-57 -33.5q-21 -14 -46 -34.5t-49 -46t-46 -54.5t-37 -59q-11 -20 -17 -42t-7 -45q0 -49 29 -75q23 -20 53 -20q37 0 82 33q11 9 24 20.5t26 22.5q23 19 42.5 36t33.5 25q3 3 6 3v-1q0 -15 5.5 -34t13.5 -28v1q16 -24 35.5 -34.5t52.5 -10.5h15q8 0 14 1q43 22 63 34t32 22
q53 42 75 96t22 114q0 28 -4 55.5t-12 55.5q-6 25 -16.5 53.5t-23.5 58t-27.5 57.5t-29.5 52q-33 54 -79.5 85t-103.5 31h-10q-77 0 -172 -72q-48 -38 -95.5 -90t-91.5 -112.5t-82 -125t-66 -126.5q-24 -54 -36 -104t-12 -93q0 -98 53 -142v1q22 -20 50 -28.5t63 -8.5
q34 0 71.5 6.5t80.5 17.5z" />
    <glyph glyph-name="A" unicode="A" horiz-adv-x="682" 
d="M702 32q-6 8 -14 21t-16 27.5t-16 28t-12 22.5q-2 4 -4 8.5t-4 8.5l-1 1q0 1 -1 2q5 2 10 3t10 3q18 7 24 21t6 25q-5 24 -16.5 32t-24.5 8h-4t-7 -2l1 1q-8 -2 -16.5 -3.5t-19.5 -3.5q-16 35 -34.5 82.5t-37.5 101.5q-20 54 -40.5 108.5t-42.5 104.5q-6 16 -17.5 22
t-24.5 6h-4q-22 -1 -33.5 -14t-12.5 -29q-11 -17 -25.5 -45t-32 -64t-37.5 -77.5t-40 -84.5q-30 -63 -58 -121t-51 -103q-15 -5 -33 -8q-5 -1 -13 -3q-14 0 -22.5 -6t-13 -13.5t-6 -15.5t-1.5 -13q0 -20 13 -29.5t30 -11.5q-5 -7 -8 -14t-6 -15v1q-8 -13 -8 -31
q0 -16 15 -31q11 -11 28 -11q15 0 27 6q20 11 26 25.5t7 26.5q9 16 16 32t15 31q0 1 2 5q31 7 61.5 13.5t62.5 14.5q57 13 117 27t124 29l14 -28q6 -14 15 -31.5t19.5 -35t20 -33.5t17.5 -25q16 -22 41 -22q16 0 32 11q16 12 16 32q0 18 -12 33zM499 211
q-69 -16 -140.5 -32.5t-134.5 -30.5q11 24 23 50.5t25 53.5l64 132t59 121q11 -29 22.5 -59.5t22.5 -61.5q15 -43 31 -86.5t34 -85.5q-2 -1 -6 -1z" />
    <glyph glyph-name="B" unicode="B" horiz-adv-x="689" 
d="M679 111v2q-1 50 -26.5 88.5t-72.5 68.5q-32 19 -67.5 25t-62.5 8q25 14 46.5 27t52.5 36q63 46 63 98q0 35 -33.5 63t-100.5 37h1q-14 2 -29.5 4t-31.5 4q-29 3 -59.5 7t-62.5 9q-41 6 -79.5 12.5t-71 14t-56.5 15t-36 15.5q-11 6 -25 6q-23 0 -38 -20q-9 -14 -9 -29
q0 -10 5 -20.5t18 -17.5q23 -12 62.5 -25.5t84.5 -21.5q-1 -27 -2.5 -57.5t-3.5 -63.5q-3 -56 -5 -114t-2 -111q0 -22 0.5 -42.5t1.5 -38.5q2 -41 23 -64t44 -33q11 -4 20 -4q26 0 42 27q2 5 3.5 9t1.5 10q0 11 -6.5 22.5t-21.5 21.5q-15 7 -15 26q-1 11 -1 24v27
q0 42 2 88.5t4 94.5q2 44 3.5 85.5t2.5 78.5q29 -5 61 -10t62.5 -9t56.5 -7.5t43 -4.5q32 -5 36 -18q-1 2 -1 1v0q0 -10 -22 -28q-23 -15 -42.5 -26.5t-38.5 -22.5q-17 -11 -32 -18.5t-37 -24.5q-13 -8 -19 -20.5t-6 -25.5t5 -24q11 -23 28 -34t46 -11q21 0 42.5 -1.5
t41 -4.5t36 -8t25.5 -11q57 -42 57 -85q0 -41 -49 -96q-24 -27 -58.5 -52t-72 -45t-75 -34.5t-67.5 -21.5q-6 -2 -11.5 -3t-9.5 -1q-8 0 -11 3q-11 8 -23 8q-10 0 -17 -4t-14 -11q-15 -14 -15 -33t17 -35q12 -13 28 -18t32 -5q19 0 41 5q43 12 86.5 30t85 41.5t79.5 50.5
t70 57q42 42 60.5 84t18.5 81z" />
    <glyph glyph-name="C" unicode="C" horiz-adv-x="623" 
d="M629 0l-1 1q-9 33 -40 33q-6 0 -10 -0.5t-7 -1.5q-60 -16 -108 -22.5t-87 -6.5q-24 0 -46 2t-43 6q-37 5 -56 19.5t-28 34.5q-7 18 -7 45q0 29 7.5 59.5t17.5 59.5q15 43 45 86t66 81t75 68.5t73 50.5q2 -1 7 -1q29 0 46 29h-1q12 19 12 39q0 21 -14 35q-10 10 -26 10
q-18 0 -37 -11q-45 -24 -94.5 -62t-94.5 -84.5t-82 -98.5t-59 -104q-17 -40 -27 -81t-10 -80q0 -22 4 -43t13 -40q16 -39 50.5 -65t99.5 -39q46 -9 108 -9q48 0 102 7t115 22q20 5 29.5 17t9.5 28q0 5 -0.5 8.5t-1.5 7.5z" />
    <glyph glyph-name="D" unicode="D" horiz-adv-x="653" 
d="M672 281v2q0 99 -133 185q-26 17 -69 42.5t-96.5 55.5t-112.5 62t-117 63q-7 4 -14 5t-13 1q-24 0 -39 -17q-11 -11 -11 -28q0 -16 9 -28v2q15 -27 44 -27q6 -3 12.5 -6t13.5 -6q-5 -64 -10.5 -133.5t-12.5 -134.5q-8 -85 -14 -151t-6 -92q0 -24 8 -42.5t14 -30.5
q8 -17 20.5 -23t24.5 -6q8 0 26 6q8 4 14 12.5t6 20.5q0 7 -4 15l-2.5 6.5t-4.5 10.5q-10 18 -10 32q0 19 4.5 74.5t12.5 130.5q5 60 11.5 126t11.5 131q9 -5 18 -10.5t19 -10.5q30 -17 61 -34.5t60 -34.5t54.5 -32t43.5 -27q42 -28 62.5 -53.5t20.5 -51.5q0 -19 -16 -45.5
t-40 -53.5t-52 -52.5t-52 -42.5q-41 -30 -94 -59.5t-116 -62.5q-13 -7 -19.5 -18.5t-6.5 -23.5q0 -10 5 -20q8 -11 18.5 -19t22.5 -8q13 0 24 7q60 32 114.5 62t105.5 66q30 21 66 52.5t67 67.5t51.5 72.5t20.5 65.5q0 2 -0.5 4t-0.5 4zM212 30l-1 1q0 -1 0.5 -1.5l0.5 -0.5
v1z" />
    <glyph glyph-name="E" unicode="E" horiz-adv-x="642" 
d="M640 35v-1q7 8 8.5 15.5t1.5 15.5q0 23 -16 36h1q-12 11 -32 11q-17 0 -34 -17q-14 -17 -32.5 -27t-42.5 -18q-57 -20 -117.5 -30t-104.5 -12h-5q-16 0 -23 8q-6 6 -8.5 18t-2.5 26v7q1 33 8 70t20 75q33 4 77 11.5t88.5 15t83.5 15t62 13.5q20 6 28 19.5t8 27.5
q0 2 -0.5 4.5t-0.5 3.5q-3 15 -13 25.5t-26 10.5h-4q-1 0 -6 -2l1 1q-23 -5 -54.5 -11t-67 -12.5t-73 -12.5t-72.5 -12q11 38 20.5 75t11.5 69q0 3 0.5 6.5t0.5 6.5q0 5 -0.5 8.5t-1.5 8.5q48 8 100 11.5t105 3.5h33t33 -1h5q20 0 30.5 12.5t11.5 29.5v6q0 15 -12 28.5
t-35 13.5q-16 1 -33 1h-36q-42 0 -90.5 -2t-99 -8.5t-102 -18t-99.5 -30.5q-17 -7 -24.5 -20t-7.5 -26q0 -17 11 -30.5t30 -13.5q11 0 18 4l-1 -1q31 10 57 17q2 1 5.5 1.5t7.5 2.5v-7q0 -4 -0.5 -7.5t-0.5 -6.5q-3 -26 -13.5 -66t-25.5 -81q-9 -2 -18 -3t-17 -2
q-12 5 -22 5q-22 0 -36 -12h1q-25 -20 -25 -44q1 -17 13.5 -29t35.5 -12h3q5 -1 12 -1h12q7 0 13 1q-3 -14 -7 -31.5t-7.5 -35.5t-6 -35t-2.5 -29q0 -35 7.5 -62.5t20.5 -47.5v1q16 -24 37.5 -34.5t47.5 -10.5h4q30 0 67 4.5t73.5 12t70.5 16.5t59 18q35 13 64.5 29.5
t49.5 41.5z" />
    <glyph glyph-name="F" unicode="F" horiz-adv-x="590" 
d="M685 511q5 6 6.5 12.5t1.5 14.5q0 21 -16 40q-10 11 -31 16.5t-44 5.5q-25 0 -58.5 -0.5t-71.5 -1.5q-52 -2 -109 -3t-113 -1q-48 0 -91 1.5t-77 4.5h-8q-27 0 -41 -13.5t-14 -31.5q1 -17 13 -32.5t36 -23.5q12 -3 22 -3q17 0 26 8h33q2 -37 3.5 -74.5t2.5 -65.5
q-5 -2 -12 -4.5t-15 -4.5q-11 -5 -17 -15t-6 -19v-3q1 -12 7.5 -22.5t19.5 -16.5q15 -5 26 -7q0 -44 3 -99.5t7 -111.5q2 -25 3 -48l2 -46q0 -22 15.5 -33t32.5 -11t31 10t14 31v5q-2 31 -3.5 68.5t-3.5 76.5t-3.5 76t-2.5 66v19q33 1 70.5 3.5t75 5.5t71 6.5t58.5 7.5
q20 4 38 8t32 15q11 8 15.5 17.5t4.5 20.5q0 9 -3 18t-9 15q-7 7 -14.5 11.5t-18.5 4.5q-13 0 -23 -7h1q-8 -3 -16.5 -5.5t-17.5 -4.5q-23 -3 -57.5 -6.5t-72 -6.5t-74 -6t-63.5 -4q-3 33 -4.5 67t-2.5 69q13 0 26.5 -0.5t27.5 -0.5q53 0 100.5 1t87.5 3q29 1 52 1h40h20
q10 -9 23.5 -13.5t24.5 -4.5q25 2 40 21z" />
    <glyph glyph-name="G" unicode="G" horiz-adv-x="738" 
d="M784 357l1 -1q-6 11 -17 17.5t-25 6.5q-9 0 -24 -5q-8 -4 -42.5 -5t-83.5 -1q-23 0 -47 0.5t-47 1.5t-44 1.5t-41 0.5q-27 0 -48 -2t-34 -8q-17 -8 -25 -19.5t-8 -23.5q0 -4 0.5 -7.5t2.5 -8.5q13 -28 44 -34h5q12 0 22 3.5t15 6.5q7 1 14 1h17h32q18 0 35 -1
q14 -1 28 -1h27v-204q-56 -26 -118.5 -47t-115.5 -29q-21 -3 -39 -3q-41 0 -61 20q-11 10 -16 28.5t-5 44.5v13q0 7 1 14q5 39 23 86.5t44.5 96.5t58 96.5t63 87.5t59.5 68.5t47 40.5q21 4 30 14.5t13 25.5l-1 -1q2 5 2 8v5q0 20 -13 32h1q-13 16 -34 16q-15 0 -30 -9
q-25 -14 -59.5 -48t-73 -80.5t-76.5 -102.5t-70 -113t-53.5 -112t-26.5 -101q-3 -24 -3 -49q0 -45 12 -77.5t34 -55.5q46 -43 127 -43q14 0 28 1.5t29 3.5q58 8 110 25t112 43v-131q-10 -9 -10 -24q0 -14 9 -28v1q9 -14 22 -21.5t26 -7.5q19 0 32.5 14t13.5 40v209
q8 10 11.5 20.5t3.5 19.5q0 19 -15 27v185h21q28 0 58 2.5t49 10.5q30 13 30 42q0 13 -7 24z" />
    <glyph glyph-name="H" unicode="H" horiz-adv-x="710" 
d="M706 199q0 17 -11 30.5t-34 13.5h-52q1 3 1 11q1 30 2 68t2 77.5t2 76.5t1 66v26t-1 19q0 17 -3 33.5t-11 30.5q-16 22 -39 22q-17 0 -32 -9.5t-20 -26.5q-1 -4 -1 -9v-9q0 -8 1 -16.5t4 -15.5v1q2 -8 6 -11q1 -2 1.5 -2.5t1.5 -2.5q1 -8 1 -19v-21q0 -27 -1 -63.5
t-2 -75.5t-3 -78t-3 -72h-67q-33 0 -68 -1q-30 -1 -58 -1h-53q2 18 4 38t4 41q5 54 9.5 107t4.5 87v10q5 6 6.5 13t1.5 13q0 16 -0.5 15.5t-1.5 2.5q-8 20 -21.5 30.5t-27.5 10.5h-2q-18 0 -32.5 -12.5t-14.5 -37.5v-23q0 -32 -2.5 -70.5t-6 -78t-7.5 -77t-7 -66.5
q-13 2 -28 3l1 -1q-9 4 -22 4q-12 0 -21 -4q-22 -7 -33 -21.5t-11 -29.5q0 -17 12 -28.5t37 -13.5q5 -1 13.5 -1.5t19.5 -0.5h24q-1 -8 -2 -14.5t-1 -11.5q-3 -26 -5 -48.5t-2 -42.5q0 -16 2 -31t7 -26v1q7 -20 20 -29.5t28 -9.5q11 0 23 5q11 5 19.5 16.5t8.5 28.5v9
q-2 11 -5.5 19t-7.5 16v1q0 21 1 37t3 35q1 10 2 20.5t2 24.5h28h47q25 0 51 1q30 1 62 1.5t64 0.5q-2 -33 -2.5 -59.5t-0.5 -55.5q-5 -9 -6.5 -19t-1.5 -21q0 -17 3 -26q10 -24 25 -35.5t29 -11.5q37 2 43 54q2 21 2 44q0 24 1 48v41q0 22 1 42h54q22 0 33.5 13t11.5 31z
" />
    <glyph glyph-name="I" unicode="I" 
d="M516 517q0 18 -12 31.5t-34 13.5h-54h-65t-60 1q-11 17 -33 17q-9 0 -18.5 -3.5t-14.5 -11.5h-73q-21 0 -40 -1t-31 -4q-23 -5 -33.5 -18t-10.5 -27v-2q0 -17 12 -30t32 -17q8 -2 18 -2q8 0 17.5 2.5t16.5 7.5q11 1 21 1h23h18q10 0 19 -1v-26q0 -69 -3.5 -144.5
t-7.5 -153.5q-2 -22 -2.5 -43t-2.5 -41q-14 -1 -25 -1.5t-21 -0.5h-52q-23 0 -35.5 -14t-12.5 -31t12 -30.5t35 -14.5q8 -1 16 -1h17h22q12 0 25 1q6 0 12.5 0.5t13.5 0.5q6 -8 15 -12t17 -4q20 0 33 16q42 2 77 2.5t61 0.5q22 0 34 13.5t12 30.5v2q0 17 -10.5 30t-33.5 13
h-62h-31t-29 -1q2 23 3 47.5t3 50.5q5 68 9 137.5t4 132.5v38q16 -2 35 -2h40h47q12 0 23.5 0.5t20.5 1.5q22 3 32.5 15.5t10.5 29.5z" />
    <glyph glyph-name="J" unicode="J" horiz-adv-x="342" 
d="M300 254q-2 48 -5 94.5t-6 91.5q-4 63 -6.5 117t-4.5 96q0 6 2 17t4 19q0 2 0.5 4.5t0.5 4.5q0 13 -8 22.5t-21 13.5l1 -1q-5 2 -10 3t-9 1q-11 0 -22 -4.5t-19 -15.5q-9 -11 -17 -30.5t-8 -32.5v-2q0 -11 5.5 -16.5t12.5 -11.5v-21q0 -38 2.5 -85t6.5 -102
q3 -39 5.5 -81.5t4.5 -87.5q1 -13 1 -24v-21q0 -82 -20.5 -136.5t-67.5 -94.5q-31 -27 -54.5 -36t-38.5 -9h-13q-7 13 -20.5 20t-29.5 7q-13 0 -24.5 -5.5t-17.5 -19.5q-9 -14 -9 -29q0 -11 4.5 -21.5t14.5 -18.5q31 -27 80 -27q38 0 81 16.5t85 51.5q66 57 93.5 128.5
t27.5 168.5v28t-1 29z" />
    <glyph glyph-name="K" unicode="K" horiz-adv-x="540" 
d="M588 -1v1q-10 12 -27.5 24t-40 24.5t-48.5 25t-54 26.5q-29 14 -57.5 28t-55.5 28.5t-50.5 30t-40.5 31.5l2 34q18 14 55.5 30t81.5 34q42 17 82.5 34.5t66.5 32.5q3 3 5 4q9 7 21 18.5t15 30.5q0 2 0.5 5t0.5 5q0 16 -9 29t-31 13q-14 0 -28 -5.5t-21 -19.5
q-2 -5 -14 -12t-31.5 -16t-44 -19.5t-50.5 -20.5q-26 -11 -51.5 -21t-45.5 -20q0 16 1 33t3 34q2 21 3 41.5t1 37.5q7 20 7 35v7q-3 20 -14 32.5t-32 12.5q-19 0 -35 -10.5t-16 -36.5q0 -30 -1.5 -67.5t-3.5 -78.5q-2 -25 -3 -49t-2 -46q-19 -25 -19 -57q0 -34 14 -59v-160
q0 -26 13 -40t24 -20q11 -7 24 -7q11 0 18.5 4.5t13.5 12.5q12 13 12 32v4q0 3 -2 8h1q-1 2 -5.5 6.5l-9.5 9.5q0 9 0.5 18.5t0.5 17.5t0.5 16.5t0.5 19.5q35 -21 77.5 -42.5t84.5 -41.5q50 -24 90 -44.5t54 -37.5q15 -16 34 -16q11 0 19.5 5t14.5 13q5 6 8.5 13.5t3.5 17.5
q0 13 -10 27z" />
    <glyph glyph-name="L" unicode="L" horiz-adv-x="570" 
d="M605 102l-1 1q-13 19 -36 19q-6 0 -13 -1t-14 -5q-24 -14 -58.5 -26.5t-75 -22t-84.5 -15.5t-87 -7q-31 0 -39 9q-5 7 -5 20q0 9 2.5 21.5t7.5 29.5q37 128 59.5 247t31.5 224v6q0 22 -13.5 32t-31.5 10q-17 0 -31.5 -10t-16.5 -32q-11 -84 -30 -197.5t-60 -253.5
q-18 -59 -18 -99q0 -45 25 -69q15 -17 40 -24t61 -8q47 0 98 5t100 15.5t93.5 26.5t79.5 37q14 8 19 19t5 22q0 13 -8 26z" />
    <glyph glyph-name="M" unicode="M" horiz-adv-x="804" 
d="M813 -17v2q-2 28 -24 34q-13 4 -17 12q-14 36 -27.5 83t-26.5 98t-24 103t-21 98q-2 6 -2.5 11.5t-2.5 10.5v-1q-3 20 -17 25t-32 5t-30.5 -6.5t-17.5 -23.5v-3q-2 -9 -5 -14v1q-9 -17 -24 -38.5t-31 -41.5t-31.5 -37t-26.5 -26q-10 -8 -22 -13t-21 -5h-3q-23 0 -43 20
q-46 40 -76.5 97.5t-50.5 144.5q3 7 3 17q0 17 -11 24q-2 5 -3.5 11.5t-6.5 14.5t-13.5 12t-17.5 4q-5 0 -11 -1.5t-13 -3.5q-12 -6 -21 -14.5t-9 -25.5q0 -11 2 -21t4 -18q0 -2 2 -6v-1q1 -1 1 -2v0l-1 2q-1 -95 -9 -169.5t-16 -138.5q-7 -51 -12 -94.5t-5 -87.5v-25
q0 -14 2 -26q3 -24 16 -36.5t29 -12.5h2q17 1 31.5 14t14.5 35v6q-1 8 -1 17v18q0 37 4 80t10 93q3 29 7 60t8 66q30 -59 75 -100q48 -45 109 -45q29 0 56.5 10.5t50.5 30.5h-1q20 16 44.5 44t42.5 55q9 -38 18.5 -80t21 -84t24.5 -82.5t28 -75.5q8 -20 27 -34t39 -14h6
q24 3 36.5 17t12.5 31z" />
    <glyph glyph-name="N" unicode="N" horiz-adv-x="656" 
d="M627 457q-5 17 -17.5 25t-26.5 8q-4 0 -7.5 -0.5t-8.5 -2.5q-14 -6 -24 -18t-12 -31v-4q0 -9 3.5 -18t11.5 -14q1 -8 1.5 -17.5t0.5 -18.5q0 -31 -3.5 -66.5t-9 -68.5t-11.5 -60t-12 -41q-6 -15 -15.5 -31t-26.5 -17h-2q-10 0 -20.5 5.5t-25.5 19.5q-30 30 -58.5 69.5
t-54 82t-46.5 84t-36 74.5q1 5 1.5 9t0.5 6q0 30 -27 38q-1 3 -2.5 6t-0.5 1l-1 2l-0.5 1.5t-4 5.5t-10.5 15q-9 10 -27 10q-13 0 -22 -5q-10 -5 -17.5 -15.5t-7.5 -25.5q0 -2 0.5 -4t0.5 -4q2 -11 7.5 -23t10.5 -23l2 -4q-5 -33 -10 -76.5t-9 -91t-7 -94.5t-3 -86
q0 -38 3 -65q2 -30 19 -51.5t51 -25.5h6q20 0 32.5 13.5t12.5 30.5q0 11 -6 20.5t-20 14.5q-4 1 -6 14v2q-1 2 -1 5q-1 8 -1 16v18q0 41 4 96t9 111q35 -64 73 -118.5t79 -96.5q29 -33 58 -46.5t55 -14.5q44 1 78.5 32t51.5 82h-1q8 24 15 55t12 65.5t8 70.5t3 69
q0 30 -2 56t-7 45z" />
    <glyph glyph-name="O" unicode="O" horiz-adv-x="787" 
d="M793 198q0 80 -80 140q-35 26 -74.5 50.5t-81.5 44.5q-39 19 -72.5 26t-62.5 7q-25 0 -47 -3q-1 0 -1.5 -0.5l-0.5 -0.5v2q0 15 -12.5 27t-26.5 17q-6 2 -10.5 2.5t-7.5 0.5q-19 0 -31 -11.5t-16 -30.5q-39 -26 -73 -67t-59.5 -87.5t-40.5 -94t-15 -85.5q0 -93 53 -143
q28 -26 67.5 -39t88.5 -13q82 0 185 38q21 8 44 16l46 16t46 15.5t46 16.5q69 26 102 65.5t34 90.5zM697 196q0 -20 -17.5 -37t-59.5 -35q-32 -14 -67.5 -26t-70.5 -24q-10 -3 -19.5 -6t-18.5 -6q-52 -17 -92 -25.5t-72 -8.5q-26 0 -44.5 6t-31.5 17q-15 14 -22 36t-9 48
q0 21 11 54.5t29.5 69.5t42 69t48.5 54q6 -6 15 -8.5t19 -2.5q11 0 16 1q12 2 23.5 3t24.5 1q27 0 57 -6t59 -20h-1q38 -20 72.5 -40t61.5 -43v1q46 -42 46 -72z" />
    <glyph glyph-name="P" unicode="P" horiz-adv-x="572" 
d="M265 431v2q0 2 0.5 3t0.5 3q0 15 -10.5 25t-22.5 14q5 -1 9.5 -1.5t10.5 -1.5q55 -11 110 -21t100 -23q62 -16 62 -41v-2q0 -16 -35 -33q-19 -9 -44.5 -21.5t-54 -26.5t-59.5 -28.5t-61 -27.5q-27 -13 -27 -39q0 -10 5 -20q5 -12 15.5 -20.5t25.5 -8.5q10 0 20 5
q29 13 61.5 28.5t64.5 31.5q29 14 54.5 26t45.5 20q49 25 73 55t24 62v2q-1 40 -36 73.5t-109 54.5q-41 11 -89.5 20t-97.5 19q-51 8 -98.5 17.5t-87.5 20.5q-8 8 -20 13.5t-23 5.5q-25 0 -40.5 -15.5t-15.5 -35.5q0 -12 7 -23t21 -19q19 -11 65 -21.5t105 -20.5h-1
q-14 0 -25 -8t-15 -27q-5 -26 -11 -62.5t-11 -79.5t-8.5 -91.5t-3.5 -98.5q0 -48 3.5 -94.5t12.5 -88.5q5 -20 17 -28.5t28 -8.5h6q4 0 7 1q15 3 25 13t10 26v4t-2 7l1 -1q-8 41 -11.5 84.5t-3.5 88.5t3 90t8 86t10.5 76t11.5 61zM232 479v-1h-1v1h1z" />
    <glyph glyph-name="Q" unicode="Q" horiz-adv-x="734" 
d="M705 310q-8 40 -26 87.5t-39 84.5q-24 45 -59.5 70.5t-81.5 26.5h-3q-59 0 -129 -49q-37 -26 -74.5 -64t-72.5 -83t-66 -93t-53 -94q-42 -86 -42 -146q0 -62 36 -99q20 -20 50 -31.5t69 -11.5q20 0 39 2.5t40 7.5q12 3 30 9t39 14t43.5 16.5t43.5 17.5l1 -1
q11 -36 22.5 -74t31.5 -74q16 -31 43 -48t62 -18h2q22 0 34.5 14t13.5 33v2q0 15 -10.5 28t-30.5 16q-8 0 -17.5 5t-17.5 19q-13 24 -25 60t-21 74q2 0 4 2v-1q22 11 47.5 26t44.5 30q46 36 63.5 78.5t17.5 87.5q0 40 -9 76zM613 286q3 -14 5 -28t2 -25q0 -26 -10.5 -47.5
t-36.5 -43.5q-9 -8 -25 -17.5t-34 -19.5l-4 20t-2 19q-2 9 -3 17.5t-3 15.5q-4 18 -14.5 25.5t-21.5 7.5q-16 0 -31.5 -10.5t-24.5 -27.5q-4 -8 -5.5 -16t-1.5 -16q0 -15 5 -26.5t13 -16.5q2 -6 3.5 -14.5t3.5 -18.5q-16 -7 -35.5 -14.5t-39 -14t-39 -12t-35.5 -8.5
q-30 -8 -53 -8q-33 0 -51 15v-1q-16 16 -16 41q0 35 33 103q21 42 49 85t58 82t61 71t59 52q20 15 37.5 22t31.5 7h3q20 -1 36 -14.5t31 -37.5q8 -13 17 -31.5t16.5 -38.5t13 -40t8.5 -36z" />
    <glyph glyph-name="R" unicode="R" horiz-adv-x="590" 
d="M633 -64q2 5 2.5 8.5t0.5 7.5q0 14 -8.5 27t-28.5 18q-41 10 -90.5 28.5t-99.5 40.5t-95.5 46.5t-78.5 46.5v10q23 9 48 18.5t52 18.5q43 15 85.5 30.5t71.5 30.5q96 45 96 105q0 58 -90 114q-39 22 -84.5 40.5t-95 33.5t-102.5 28t-106 25q-8 7 -19 11.5t-22 4.5h-7
q-27 0 -42 -20q-4 -5 -6.5 -11.5t-2.5 -14.5q0 -16 14 -32q6 -6 15.5 -11.5t20 -10.5t21 -8t18.5 -3q5 0 8 1q1 0 1.5 -0.5t1.5 -0.5h-1q11 -2 25 -4.5t28 -6.5q-15 -43 -18.5 -98.5t-3.5 -109.5v-67q-30 -27 -30 -60q0 -17 7 -32t22 -27q0 -26 -0.5 -55.5t-1.5 -58.5
q-1 -17 -1.5 -32t-0.5 -29v-2q0 -23 14 -34.5t31 -12.5q17 0 31 10.5t15 35.5q0 11 0.5 26t1.5 32q1 15 1 30q0 16 1 30q39 -23 84.5 -45t92 -42t90.5 -36t78 -25q6 -2 14 -2q16 0 27 9.5t16 23.5zM481 374q0 -14 -33 -29q-17 -9 -41 -19t-51 -19.5t-55 -19t-54 -17.5
q-4 -2 -8 -2.5t-7 -2.5q0 2 0.5 4.5t0.5 4.5q2 71 4 127.5t14 83.5q63 -17 116 -37.5t82 -38.5q32 -21 32 -35z" />
    <glyph glyph-name="S" unicode="S" 
d="M482 751q-16 14 -37 14q-11 0 -20 -4q-33 -12 -41 -49q-12 -10 -28 -24t-35 -31q-41 -35 -88.5 -77t-88.5 -87q-66 -72 -66 -133v-3q0 -66 66 -126q10 -9 23.5 -21t28.5 -26q25 -22 50.5 -45t41.5 -39q20 -20 29 -38t10 -34q0 -12 -4 -24t-15 -25q-23 -31 -58.5 -54
t-61.5 -38q-14 -7 -19.5 -18t-5.5 -22t7 -23q6 -13 17 -19.5t23 -6.5q7 0 12.5 1t12.5 5q29 16 70.5 45.5t77.5 74.5q17 23 27 47.5t10 52.5v3q0 69 -66 138q-11 11 -28.5 26.5t-36.5 31.5q-23 21 -45 41.5t-36 34.5q-33 33 -33 61q0 33 37 73q32 36 75.5 75t85.5 75
q36 31 65 56.5t43 43.5q8 11 11 19.5t3 17.5q0 21 -13 31z" />
    <glyph glyph-name="T" unicode="T" horiz-adv-x="525" 
d="M647 480v8q0 17 -12 31t-41 14q-17 1 -38 1h-44q-33 0 -71.5 -0.5t-80.5 -0.5q-47 -1 -96 -1h-96q-59 0 -112 0.5t-95 2.5h-2q-22 0 -32.5 -12.5t-11.5 -29.5v-2q0 -17 13.5 -32t35.5 -15q23 -1 58.5 -1.5t75.5 -0.5h76q39 0 74 1q0 -14 -0.5 -28.5t-1.5 -29.5
q-1 -44 -2 -90.5t-1 -92.5q0 -54 2 -100.5t7 -82.5q4 -32 21.5 -46.5t34.5 -17.5l-1 1q5 -2 10 -2q17 0 31 10.5t17 32.5v4q0 23 -19 39q-5 23 -6.5 73t-1.5 110v85q0 29 1 57.5t2 51.5q0 7 0.5 13.5t0.5 13.5h7q33 1 62 1.5t55 0.5h49q22 0 38 -1q16 -12 38 -12q13 0 23 5
q14 6 22.5 17.5t10.5 24.5z" />
    <glyph glyph-name="U" unicode="U" horiz-adv-x="667" 
d="M630 610v1q-12 36 -44 36q-13 0 -24.5 -7t-19.5 -18l1 1q-5 -6 -6 -12.5t-1 -13.5q0 -8 1 -15t3 -16q2 -8 3 -16.5t3 -20.5q3 -23 5 -50t2 -56q0 -41 -4 -85t-13.5 -87t-24.5 -83t-37 -72q-38 -52 -83.5 -83.5t-86.5 -31.5q-15 0 -29 5t-25 17q-29 26 -46 96q-9 46 -9 93
q0 51 7.5 103.5t16.5 99.5q6 32 10 60t4 49q0 23 -14.5 35.5t-32.5 12.5h-2q-15 0 -29 -12t-14 -34q0 -12 -4 -32.5t-9 -47.5q-8 -47 -17.5 -105.5t-9.5 -124.5q0 -29 2.5 -57.5t8.5 -55.5q21 -104 74 -151q51 -45 114 -45q21 0 44 4.5t46 14.5q45 21 86 57t72 81
q30 42 49 90t30 98t15 100t4 95q0 64 -5.5 113t-10.5 70z" />
    <glyph glyph-name="V" unicode="V" horiz-adv-x="645" 
d="M713 447q0 8 -2.5 24t-17.5 27q-13 10 -26 10q-22 0 -43 -27q-5 -6 -10 -14t-12 -16q-24 -33 -60 -81.5t-75.5 -101t-79 -103.5t-69.5 -89q-2 -5 -4 -5l-0.5 1.5t-2.5 3.5q-48 81 -88.5 165t-86.5 185q-7 16 -19 22t-23 6h-9q-21 -2 -30.5 -14.5t-9.5 -29.5
q0 -5 1.5 -11.5t3.5 -13.5q18 -39 42.5 -91t51.5 -107t56 -109.5t57 -98.5h-1q8 -15 22 -21.5t28 -6.5t28 6t22 20l-1 -1q60 71 122.5 153.5t120.5 160.5q19 25 37 49.5t35 47.5q20 11 31.5 26t11.5 34z" />
    <glyph glyph-name="W" unicode="W" horiz-adv-x="932" 
d="M889 333q-9 48 -22 92t-28.5 81t-31.5 63.5t-29 40.5q-15 14 -33 14q-19 0 -33 -14v1q-15 -14 -15 -33q0 -21 17 -35q5 -5 15.5 -25t23.5 -51t25.5 -71t20.5 -85q4 -23 5.5 -43t1.5 -39q0 -37 -11 -65q-14 -32 -39.5 -57.5t-58.5 -42.5h1q-30 -14 -60 -14q-43 0 -70 28
q-15 15 -25 40.5t-16 57t-8.5 66.5t-2.5 68q0 20 0.5 37t1.5 33v6q0 17 -9 27t-23 13q-3 1 -6 1.5t-8 0.5q-12 0 -23.5 -6.5t-17.5 -19.5v1q-9 -17 -22.5 -46t-30.5 -64q-14 -29 -29 -60.5t-30 -62t-30 -58.5t-28 -50h1q-12 -20 -18 -20q-3 0 -6 23q-7 46 -12.5 98
t-10 104.5t-7 103t-3.5 94.5q0 21 -14.5 33t-31.5 12t-31.5 -11.5t-14.5 -36.5q0 -51 3 -106t8 -108.5t10 -103.5t10 -92q1 -7 1.5 -13.5t1.5 -12.5q7 -50 25.5 -76.5t44.5 -30.5h-1q4 -1 13 -1q23 0 47.5 18.5t45.5 53.5q27 45 57 102.5t56 111.5q4 -58 17.5 -109.5
t48.5 -84.5q30 -26 65 -38.5t70 -12.5q28 0 55.5 7t52.5 19q48 24 82 59t55 86q19 47 19 99q0 25 -3 51t-8 53z" />
    <glyph glyph-name="X" unicode="X" horiz-adv-x="510" 
d="M549 573v7q0 14 -6.5 24t-17.5 18q-14 7 -23 7q-11 0 -20 -5t-15 -18q-4 -10 -8 -14q-3 -2 -6.5 -5t-6.5 -8q-18 -28 -39 -60t-42 -66t-42.5 -68.5t-40.5 -66.5q-13 21 -31 49.5t-35.5 55.5t-31.5 48t-17 27q-16 22 -39 22q-12 0 -35 -13q-10 -10 -10 -32q0 -15 7 -26
q2 -2 12.5 -18t26.5 -42q12 -19 26 -40.5t27.5 -43.5t25.5 -41.5t20 -33.5q-28 -45 -55 -88.5t-50 -81.5t-42 -68.5t-31 -50.5q-1 -1 -1 -2t-1 -2q-7 -14 -14 -29t-11 -29q0 -2 -0.5 -5t-0.5 -5q0 -23 13 -37t33 -15q11 0 21.5 6t17.5 23q5 11 10 23t13 24q17 30 39.5 68
t49.5 82q15 25 31.5 51t33.5 53q35 -48 80.5 -104t96.5 -106q7 -6 15 -9t15 -3q20 0 32 14q7 6 11.5 14.5t4.5 18.5q0 19 -15 31v-1q-25 25 -51 54t-50.5 59t-47 60t-40.5 57q18 29 36.5 59t38.5 60l58 92t55 88l0.5 -1t2.5 1q6 6 13.5 15.5t9.5 26.5z" />
    <glyph glyph-name="Y" unicode="Y" horiz-adv-x="516" 
d="M644 551q8 8 10.5 15.5t2.5 15.5q0 17 -14.5 30.5t-33.5 13.5q-20 0 -37 -16q-23 -28 -46.5 -59t-46.5 -66q-45 -66 -84.5 -132.5t-69.5 -117.5q-8 -14 -14.5 -26t-13.5 -23q-23 42 -47 90.5t-45.5 95t-39 87t-27.5 67.5q-5 16 -15.5 22.5t-22.5 6.5q-18 0 -34 -12
t-16 -29q0 -6 3 -12h-1q9 -28 29.5 -77.5t47 -107t57 -117t58.5 -108.5q-23 -40 -47 -81.5t-47 -78.5v1q-10 -14 -10 -28q0 -11 6 -19t15 -15q5 -5 12 -6.5t15 -1.5t18 3.5t19 14.5q9 12 22 33.5t27 45.5t27 46t21 36q13 5 21.5 15.5t8.5 26.5q0 6 -1 11q24 43 47 83.5
t47.5 81t51.5 84t59 92.5q20 30 42.5 59.5t45.5 55.5z" />
    <glyph glyph-name="Z" unicode="Z" horiz-adv-x="550" 
d="M564 487q-8 21 -28.5 33.5t-55.5 12.5h-11q-97 -2 -180.5 -11.5t-159.5 -27.5q-29 -8 -44 -24q-18 -17 -18 -36q0 -16 7 -27q6 -11 13.5 -15t18.5 -4q10 0 21.5 4t22.5 11q72 17 138 25.5t144 11.5q14 0 16 -3v-1h1q0 -6 -11 -17v1q-39 -34 -82 -72.5t-87.5 -79.5
t-88.5 -82.5t-84 -81.5q-49 -51 -49 -91q0 -13 4 -21l-1 1q16 -48 102 -58q27 -3 56 -3q39 0 80 4.5t79.5 13t73 19.5t61.5 23q29 14 29 40q0 5 -1 11.5t-5 13.5q-6 11 -15.5 17.5t-23.5 6.5q-13 0 -25 -6q-19 -11 -47 -20t-61 -16t-69 -11t-72 -4q-7 0 -13 0.5t-12 0.5
q-11 1 -17 3.5t-8 4.5q0 5 6 12t15 16q40 42 96 92.5t113 101.5q38 33 72 63.5t61 56.5q22 21 33 44t11 43q0 14 -5 25zM161 35v-1q1 0 1 -1q-1 1 -1 2z" />
    <glyph glyph-name="bracketleft" unicode="[" horiz-adv-x="220" 
d="M261 -109q0 18 -10.5 30.5t-30.5 15.5q-10 1 -18 1q-7 0 -14 1q-12 1 -22 1.5t-21 0.5q-5 0 -10.5 0.5t-12.5 -0.5q1 27 1.5 67.5t1 90t1 105t0.5 112.5v113q0 57 -0.5 107t-1.5 91.5t-2 68.5h118q22 0 32.5 13.5t10.5 29.5v2q0 17 -12 31t-33 14q-24 0 -59 0.5t-77 2.5
l2 -1q-9 4 -16.5 5t-12.5 1q-22 0 -32 -15.5t-10 -50.5v-11t1 -11q2 -35 3 -97.5t1 -138.5t-0.5 -158t-1 -156t-1.5 -134t-2 -91q-2 -5 -2 -10v-10q0 -23 13 -42t50 -19h8q19 0 30.5 -0.5t22.5 -1.5q12 -1 26 -1.5t36 -0.5q21 0 32.5 14t11.5 31z" />
    <glyph glyph-name="backslash" unicode="\" horiz-adv-x="476" 
d="M24 610q4 -24 28.5 -65.5t61.5 -93.5t82.5 -111.5t92.5 -118.5q39 -50 76.5 -98t67 -89t49 -72.5t24.5 -49.5q5 -15 11.5 -21t17.5 -6q8 0 16 4l-1 -1q29 6 29 37v7q-2 20 -22 55t-51.5 80t-72.5 97t-85 108q-33 42 -67 84t-65 83t-58 78.5t-47 70.5q0 36 -13 59
q-8 16 -18 22t-21 6h-5t-8 -2l1 1q-13 -2 -18.5 -14.5t-5.5 -30.5v-10q0 -4 1 -9z" />
    <glyph glyph-name="bracketright" unicode="]" horiz-adv-x="206" 
d="M-22 -109q0 -17 11.5 -31t32.5 -14q22 0 36.5 0.5t25.5 1.5t22.5 1.5t30.5 0.5h8q37 0 50.5 19t13.5 42q0 11 -3 20q-1 31 -2 91t-1.5 134t-1 156t-0.5 158t1 138.5t3 97.5q1 5 1 11v11q0 35 -10 50.5t-32 15.5q-6 0 -13 -1t-16 -5l2 1q-42 -2 -77 -2.5t-59 -0.5
q-21 0 -33 -14t-12 -31v-2q0 -16 10.5 -29.5t32.5 -13.5h118q-2 -27 -2.5 -68.5t-1 -91.5t-0.5 -107v-113v-113q0 -55 0.5 -104.5t1 -90t1.5 -67.5q-6 1 -11 0.5t-10 -0.5q-11 0 -21.5 -0.5t-22.5 -1.5q-7 -1 -15 -1q-7 0 -17 -1q-20 -3 -30.5 -15.5t-10.5 -30.5z" />
    <glyph glyph-name="asciicircum" unicode="^" horiz-adv-x="319" 
d="M323 377h-1q-11 12 -28 28t-31 29q-13 10 -26 10q-7 0 -12.5 -2.5t-12.5 -6.5v1q-10 -5 -21 -11.5t-23 -14.5q-27 -14 -52 -29q-16 -10 -16 -26q0 -10 6 -17q10 -16 30 -16q11 0 19 4q6 4 13 7.5t13 7.5q12 8 25 15t23 14q5 -4 10.5 -8.5t12.5 -10.5l11 -11t12 -11
q5 -5 11 -5.5t12 -0.5q14 0 24.5 8.5t10.5 22.5q0 5 -2 11t-8 12z" />
    <glyph glyph-name="underscore" unicode="_" horiz-adv-x="485" 
d="M546 -107v1q0 6 -4.5 13.5t-12 13.5t-16 10.5t-17.5 4.5h-4q-14 -1 -58 -1h-102h-196q-49 0 -87 -1.5t-51 -4.5q-11 -3 -19.5 -14t-8.5 -22q0 -15 13 -26.5t48 -11.5h4q8 -1 42 -1.5t83 -0.5h104h80t73.5 0.5t58 1.5t34.5 2q19 3 27.5 14.5t8.5 21.5z" />
    <glyph glyph-name="grave" unicode="`" horiz-adv-x="248" 
d="M249 326q9 11 9 23q0 14 -14 24h1q-15 13 -31 25t-33 25q-11 8 -21.5 16.5t-21.5 16.5q-7 7 -20 7q-17 0 -26 -14q-9 -9 -9 -23q0 -15 13 -24q25 -20 53.5 -41t54.5 -41q8 -7 19 -7q8 0 14.5 4t11.5 9z" />
    <glyph glyph-name="a" unicode="a" horiz-adv-x="594" 
d="M663 95v1q-14 16 -33 16q-10 0 -22 -6q-11 -6 -26.5 -12t-32 -11.5t-32.5 -9.5t-28 -6h-4q-11 0 -18 5t-12 19q-3 7 -4 18t-1 25v15q0 25 -13 37t-33 12q-24 0 -50 -16v1q-16 -10 -36.5 -25.5t-42 -32.5t-42 -34.5t-36.5 -30.5l-12 -9q-11 -9 -17 -9q-2 0 -2 2q-1 1 -1 8
t1.5 15t4.5 13q10 21 27.5 44.5t38 45t41.5 39.5t39 30q38 26 66 26q9 0 17.5 -2.5t15.5 -8.5q13 -9 28 -9q14 0 25.5 6.5t18.5 17.5q6 10 6 23q0 8 -4 17t-14 17q-21 17 -41.5 24.5t-40.5 7.5q-37 0 -70 -17.5t-57 -32.5q-21 -14 -45.5 -34t-48.5 -44.5t-45.5 -52.5
t-36.5 -58q-21 -40 -23 -85q0 -49 28 -73q22 -19 53 -19q37 0 80 31q12 10 24.5 20.5t26.5 21.5q22 19 41.5 35.5t32.5 24.5q3 3 6 3q0 -15 6 -33.5t13 -28.5v1q16 -23 35.5 -33.5t52.5 -10.5h12t14 1q37 4 80 19.5t77 33.5q11 7 17 18t6 23q0 14 -10 27z" />
    <glyph glyph-name="b" unicode="b" horiz-adv-x="516" 
d="M482 299h-1q-14 14 -34.5 23t-49.5 9h-16q-7 0 -15 -2h1q-38 -5 -76.5 -18t-65.5 -28q-10 -6 -20.5 -12.5t-19.5 -14.5q3 39 7 78t8.5 75.5t9.5 69.5t9 59l-1 -1q0 1 4 9q3 7 7 16t5 18v6q0 17 -12 27t-29 10h-4q-28 0 -41 -22q-10 -12 -13 -25t-6 -29q-6 -30 -13 -73.5
t-12.5 -93t-9 -101.5t-3.5 -98q0 -32 1.5 -60.5t6.5 -49.5q5 -23 19 -33t28 -10q17 0 29.5 11.5t14.5 34.5v9q-1 6 -1.5 12t-0.5 13q0 3 0.5 7.5t1.5 9.5l-1 -1l3 8q1 2 1.5 4t2.5 6q7 14 20.5 26.5t29.5 22.5q32 20 65.5 31t56.5 13q5 1 8 1h5q15 0 21 -6q3 -6 3 -12
q0 -12 -11 -34q-8 -17 -22.5 -39.5t-31.5 -41.5q-26 -32 -61.5 -57t-80.5 -54q-19 -14 -19 -39q0 -9 5 -19q17 -26 38 -26q14 0 26 8h-1q43 28 83.5 56.5t74.5 66.5q22 24 40 51t30 52v-1q27 49 27 94q0 39 -20 64z" />
    <glyph glyph-name="c" unicode="c" horiz-adv-x="558" 
d="M593 116h-1q-13 19 -37 19q-12 0 -24 -6q-14 -8 -43 -20.5t-68 -24.5t-84.5 -21t-93.5 -9q-35 0 -51.5 10.5t-16.5 26.5q0 11 7 24q9 18 24.5 36t34 33t37.5 26t36 16q9 -3 18 -4t18 -1q6 0 10 0.5t8 0.5q20 4 31.5 18.5t11.5 31.5q-1 17 -13.5 30t-38.5 17q-3 1 -8 1
h-11q-23 0 -31 -2q-71 -26 -127 -69.5t-85 -94.5q-13 -21 -18.5 -41.5t-5.5 -37.5q0 -50 43.5 -79.5t121.5 -29.5h8q57 1 109 11t95 23t75.5 27t50.5 23q25 15 25 40q0 12 -7 26z" />
    <glyph glyph-name="d" unicode="d" horiz-adv-x="595" 
d="M558 150v7q-3 53 -8.5 120.5t-12.5 135.5t-14.5 130.5t-13.5 105.5q-3 23 -16 34t-28 11h-4t-7 -2l1 1q-15 -3 -26.5 -14.5t-11.5 -32.5v-4t2 -7l-1 1q5 -36 10.5 -81t10.5 -94t9.5 -100t8.5 -99q-22 17 -49.5 32.5t-67.5 15.5q-29 0 -61 -11.5t-63.5 -29t-58.5 -39
t-45 -41.5q-42 -47 -42 -92v-3q1 -44 33 -77.5t95 -48.5q20 -5 49.5 -8.5t64.5 -3.5t74 5t81 20q20 7 28 18t8 24q0 10 -3 19q-6 13 -17 21t-26 8h-6q-37 -12 -73 -17.5t-67 -5.5q-28 0 -51.5 3.5t-38.5 7.5q-26 8 -38 18t-13 21q0 8 4 17.5t13 18.5q15 15 34.5 30t40 26.5
t40 18.5t36.5 7q19 0 36.5 -8.5t33 -22t28.5 -30.5t24 -33l-1 1q8 -17 21.5 -24t27.5 -7q20 0 35 14.5t15 43.5z" />
    <glyph glyph-name="e" unicode="e" horiz-adv-x="456" 
d="M512 90v-1q-6 11 -15.5 18.5t-22.5 7.5q-5 0 -8 -0.5t-6 -1.5q-10 -3 -22.5 -8t-26.5 -10q-41 -15 -91.5 -31t-96.5 -16q-19 0 -34 4q-15 2 -24 11.5t-9 24.5q34 4 70.5 18.5t68 37t55 50.5t32.5 59q6 21 6 48q0 25 -8.5 47t-30.5 35q-20 13 -48 13q-20 0 -39 -5t-33 -13
h1q-36 -18 -84 -77q-23 -30 -46.5 -74t-33.5 -101q-2 -9 -3 -18.5t-1 -19.5q0 -55 37 -90q27 -28 72 -34q23 -4 50 -4q32 0 64 5.5t61.5 14t56 18.5t47.5 18q11 5 20 8t17 6h-1q16 5 23 16t7 23q0 13 -4 21zM295 274v1q-4 -14 -15.5 -27.5t-27.5 -25t-34.5 -20.5t-37.5 -15
q10 26 26 49t33 40q16 17 27 23h-1q5 2 11 4.5t11 2.5q6 0 8 -2q1 -2 2 -5.5t1 -6.5q0 -6 -3 -18z" />
    <glyph glyph-name="f" unicode="f" horiz-adv-x="385" 
d="M495 584v1q1 5 1 18v8q0 5 -1 10v-1q-1 16 -8.5 32.5t-20.5 29.5t-31.5 21t-42.5 8q-23 0 -44.5 -7.5t-41 -18.5t-35 -23.5t-25.5 -22.5q-17 -18 -31.5 -40t-28.5 -48q-23 -47 -37.5 -102t-22.5 -112q-6 -1 -12.5 -1.5t-11.5 -0.5q-9 -1 -20.5 -2l-11.5 -1h1
q-22 -3 -32.5 -17t-10.5 -29v-2q0 -17 10.5 -30t32.5 -13h2q23 0 44 3q-3 -31 -4 -66t-1 -73q0 -39 1.5 -79t5 -78t9.5 -73t14 -63q8 -23 19 -37.5t28 -24.5q11 -7 27 -7t33 15q14 14 14 30q0 12 -7 25q-3 5 -6.5 9.5t-5.5 7.5q-9 7 -12 16q-6 15 -10.5 42t-8.5 62.5t-6 77
t-2 85.5q0 34 1 69.5t5 70.5q10 1 21.5 2t22.5 3q32 4 66 7.5t66 9.5h-1q21 3 31 18t10 30q0 17 -11 30t-31 13q-2 0 -4 -0.5t-4 -0.5q-40 -5 -79.5 -9t-74.5 -8q8 46 19 87t28 76q9 17 21 34.5t23 28.5q17 17 36 28.5t33 12.5h2q11 0 16 -15v1q0 -1 0.5 -1.5l0.5 -0.5
q1 -3 1 -7q0 -6 3 -12l-1 1q3 -17 14 -25.5t25 -8.5q2 0 3 0.5t3 0.5q14 0 27 9.5t18 26.5z" />
    <glyph glyph-name="g" unicode="g" horiz-adv-x="482" 
d="M437 341v-1q-14 9 -29.5 10.5t-31.5 1.5q-31 0 -63 -10t-62.5 -26.5t-57 -38t-47.5 -43.5q-32 -35 -56 -78t-24 -90q0 -40 20 -62t55 -22q16 0 34 4.5t36 16.5h-1q10 5 19 11q22 11 43 22.5t35 17.5q4 2 7 2q5 0 6 -8q0 -2 0.5 -4t0.5 -4q4 -21 6 -43t2 -45
q0 -17 -1.5 -35.5t-6.5 -41.5q-10 -46 -34 -85.5t-74 -70.5q-23 -17 -23 -39q0 -6 2.5 -13t6.5 -12q6 -9 17 -15.5t24 -6.5q12 0 25 8l-1 -1q63 40 98.5 96t49.5 119q6 24 8.5 51.5t2.5 55.5t-2.5 55t-6 49.5t-8 39.5t-8.5 25q-8 17 -22 24t-31 7h-13t-11 -2
q-15 -5 -32 -12.5t-34 -16.5t-33.5 -19t-30.5 -18q-12 -6 -18 -6q-3 0 -3 5v5q2 15 14 35t26 37h-1q18 18 40 34.5t44.5 28.5t44 19.5t38.5 7.5q14 0 21 -4h-1q11 -7 22 -7q17 0 30.5 14.5t13.5 34.5q0 11 -6 23t-19 20z" />
    <glyph glyph-name="h" unicode="h" horiz-adv-x="627" 
d="M764 107v-1q-6 11 -15.5 19t-22.5 8q-9 0 -21 -6q-43 -19 -72.5 -28.5t-54.5 -9.5q-26 0 -37 6t-21 17q-9 11 -16.5 35t-11.5 45q-6 32 -20 49.5t-38 26.5q-17 6 -31 6q-20 0 -42 -7.5t-44 -20.5q-11 -7 -26 -17.5t-31.5 -23t-33.5 -26.5t-31 -28q-1 9 -1 19v21
q0 43 2.5 90.5t9.5 91.5t20 82t34 63q12 13 12 29q0 23 -26 36q-11 6 -24 6q-11 0 -22 -5t-18 -17l1 1q-47 -63 -64.5 -156.5t-17.5 -206.5q0 -35 1.5 -73.5t4.5 -76.5q2 -25 16 -37t33 -12q29 0 50 25q15 18 35.5 37.5t42 37.5t41 33t33.5 23q11 5 18.5 8.5t11.5 3.5
q8 0 14 -20q0 -5 2 -6q5 -19 14 -45t27 -49q26 -32 59 -44t71 -12h6q42 1 79 13.5t82 32.5q14 7 20.5 18t6.5 23q0 6 -1 12t-4 10z" />
    <glyph glyph-name="i" unicode="i" horiz-adv-x="382" 
d="M483 71v2q-1 18 -12.5 32t-34.5 14h-2q-24 0 -58.5 -12t-68.5 -26q-20 -8 -39 -15t-33 -9q-6 -2 -10 -2h-8q-19 0 -25 21q-4 15 -4 42v16q2 32 12.5 65.5t21.5 53.5q3 7 3 16q0 11 -8 20.5t-22 14.5q-11 4 -21 4q-18 0 -32 -11q-8 -8 -16.5 -23t-13.5 -26
q-1 -3 -1.5 -5.5t-0.5 -6.5q0 -9 4 -13q-6 -20 -10.5 -42t-6.5 -45q-1 -7 -1.5 -15.5t-0.5 -19.5q0 -15 1.5 -29.5t4.5 -25.5q13 -45 36 -65.5t63 -20.5q23 0 55 8q20 5 44.5 13.5t49.5 17.5q27 11 51.5 18.5t39.5 9.5q24 3 33.5 16t9.5 28zM295 514h-1q-18 12 -39 12
q-23 0 -39 -12q-15 -11 -22 -25.5t-7 -28.5q0 -26 19 -47q11 -11 24 -15.5t25 -4.5q19 0 39 13q14 10 20.5 25t6.5 30q0 33 -26 53z" />
    <glyph glyph-name="j" unicode="j" horiz-adv-x="237" 
d="M204 108q0 51 -6 98t-20 87q-5 14 -15 20t-21 6q-7 0 -9.5 -0.5t-6.5 -1.5q-12 -4 -22 -13t-14 -23q0 -4 -0.5 -9t-0.5 -12q0 -8 0.5 -11.5t0.5 -7.5q4 -17 15 -24q9 -54 9 -109q0 -90 -18 -179t-48 -157v0q0 -1 -1 -2l1 3q-5 -10 -9 -16q-2 0 -3.5 -0.5t-2.5 -0.5
q-5 -1 -10.5 -1.5t-17.5 -9.5q-10 -10 -11 -33v-2q0 -18 12.5 -33.5t38.5 -15.5h2q26 0 45 17.5t30 39.5q19 37 34.5 83t26 97t16 104.5t5.5 105.5zM160 553q-8 8 -18.5 11t-20.5 3q-24 0 -39 -14q-25 -19 -25 -53q0 -27 17 -47q19 -22 44 -22q24 0 39 12q14 11 20.5 25.5
t6.5 30.5q0 33 -24 54z" />
    <glyph glyph-name="k" unicode="k" horiz-adv-x="501" 
d="M550 -28q4 8 4 17q0 14 -8 25.5t-27 16.5q-35 6 -78.5 26t-84.5 44t-76 48.5t-53 40.5q-5 5 -5 11q0 7 10 10q14 8 35.5 15.5t46.5 14.5t52 11.5t51 6.5h33q7 0 11 -1q3 -1 6 -1h7q20 0 30 13t11 30v4q0 15 -9 27.5t-31 15.5q-21 3 -44 3h-17q-27 -1 -56.5 -6t-58 -11.5
t-53.5 -14.5t-43 -16q14 57 36 108.5t57 102.5q7 13 7 25t-3.5 19t-8.5 12q-20 14 -34 14q-19 0 -34 -15q-27 -30 -47 -67.5t-35 -80t-25.5 -88.5t-17.5 -91q-6 -39 -8.5 -77t-2.5 -73q0 -17 0.5 -32.5t1.5 -30.5q0 -23 14 -33.5t30 -10.5q18 0 30 10.5t14 32.5v39t2 48
q25 -23 63 -49.5t82.5 -51t90 -44t85.5 -28.5q2 0 4 -0.5t4 -0.5q15 0 26 9.5t16 22.5z" />
    <glyph glyph-name="l" unicode="l" horiz-adv-x="409" 
d="M552 93v-1q-11 31 -42 31q-10 0 -18 -4h1q-25 -9 -51.5 -18t-53.5 -16t-53 -11.5t-48 -4.5q-6 0 -13 0.5t-12 1.5q-7 2 -14.5 5.5t-12.5 6.5q30 33 62 76t55 95q20 45 30.5 103t10.5 109v13q0 7 -1 13q-4 70 -25 106t-54 40l2 -1q-5 2 -12 2q-27 0 -57 -22.5t-59 -64.5
q-18 -26 -35 -62t-30 -77t-21 -85t-8 -86v-7q0 -47 5.5 -86.5t18 -71t33.5 -54.5t52 -36q35 -13 79 -13q29 0 59.5 5.5t60 13t55.5 16.5t47 16v-1q5 2 9.5 4t9.5 4q17 8 25.5 19.5t8.5 25.5q0 9 -4 16zM300 477v-13q0 -21 -2.5 -45.5t-7 -48t-9.5 -44t-11 -33.5
q-14 -34 -35 -64.5t-44 -58.5q-7 27 -7 62v10q1 35 8 71.5t17 70t22.5 62t24.5 46.5q11 17 19 24.5t13 7.5q9 -5 12 -47z" />
    <glyph glyph-name="m" unicode="m" horiz-adv-x="947" 
d="M1080 56v-1q9 12 9 25q0 17 -14 29v-1q-8 7 -17.5 10.5t-23.5 3.5h-6q-12 -1 -29.5 -4.5t-37 -9l-39 -11t-37.5 -11.5q-13 -5 -26 -5q-15 0 -26 12q-15 18 -27.5 52.5t-19.5 69.5q-18 80 -77 80h-2q-51 0 -122 -59q-9 -8 -20.5 -18.5t-23.5 -22t-23.5 -23l-20.5 -20.5
l-4 -2q2 0 0 2q-3 5 -6 17q-5 13 -11 28t-11 29q-14 29 -32.5 40.5t-39.5 11.5h-9t-8 -1q-27 -5 -54 -24.5t-45 -41.5l-14 -17q-11 -13 -21.5 -25t-20.5 -23q-5 -5 -9 -9.5t-8 -9.5v22q0 30 1 60.5t3 58.5v3q0 20 -14 31.5t-31 11.5h-2q-18 0 -31.5 -10.5t-16.5 -33.5
q-2 -22 -2.5 -58.5t-0.5 -77.5q0 -32 0.5 -64t2.5 -59q2 -34 31 -48h-1q5 -3 11 -4t12 -1q11 0 23.5 6t20.5 19q10 16 25.5 38t34.5 43q10 13 22 25q15 17 29 32t25 31q15 18 28 21q2 0 3 0.5t3 0.5q4 0 7 -5v1q6 -14 11 -27t10 -27h-1l10.5 -31.5t13.5 -31.5
q7 -13 20 -19.5t27 -6.5t26.5 6t20.5 17q15 18 31.5 36t32.5 34t29 27.5t20 15.5q35 25 49 25q6 0 11 -15q11 -42 24.5 -78t37.5 -63q19 -22 42 -31t49 -9q32 0 68 14q14 4 29 8t29 7t26 5.5t19 4.5q4 -1 6.5 -2t0.5 1q4 -2 9 -2q14 1 25 10t17 18z" />
    <glyph glyph-name="n" unicode="n" horiz-adv-x="663" 
d="M808 80v2q-1 19 -11.5 32t-32.5 13q-10 0 -14 -1q-23 -5 -51.5 -15.5t-55.5 -21.5h1q-8 -2 -15.5 -5.5t-15.5 -6.5q-14 -6 -29 -6q-25 0 -33 20q-8 18 -14 45.5t-11 63.5q-6 37 -27.5 55t-52.5 18h-6q-24 0 -52 -9.5t-49 -26.5q-20 -14 -42 -32.5t-42 -37.5
q-3 -2 -6 -4.5t-6 -4.5q-10 -9 -20.5 -18t-20.5 -19v47q0 17 -0.5 33t-1.5 28q0 3 -0.5 6.5t-0.5 6.5q-2 16 -15 24t-27 9h-5q-25 0 -36 -15q-8 -8 -14 -21.5t-8 -23.5q0 -18 15 -25v-25q0 -11 0.5 -24t0.5 -27v-104q0 -14 5.5 -25t22.5 -19q5 -3 11.5 -4t11.5 -1q12 0 24 6
t20 22q5 9 15 22.5t22.5 27t26 26t25.5 21.5q14 9 28 21.5t28 24.5v-1q14 11 28 22.5t12 11.5h-1q9 5 16.5 8.5t15.5 3.5q3 0 5 -1q8 -2 9 -8q1 -2 1 -5t1 -7v1q3 -20 8.5 -49t19.5 -58q17 -36 46 -53.5t65 -17.5q33 0 73 16q20 10 39 17t36 13h-1q15 4 27 9h8q6 0 11.5 1.5
t12.5 3.5q14 6 20 17.5t6 23.5z" />
    <glyph glyph-name="o" unicode="o" horiz-adv-x="548" 
d="M542 213v2q0 17 -14 30.5t-34 13.5h-77q-13 10 -30.5 18.5t-34.5 10.5q-8 2 -17 2q-12 0 -21 -3q-24 18 -48 18t-45 -12h1q-49 -24 -85.5 -70t-49.5 -106q-6 -29 -6 -56q0 -44 17 -71q33 -58 123 -58h5q35 1 65 6t59 17q33 14 62.5 37.5t56.5 54.5q18 20 24.5 41t6.5 38
q0 26 -10 46q8 1 15 1.5t12 2.5q13 5 19 15.5t6 21.5zM397 103q-17 -22 -39 -40t-46 -28q-16 -6 -35 -10t-44 -4h-8q-29 0 -43 19q-7 10 -7 30q0 11 3 29q6 34 26.5 61.5t38.5 40.5l2 1q1 0 3 1q2 0 3 1q2 -15 20 -23.5t44 -8.5h69q23 -17 23 -42q0 -16 -10 -27z" />
    <glyph glyph-name="p" unicode="p" horiz-adv-x="498" 
d="M505 177v2q0 32 -20.5 62.5t-66.5 51.5q-61 30 -142.5 52.5t-184.5 27.5h-2q-26 0 -38.5 -15.5t-12.5 -34.5q0 -12 9 -23.5t29 -19.5q2 -1 10 -1q6 0 11 -1h17q-1 -5 -1 -9v-9q-8 -103 -17 -228.5t-9 -255.5v-44q0 -11 0.5 -23t2.5 -20v2q3 -23 16 -33.5t29 -10.5
q23 0 41 19q11 10 15.5 24.5t4.5 25.5v4q-2 11 -6 19.5t-12 14.5v36q0 52 2 110t6 118q5 -13 18 -21.5t33 -9.5q13 0 29.5 4.5t32.5 11.5t30 14.5t23 12.5q14 9 23 13.5l15 7.5t11.5 4.5t11.5 4.5l9 4.5l7 3.5q38 20 57 48.5t19 60.5zM205 269q23 -4 47.5 -11t47 -15
t41 -15.5t29.5 -13.5q36 -16 36 -36q0 -16 -27 -32q-13 -7 -27 -13q-11 -4 -21 -8t-15 -8q-15 -9 -32 -17.5t-25 -10.5q-5 2 -10 2h-8q-20 0 -36 -12q-13 -15 -17 -24q4 55 8 109t9 105z" />
    <glyph glyph-name="q" unicode="q" horiz-adv-x="525" 
d="M486 119q5 11 5 22q0 14 -6.5 24t-15.5 18q-18 13 -36 13q-3 0 -7.5 -1t-9.5 -2q-16 -5 -37 -16t-45 -25t-49 -30t-48 -31q-5 -4 -10.5 -7.5t-10.5 -6.5q-13 -10 -22 -10q-6 0 -9 3t-5.5 7.5t-2.5 11.5q0 5 1 8q2 28 10 50.5t24 48.5q9 16 23.5 32.5t31.5 32t35 28
t35 20.5q10 4 16.5 6t12.5 2q8 0 13 -5q16 -11 31 -11q13 0 29 11q6 6 11 15.5t5 20.5t-9 28q-24 39 -70 39q-43 0 -85 -25q-42 -21 -84 -58t-73 -88q-20 -32 -34 -74.5t-17 -88.5v-10q0 -55 29 -83q28 -23 61 -23q16 0 34.5 5.5t38.5 16.5q15 9 30.5 19t30.5 19
q22 14 39 24.5t25 14.5l0.5 0.5t1.5 0.5q-1 -1 -1 -2t-1 -2q-8 -23 -16 -57t-14.5 -71t-11 -74t-4.5 -67v-15q0 -8 1 -14q3 -30 17.5 -55.5t49.5 -27.5h3q22 0 35 16.5t13 36.5v2q0 14 -8 24.5t-17 16.5q-2 5 -2 11v10q0 27 5.5 67.5t15.5 85.5t22 89.5t26 79.5z" />
    <glyph glyph-name="r" unicode="r" horiz-adv-x="454" 
d="M490 197h-1q9 13 9 30q0 20 -17 33q-8 6 -24 12t-36 6h-4q-23 -1 -51.5 -9t-58 -19.5t-57.5 -26t-49 -29.5q-3 -1 -5 -3t-3 -2.5l-3 -1.5q1 15 3 33t5 29q0 2 0.5 4t0.5 4q0 14 -9 23.5t-20 13.5q-6 0 -11 1t-7 1q-12 0 -22.5 -5.5t-15.5 -19.5v1q-7 -18 -16 -33
q-5 -7 -5 -14q0 -11 8 -16q-2 -16 -3 -36.5t-1 -43.5v-46v-23q0 -10 1 -20q1 -23 14.5 -34.5t30.5 -11.5t30 10.5t15 32.5v-1q2 13 4 23.5t10 23.5q11 18 40 36q19 12 41.5 24t44 21.5t41.5 15.5t34 8q2 1 5 1h6q7 0 21 -6h-1q5 -4 11 -5t11 -1q21 0 34 20z" />
    <glyph glyph-name="s" unicode="s" horiz-adv-x="381" 
d="M427 340q10 15 10 30q0 17 -13 32v-1q-9 12 -25.5 19t-36.5 7h-3q-29 -1 -60 -9t-59.5 -19t-54 -25t-43.5 -27h1q-37 -24 -55.5 -50t-18.5 -51q0 -26 18 -49t53 -37q4 -2 6.5 -3t6.5 -3q32 -14 57.5 -27.5t41.5 -27.5q13 -13 13 -31v-4q0 -14 -3.5 -27.5t-14.5 -28.5
q-16 -26 -44.5 -53.5t-60.5 -47.5q-5 -4 -13 -4q-6 0 -10 4q-8 6 -15 8t-15 2q-14 0 -23.5 -7t-14.5 -18q-2 -6 -3.5 -12.5t-1.5 -11.5q0 -13 7 -26t24 -22q22 -12 50 -12q29 0 50 14q50 28 85 62.5t61 73.5q14 23 23.5 51t9.5 57q0 28 -10.5 56t-34.5 48q-23 18 -44.5 29
t-41.5 22q-8 4 -15.5 7.5t-15.5 7.5q-16 9 -18 16q1 10 21 24q15 11 36 21.5t43 19t42.5 14t33.5 5.5q21 -14 41 -14q22 0 34 18z" />
    <glyph glyph-name="t" unicode="t" horiz-adv-x="359" 
d="M402 266q0 29 -18.5 37.5t-53.5 10.5q-26 2 -54 3.5t-46 1.5q0 34 4 76t10 84.5t13.5 82.5t15.5 71l1 1q5 8 8 15.5t3 19.5v3q0 17 -7.5 28.5t-19.5 19.5l1 -1q-13 8 -24 8q-26 0 -38 -27l1 2q2 2 -0.5 -2.5t-4.5 -7.5l-2 -9q0 2 -2 -2.5t-4 -6.5q-12 -18 -14 -28l1 1
q-2 -4 -2 -11q0 -10 5 -15q-8 -36 -14 -76.5t-11 -80.5t-8 -77.5t-3 -67.5q-9 -1 -18 -1h-16h-26q-23 -3 -33.5 -17t-10.5 -31t10.5 -30.5t32.5 -13.5h61q0 -62 6 -118t17 -97q5 -21 18.5 -30t28.5 -9h4q3 0 8 2l-1 -1q14 3 23.5 14.5t9.5 28.5v4t-2 7l1 -1q-5 18 -9 41.5
t-7 50t-5 54.5t-2 54q20 0 40.5 -0.5t38.5 -1.5q15 -1 28 -1.5t22 -0.5q23 1 33.5 14.5t10.5 29.5z" />
    <glyph glyph-name="u" unicode="u" horiz-adv-x="659" 
d="M726 86q-9 25 -36 25q-12 0 -25 -7q-19 -11 -44.5 -20t-52.5 -12q-3 0 -5 -0.5t-4 -0.5q-12 0 -21.5 5t-14.5 19v-1q-3 9 -5 21t-2 27q0 33 11 80v-1q1 5 1 7v4q0 15 -10.5 25.5t-24.5 13.5l1 -1q-5 2 -8 2h-5q-14 0 -25.5 -6t-18.5 -21q-16 -45 -51.5 -92.5t-92.5 -86.5
q-16 -11 -31.5 -16.5t-28.5 -5.5q-9 0 -17 2q-18 6 -24 26q-6 18 -6 46q0 31 6 66.5t16 64.5l-1 -1q2 5 2 8v8q0 17 -12.5 27.5t-28.5 10.5q-15 0 -29 -8.5t-22 -26.5q-8 -23 -16 -65.5t-8 -86.5q0 -21 2.5 -42t9.5 -38q23 -62 85 -77h-1q16 -3 37 -3q57 0 119 39
q22 14 45.5 35t42.5 44q2 -14 6.5 -24.5t11.5 -21.5q16 -24 44.5 -35.5t59.5 -11.5q6 0 12 0.5t12 1.5q38 7 72 18.5t57 25.5q13 8 18 18t5 21t-5 21z" />
    <glyph glyph-name="v" unicode="v" horiz-adv-x="447" 
d="M470 225q0 16 -9 28.5t-29 12.5q-2 0 -3.5 -0.5t-3.5 -0.5h-21q-9 0 -13 1q-6 11 -17 19t-26 8q-12 0 -21 -5q-36 -14 -36 -48q0 -18 9 -30q-14 -38 -31 -76t-36 -70q-5 -9 -8.5 -11.5t-6.5 -3.5q-2 0 -12 16v-1q-5 7 -9.5 18.5t-7.5 22.5h1q-8 24 -13 50t-9 50.5t-6 46
t-3 36.5q-3 25 -15 35t-27 11h-2q-17 0 -30.5 -11t-17.5 -34v-4q0 -1 -2 -6q0 -2 -0.5 -1.5t-1 0t-0.5 -3.5v-12q0 -8 1.5 -16t6.5 -13q5 -40 11.5 -80.5t18.5 -76.5q7 -20 16 -40t17 -35q39 -63 85 -63q47 0 86 69q20 35 40.5 82t35.5 85q5 -1 10 -1h10h13q7 0 12 1
q23 3 33.5 18.5t10.5 32.5z" />
    <glyph glyph-name="w" unicode="w" horiz-adv-x="829" 
d="M798 79q8 15 11.5 30.5t3.5 29.5q0 19 -5.5 38.5t-16.5 37.5q-8 16 -20 33.5t-26 32.5q-1 15 -8 24t-18 15q-16 13 -37 13t-37 -16q-13 -13 -13 -30q0 -20 15 -35q1 -2 2 -2.5t2 -1.5q16 -18 32.5 -37.5t27.5 -39.5v1q3 -8 5 -15.5t2 -15.5q0 -11 -5 -24q-10 -22 -59 -47
h1q-29 -13 -57 -21t-54 -8q-18 1 -32.5 6t-26.5 18t-22 40.5t-16 46.5q-5 12 -16 19.5t-25 7.5q-25 0 -45 -19q-11 -10 -25.5 -22.5t-30 -25t-30.5 -24t-28 -18.5q-11 -8 -23 -11t-22 -3q-8 0 -14 2h1q-15 9 -15 25q1 21 6.5 40.5t13.5 35.5t17.5 26.5t19.5 14.5q1 0 3 0.5
t4 0.5h12q19 0 27.5 11t9.5 26v2q0 17 -10.5 29t-31.5 15l1 -1q-5 2 -8 2h-7h-9t-7 -1q-28 -5 -52.5 -25t-42.5 -48.5t-28.5 -64t-10.5 -71.5q0 -30 12.5 -52.5t34.5 -37.5q30 -21 73 -21q50 0 97 33q26 17 43.5 31t32.5 27q5 5 9 5h1q5 -14 15 -31t22 -29q25 -27 56 -38
t66 -11q43 0 82 11.5t71 27.5q77 38 102 89z" />
    <glyph glyph-name="x" unicode="x" horiz-adv-x="511" 
d="M494 60q-11 0 -26 -7q-5 -3 -11 -4t-12 -1q-24 0 -49 20q-17 13 -35 33t-37 46q29 23 58.5 45t58.5 42q20 14 37.5 27.5t33.5 25.5q11 9 15 18.5t4 18.5q0 18 -11 29v-1q-7 8 -15.5 14t-19.5 6q-6 0 -13 -2t-14 -8h1q-27 -21 -61 -46.5t-69 -51.5q-15 -11 -28.5 -21
t-26.5 -20q-5 7 -11 17t-12 21q-9 15 -18.5 29.5t-17.5 25.5q-17 17 -36 17q-20 0 -35 -14.5t-17 -34.5v-5q0 -9 0.5 -19t5.5 -18q10 -15 32 -17q5 -7 11.5 -18.5t14.5 -25.5q2 -3 4.5 -6.5t5.5 -7.5q-41 -32 -73.5 -57t-59.5 -46t-49 -40t-42 -37q-20 -20 -20 -44
q0 -20 13.5 -35t36.5 -15q9 0 13 1q17 5 28.5 18.5t13.5 27.5q47 40 96.5 80t92.5 71q22 -27 44 -50.5t45 -43.5q26 -21 53 -30.5t53 -9.5q19 0 36 4.5t31 12.5t19 18t5 21q0 16 -9 28q-11 19 -34 19z" />
    <glyph glyph-name="y" unicode="y" horiz-adv-x="622" 
d="M568 254q-3 23 -14 36t-25 19q-11 4 -22 4q-28 0 -46 -19q-26 -25 -56.5 -53.5t-62 -56t-62.5 -52t-59 -42.5q-20 -14 -35 -14q-2 0 -4.5 1t-4.5 2q-3 3 -6 8t-3 13q0 13 5.5 29.5t13.5 33.5t17.5 32t17.5 26q14 19 14 33q0 12 -7 21.5t-18 16.5q-8 5 -23 5
q-23 0 -40 -21v1q-11 -13 -24.5 -35t-25 -48t-19 -54t-7.5 -52q1 -34 13 -54.5t26 -31.5q15 -12 30 -17t32 -5q45 0 95 33q22 14 48.5 34.5t52.5 42.5t50 43t40 36q2 3 6 4.5t7 1.5q2 0 2 -3v-4q-1 -45 -4.5 -100.5t-9 -113.5t-14 -114t-20.5 -101q-1 -4 -1.5 -6.5
t-0.5 -7.5q0 -19 11 -30t26 -14v1q5 -2 10 -2q16 0 29 10.5t17 30.5q12 55 22 119.5t16.5 128.5t10.5 123t4 103q0 18 -0.5 33t-1.5 26z" />
    <glyph glyph-name="z" unicode="z" horiz-adv-x="430" 
d="M486 40l1 -1q-3 13 -13.5 22.5t-26.5 9.5q-5 0 -8.5 -0.5t-6.5 -1.5q-21 -6 -47.5 -11t-54.5 -8.5t-55 -5.5t-48 -2h-14t-13 1q-2 1 -4 1h-1q0 2 3 4q20 26 45 50t48 44q8 6 14 11l12 10q45 45 45 83q0 13 -6 25q-20 47 -92 47h-24t-29.5 0.5t-30 1t-26.5 1.5
q-14 9 -28 9q-13 0 -30 -10v1q-22 -13 -22 -37q0 -17 12.5 -30.5t34.5 -16.5q9 -1 22 -1.5t28.5 -1t32 -1t31.5 -0.5q14 0 14 -2q1 -2 1 -3q0 -7 -12 -17v1q-6 -5 -12.5 -11.5l-13.5 -13.5q-26 -23 -58.5 -53.5t-59.5 -65.5q-12 -14 -16.5 -27t-4.5 -25q0 -5 0.5 -9.5
t2.5 -9.5v1q11 -34 53 -42q14 -2 32.5 -3t38.5 -1q33 0 70 3t72 8t65 11t49 13v-1q17 5 24.5 17.5t7.5 25.5v4t-2 7z" />
    <glyph glyph-name="braceleft" unicode="{" horiz-adv-x="253" 
d="M217 800v1q-27 -8 -49 -24.5t-38.5 -39.5t-25.5 -50t-9 -56q0 -13 2 -25t5 -24q0 -16 2.5 -32.5t6.5 -32.5q3 -18 5.5 -36t2.5 -32q0 -15 -3.5 -27.5t-11.5 -23.5q-3 -3 -6 -6.5t-7 -6.5q-8 -8 -15.5 -13.5t-17.5 -6.5q-20 -3 -29.5 -16.5t-9.5 -30.5q0 -9 3 -18t10 -17
q8 -11 16 -15.5t17 -9.5l6 -3q3 -8 5.5 -16t5.5 -16h-1q11 -34 19 -68t8 -66q0 -9 -1 -19.5t-4 -23.5q5 -14 6.5 -27.5t1.5 -27.5q0 -23 1 -47t6 -45.5t15.5 -40t30.5 -30.5q15 -5 27 -7t24 -2q19 0 37 3t35 7q21 5 30 18.5t9 29.5q0 18 -12.5 33.5t-33.5 15.5q-7 0 -12 -1
q-2 -1 -5 -1t-5 -1l1 1q-11 -2 -21.5 -4t-20.5 -2h-5q-5 32 -6.5 64t-2.5 64q-2 57 -7 111.5t-30 108.5v-1q-3 11 -5.5 22.5t-9.5 22.5l1 1q1 0 2 1q8 8 16.5 14t15.5 11q16 26 21.5 51t5.5 50q0 23 -3 45.5t-6 44.5q-4 23 -7.5 45.5t-3.5 42.5q0 17 3 33t11 32q11 11 21 18
t21 11q17 6 24.5 18t7.5 26q0 18 -13 34t-33 16q-9 0 -18 -4z" />
    <glyph glyph-name="bar" unicode="|" horiz-adv-x="259" 
d="M135 714q-10 -19 -15.5 -62t-8 -101t-3 -127.5t-0.5 -140.5v-176q0 -44 -0.5 -83.5t-1.5 -71t-3.5 -54.5t-6.5 -33q-5 -17 -5 -22q0 -11 5.5 -17t15.5 -12q7 -3 14 -3q18 0 29 21q16 25 20.5 95t4.5 165q0 36 -0.5 75t-1.5 79q0 42 -0.5 82t-0.5 81q0 66 1.5 126t6.5 108
q8 15 14.5 28.5t7.5 25.5q0 3 0.5 6.5t0.5 6.5q0 17 -5.5 25t-14.5 15q-10 4 -12 4q-11 0 -21 -11t-20 -29z" />
    <glyph glyph-name="braceright" unicode="}" horiz-adv-x="280" 
d="M78 801v-1q-11 4 -18 4q-20 0 -33 -16t-13 -34q0 -14 7.5 -26t24.5 -18q11 -4 20.5 -11t20.5 -18q8 -15 10.5 -31t2.5 -33q0 -20 -3 -42.5t-7 -45.5t-7 -45.5t-3 -45.5q0 -26 5.5 -51t22.5 -49q7 -5 15.5 -11.5t17.5 -14.5l2 -2q-7 -11 -10 -22.5t-5 -23.5
q-24 -54 -29 -108t-7 -110q-1 -32 -3 -64t-7 -64h-4q-10 0 -20.5 2t-21.5 4l1 -1q-2 1 -6 1q-3 0 -5 1q-5 1 -7 1h-4q-22 0 -34.5 -15.5t-12.5 -33.5q0 -16 10 -29.5t30 -18.5q17 -4 34.5 -7t37.5 -3q12 0 24 2t27 7q19 12 30 30.5t16 40t6 45.5t1 47q0 14 1.5 27.5
t6.5 27.5q-3 13 -4 23.5t-1 19.5q0 32 8 66t19 68h-1q2 8 5 16t5 16q1 1 7 3q8 5 16.5 9.5t16.5 15.5q13 16 13 35q0 17 -9.5 30.5t-29.5 16.5q-11 1 -18.5 6.5t-15.5 13.5q-4 3 -7 6.5t-6 6.5q-9 11 -12 23.5t-3 28.5q0 15 2.5 32.5t6.5 35.5q4 16 6 32.5t3 31.5q6 24 6 49
q0 28 -9 55.5t-24.5 50t-38 39.5t-49.5 25z" />
    <glyph glyph-name="asciitilde" unicode="~" horiz-adv-x="351" 
d="M362 377h-1q1 5 1 9q0 22 -23 29q-10 2 -12 2q-10 0 -19.5 -5t-14.5 -17q-3 -11 -7 -11q-7 0 -32 16q-35 23 -69 23q-23 0 -47.5 -14t-40.5 -44l1 2q-7 -7 -7 -18q0 -9 6 -16t13 -9h-1q10 -5 20 -5q19 0 30 17q16 22 29 22q11 0 25 -11q40 -29 77 -29h2q23 0 41.5 13.5
t28.5 45.5z" />
    <glyph glyph-name="quotesinglbase" unicode="&#x201a;" horiz-adv-x="117" 
d="M97 24v60q-1 18 -9 25.5t-17 9.5q-23 0 -33 -26q-7 -16 -7 -30q0 -11 5 -18v-31q0 -14 -0.5 -28t-0.5 -27q0 -18 9.5 -26.5t20.5 -8.5q13 0 22 9t9 26v26q0 9 0.5 19t0.5 20z" />
    <glyph glyph-name="florin" unicode="&#x192;" horiz-adv-x="431" 
d="M91 333h-1q18 6 36 11t38 7q-15 -53 -31.5 -106.5t-35.5 -105t-42.5 -100.5t-53.5 -94q-7 -2 -6.5 -2.5t-1.5 -2.5q-5 -3 -8.5 -5.5t-5.5 -2.5q-3 0 -5 2q-26 20 -31.5 25t-6.5 8q-8 19 -20 27.5t-26 8.5q-19 0 -34.5 -13t-15.5 -35q0 -4 1 -9t3 -13q37 -51 70 -73
t63 -22q42 0 76.5 36t64 92t54.5 125t48 134q12 36 23.5 68t22.5 60q41 -4 79 -18h-1q5 -2 9.5 -2.5t8.5 -0.5q22 0 35 16t13 34q0 16 -8 28t-28 18v-1q-41 14 -76 20q26 69 63 132t96 114l-3 -1q6 3 13 4t15 1q4 1 7 1t7 1q22 4 33 18.5t11 31.5q0 19 -12.5 34t-35.5 15
q-2 0 -4.5 -0.5t-4.5 -0.5q-55 -5 -94.5 -30.5t-68.5 -64t-50 -84.5t-40 -92q-8 -19 -15.5 -37.5t-15.5 -35.5q-72 -5 -138 -28v1q-36 -12 -36 -46q0 -18 13.5 -34t35.5 -16q3 0 7.5 0.5t9.5 2.5z" />
    <glyph glyph-name="quotedblbase" unicode="&#x201e;" horiz-adv-x="242" 
d="M237 -73v1q5 14 8.5 31t3.5 36q0 22 -5.5 43.5t-17.5 37.5q-11 15 -30 15q-7 0 -12.5 -1t-10.5 -6q-8 -5 -14 -14t-6 -19q0 -2 0.5 -4t0.5 -4q4 -17 19 -29q2 -8 2 -19q0 -25 -7 -42q-4 -7 -4 -15q0 -15 12 -24.5t26 -9.5q10 0 20 5.5t15 17.5zM92 -72v1q5 14 8.5 31
t3.5 35q0 23 -5.5 44.5t-17.5 37.5q-11 15 -30 15q-15 0 -23 -7q-8 -5 -14 -14t-6 -19q0 -2 0.5 -4t0.5 -4q4 -17 19 -29q2 -8 2 -19q0 -25 -7 -42q-4 -8 -4 -15q0 -15 12 -24.5t26 -9.5q10 0 20 5.5t15 17.5z" />
    <glyph glyph-name="ellipsis" unicode="&#x2026;" horiz-adv-x="575" 
d="M351 -18q12 8 17.5 19t5.5 23q0 11 -5.5 22.5t-17.5 19.5q-7 4 -16.5 7t-19.5 3q-20 0 -37 -10q-23 -17 -23 -40q0 -26 18.5 -40t41.5 -14q20 0 36 10zM164 -18q12 8 17 19t5 23q0 11 -5 22.5t-17 19.5q-7 4 -16.5 7t-19.5 3q-20 0 -37 -10q-23 -17 -23 -40
q0 -26 18.5 -40t41.5 -14q20 0 36 10zM529 -18q11 7 16.5 18t5.5 23t-5.5 23t-16.5 19q-17 10 -36 10q-20 0 -37 -10q-23 -17 -23 -40q0 -26 18.5 -40t41.5 -14q9 0 18.5 2.5t17.5 8.5z" />
    <glyph glyph-name="dagger" unicode="&#x2020;" horiz-adv-x="339" 
d="M193 -5v2h-1q1 2 2 4.5t3 4.5l3 10q1 1 2 2.5t3 3.5q5 9 9 17t6 13l-1 -1q2 4 2 10q0 9 -7 16q8 36 15 76.5t11.5 80.5t7.5 77.5t3 67.5h15q8 0 14.5 0.5t14.5 0.5h43q22 3 32.5 17t10.5 31t-10.5 30.5t-31.5 13.5h-88q-1 60 -6.5 116t-15.5 98q-6 20 -19.5 30t-27.5 10
q-7 0 -12 -2l1 1q-14 -3 -23.5 -14.5t-9.5 -28.5v-5q0 -2 1 -7l-1 1q4 -18 8 -41.5t7 -50t5.5 -54t2.5 -53.5h-34q-15 0 -28 1q-12 1 -22 1.5t-18 0.5q-23 -1 -34 -14.5t-11 -28.5q0 -16 9.5 -29t27.5 -16h-1q26 -5 56.5 -6.5t53.5 -1.5q-1 -35 -4.5 -77t-9.5 -85t-13 -82.5
t-15 -70.5v1q0 -1 -0.5 -1.5l-0.5 -0.5q-5 -8 -8.5 -15t-3.5 -20v-3q0 -17 8 -28.5t20 -18.5l-1 1q11 -8 24 -8q25 0 36 25q0 -2 1 -1z" />
    <glyph glyph-name="daggerdbl" unicode="&#x2021;" horiz-adv-x="340" 
d="M194 -3h-1v-1q0 1 1.5 4.5t3.5 5.5l3 10q1 1 2 2.5t3 3.5q5 9 9 17t6 13l-1 -1q2 4 2 10q0 9 -7 16q8 28 12.5 58.5t9.5 62.5h27q12 0 16.5 0.5t6.5 2.5h2q23 3 33.5 16.5t10.5 30.5t-10.5 30.5t-32.5 13.5h-42q2 23 2.5 45t1.5 42h14q8 0 15 0.5t15 0.5h43q22 3 32.5 17
t10.5 31t-10.5 30.5t-32.5 13.5h-87q-1 60 -6.5 116t-16.5 98q-5 20 -18.5 30t-27.5 10q-7 0 -12 -2l1 1q-14 -3 -24 -14.5t-10 -28.5v-5q0 -2 2 -7l-1 1q4 -18 8 -41.5t7 -50t5.5 -54t2.5 -53.5h-34q-15 0 -28 1q-12 1 -22 1.5t-18 0.5q-23 -1 -34 -14.5t-11 -28.5
q0 -16 9.5 -29t27.5 -16h-1q26 -5 56.5 -6.5t53.5 -1.5q-1 -20 -2 -42t-3 -45q-20 0 -29 -0.5t-11 -1.5h-12q-23 -1 -33.5 -14.5t-10.5 -29.5q0 -15 9 -28t28 -16q2 0 5 -0.5t6 -0.5q10 -1 19 -1h18q-5 -38 -12 -73t-14 -63v1q0 -1 -0.5 -1.5l-0.5 -0.5q-5 -8 -8.5 -15
t-3.5 -20v-3q0 -17 8 -28.5t20 -18.5l-1 1q11 -8 23 -8q25 0 37 24z" />
    <glyph glyph-name="circumflex" unicode="&#x2c6;" horiz-adv-x="319" 
d="M265 612h-1q-11 13 -28 29t-31 28q-13 11 -26 11q-7 0 -12.5 -2.5t-12.5 -6.5v1q-10 -5 -21 -12t-23 -14q-13 -7 -26 -14.5t-26 -14.5q-16 -10 -16 -26q0 -10 6 -17q9 -17 30 -17q11 0 19 5q6 4 13 7.5t13 7.5q12 8 25 15t23 14q5 -5 10.5 -9.5t11.5 -9.5t12 -11l11 -11
q6 -5 12 -6t12 -1q14 0 24.5 8.5t10.5 22.5q0 5 -2 11.5t-8 11.5z" />
    <glyph glyph-name="perthousand" unicode="&#x2030;" horiz-adv-x="988" 
d="M971 55q-4 38 -19.5 74t-53.5 62q1 1 1.5 2t1.5 2q6 7 6 18q0 12 -13 23q-10 8 -26 8q-6 0 -13 -2t-15 -7q-21 -14 -44.5 -35t-44.5 -47.5t-37 -58.5t-21 -67q-1 -6 -1.5 -11t-0.5 -11q0 -46 27 -68t73 -22h10t10 1q2 0 3 0.5t2 0.5q20 2 44 5.5t41 8.5q32 11 51.5 34
t19.5 67v11t-1 12zM322 294q-4 38 -19.5 73.5t-53.5 62.5q1 1 1.5 2t1.5 2q5 7 5 17q0 14 -12 23q-10 8 -26 8q-15 0 -28 -8q-21 -14 -44.5 -35t-44.5 -48t-37 -58.5t-21 -66.5q-1 -6 -1.5 -11.5t-0.5 -10.5q0 -46 27 -68t73 -22h10t10 1q1 0 2 0.5t3 0.5q20 2 44 5.5
t41 8.5q32 11 51.5 34t19.5 67v11t-1 12zM665 56q-4 38 -20 74t-54 62q1 1 1.5 2t1.5 2q6 7 6 18q0 12 -13 23q-7 7 -25 7q-7 0 -14 -1.5t-14 -6.5q-21 -14 -45 -35t-45 -47.5t-36.5 -58.5t-20.5 -67q-1 -6 -1.5 -11t-0.5 -11q0 -46 27 -68t73 -22h9t10 1q2 0 3 0.5t3 0.5
q20 2 43.5 5.5t40.5 8.5q32 11 52 34t20 67v11t-1 12zM547 415l-1 -1q2 6 2.5 9.5t0.5 7.5q0 14 -7 23.5t-17 14.5q-5 2 -7 2h-4q-23 0 -39 -22q-8 -11 -12.5 -23.5t-4.5 -29.5q-18 -32 -45 -73t-57 -87q-29 -44 -58 -88.5t-52 -83.5t-37 -69t-14 -45v-3q1 -15 9.5 -24.5
t20.5 -12.5q2 0 4.5 -0.5t4.5 -0.5q13 0 22.5 7.5t12.5 24.5q1 9 12 29.5t28 48.5t39 62t45 70q26 40 52 81t47.5 76.5t36.5 63.5t18 43zM247 278v-1q1 -4 1 -9q0 -12 -6 -18.5t-17 -9.5q-9 -3 -22.5 -5t-27.5 -4q-5 -1 -10 -1t-9 -1h-7q-30 0 -30 22v5q3 22 10.5 41
t18 34.5t22 27t21.5 19.5q17 -8 27 -20t16 -25.5t8.5 -28t4.5 -26.5zM896 40v-1q1 -4 1 -10q0 -20 -23 -28q-9 -3 -22.5 -5t-27.5 -4q-5 -1 -10 -1t-9 -1h-7q-30 0 -30 23v4q3 22 11 41t18.5 34.5t22 27t20.5 19.5q17 -8 27 -20t16 -25.5t8.5 -27.5t4.5 -26zM589 41v-1
q1 -4 1 -10q0 -12 -5.5 -18t-16.5 -10q-9 -3 -23 -5t-27 -4q-5 -1 -11 -1q-5 0 -9 -1h-7q-29 0 -29 23v4q3 22 10.5 41t18 34.5t22 27t21.5 19.5q17 -8 27 -20t15.5 -25.5t8 -27.5t4.5 -26z" />
    <glyph glyph-name="Scaron" unicode="&#x160;" 
d="M482 752v-1q-15 15 -37 15q-11 0 -20 -4q-33 -12 -41 -49q-12 -11 -28 -24.5t-35 -30.5q-41 -35 -88.5 -77.5t-88.5 -87.5q-66 -72 -66 -133v-3q0 -65 66 -126q10 -8 23.5 -20.5t28.5 -26.5q25 -22 50.5 -44.5t41.5 -39.5q20 -20 29 -38t10 -34q0 -12 -4 -24t-15 -25
q-23 -31 -58.5 -54t-61.5 -38q-14 -8 -19.5 -18.5t-5.5 -21.5q0 -10 7 -24q6 -12 17 -18.5t23 -6.5q7 0 12.5 1t12.5 5q29 15 70.5 45t77.5 75q17 23 27 47.5t10 52.5v3q0 69 -66 138q-11 11 -28.5 26.5t-36.5 32.5q-23 20 -45 40.5t-36 34.5q-33 34 -33 61q0 33 37 73
q32 37 75.5 75.5t85.5 75.5q36 31 65 56.5t43 43.5q8 10 11 19t3 18q0 19 -13 31zM139 752h1q14 -16 32 -35t29 -30q12 -11 28 -11q7 0 12.5 2.5t13.5 7.5v-1q10 5 21 13t25 16q24 16 52 32q17 11 17 31q0 9 -5 19q-11 19 -32 19q-10 0 -20 -6q-7 -5 -13.5 -8.5t-13.5 -8.5
h1q-14 -8 -27 -16.5t-24 -16.5v2q-5 5 -10.5 9.5t-11.5 11.5l-12.5 12.5t-12.5 11.5t-11.5 6.5t-11.5 1.5q-14 0 -25 -10t-11 -25q0 -6 2 -13t7 -14z" />
    <glyph glyph-name="guilsinglleft" unicode="&#x2039;" horiz-adv-x="235" 
d="M209 36l-1 1q-8 12 -16.5 24t-16.5 23q-11 15 -21 28t-20 33q-1 1 -1 2v2q24 39 74 98h-1q9 10 9 22q0 15 -12 24q-8 8 -20 8t-22 -12t-21.5 -27t-23.5 -30.5t-22.5 -31t-17.5 -27.5q-5 -7 -7 -14t-2 -13q0 -14 10 -28v1q9 -14 19.5 -31t22 -33.5t22 -31.5t18.5 -25
q10 -12 24 -12q10 0 18 6q13 8 13 26q0 8 -5 18z" />
    <glyph glyph-name="OE" unicode="&#x152;" horiz-adv-x="1067" 
d="M1087 553v1q-1 17 -12 29t-34 13q-8 0 -16.5 0.5t-19.5 0.5q-38 0 -86.5 -2t-99 -5t-98.5 -8t-85 -11q-17 -3 -26 -14t-12 -26v-9q0 -17 9 -29.5t26 -12.5q2 0 3.5 0.5t3.5 0.5q-10 -4 -4 -2.5l14 3.5q-5 -23 -11 -49.5t-10 -54.5q-41 38 -93 64q-38 17 -63 23t-50 6
q-11 0 -22.5 -0.5t-23.5 -1.5q-7 18 -24 28q-10 5 -18 8t-14 3q-2 0 -5.5 -0.5t-5.5 -0.5q-14 -4 -22.5 -13t-12.5 -21q-41 -27 -76 -69t-61 -88.5t-41 -93.5t-15 -85q0 -47 12 -84t44 -65q29 -23 67 -34t85 -11q88 0 189 36q32 13 66 33.5t63 45.5q0 -14 1.5 -29t4.5 -26
q12 -46 38.5 -61.5t72.5 -15.5q21 0 48.5 2.5t56.5 7.5t58.5 12t54.5 16q19 7 38.5 15.5t35.5 18t28 20t17 21.5q7 15 7 30q0 21 -11 32q-20 14 -34 14q-17 0 -35 -18q-15 -19 -35 -29.5t-43 -17.5q-30 -10 -55.5 -16.5t-47.5 -10t-42 -5t-40 -1.5q-19 0 -20 10
q-3 13 -4 34.5t-1 47.5q0 30 1 60.5t3 54.5q43 8 95.5 16t100.5 15q35 5 64 10t48 8q20 4 30.5 17.5t10.5 29.5v5t-2 8h1q-4 14 -14 22.5t-28 8.5h-8q-20 -3 -41.5 -6t-44.5 -6h1q-51 -8 -104 -16.5t-100 -16.5q6 50 14 94t19 74q2 5 5 5.5t8 1.5q54 7 114 10t107 3h30
q14 0 25 -1h3q25 0 36.5 14.5t11.5 32.5zM614 233q0 -11 -6 -27t-18 -32q-25 -35 -64.5 -65t-79.5 -46q-37 -14 -78.5 -22.5t-78.5 -8.5q-29 0 -50.5 5.5t-33.5 16.5q-29 27 -29 83q0 22 10.5 55t28 68t41 68t50.5 56q20 -10 46 -10q9 0 13 1h-1q14 2 27 3.5t24 1.5
q19 0 37 -5t44 -17q23 -11 44 -25.5t37.5 -31t26.5 -34t10 -34.5z" />
    <glyph glyph-name="quoteleft" unicode="&#x2018;" horiz-adv-x="111" 
d="M137 467v-1q-6 11 -9.5 26.5t-3.5 29.5v5q5 6 8 12.5t3 19.5q0 14 -7 23t-16 14q-6 3 -14 3q-18 0 -31 -21q-5 -9 -7 -22.5t-2 -27.5q0 -27 7 -54.5t17 -43.5q11 -17 27 -17q5 0 9.5 2t9.5 4q6 5 10.5 12.5t4.5 16.5q0 12 -6 19z" />
    <glyph glyph-name="quoteright" unicode="&#x2019;" horiz-adv-x="111" 
d="M133 435v1q5 14 8 31t3 36q0 22 -5 43.5t-15 37.5q-11 15 -27 15q-13 0 -20 -7q-7 -5 -12 -14t-5 -19q0 -2 0.5 -4t0.5 -4q3 -16 16 -29q1 -3 1 -8v-11q0 -25 -5 -42q-4 -7 -4 -15q0 -15 10.5 -24.5t23.5 -9.5q8 0 16.5 5.5t13.5 17.5z" />
    <glyph glyph-name="quotedblleft" unicode="&#x201c;" horiz-adv-x="242" 
d="M282 466v-1q-7 11 -11.5 26.5t-4.5 29.5v5q7 6 10 12.5t3 19.5q0 14 -7.5 23t-18.5 14q-3 2 -7.5 2.5t-7.5 0.5q-21 0 -36 -20q-6 -10 -8.5 -23t-2.5 -27q0 -27 8.5 -54.5t19.5 -44.5q12 -17 31 -17q9 0 17 5q9 5 15 12.5t6 16.5q0 5 -0.5 10t-5.5 10zM136 467v-1
q-7 11 -11.5 26.5t-4.5 29.5v5q7 6 10 12.5t3 19.5q0 14 -7.5 23t-18.5 14q-3 2 -7.5 2.5t-7.5 0.5q-21 0 -36 -21q-6 -9 -8.5 -22t-2.5 -27q0 -27 8.5 -54.5t19.5 -44.5t31 -17q9 0 17 5q9 5 15 12.5t6 16.5q0 5 -1 10t-5 10z" />
    <glyph glyph-name="quotedblright" unicode="&#x201d;" horiz-adv-x="242" 
d="M276 434v1q5 14 8.5 31t3.5 36q0 23 -5.5 44t-17.5 37t-30 16q-15 0 -24 -8q-8 -5 -13.5 -13.5t-5.5 -19.5q0 -2 0.5 -3.5t0.5 -3.5q4 -18 18 -29q2 -10 2 -19q0 -12 -1.5 -23.5t-4.5 -19.5q-4 -7 -4 -15q0 -15 12 -24.5t26 -9.5q10 0 20 6t15 17zM131 435v1q5 14 8.5 31
t3.5 36q0 23 -5.5 44t-17.5 37t-30 16q-15 0 -24 -8q-8 -5 -13.5 -14t-5.5 -19q0 -2 0.5 -4t0.5 -3q4 -18 18 -29q2 -10 2 -19q0 -12 -1.5 -23.5t-4.5 -19.5q-4 -7 -4 -15q0 -15 12 -24.5t26 -9.5q10 0 20 6t15 17z" />
    <glyph glyph-name="bullet" unicode="&#x2022;" horiz-adv-x="326" 
d="M294 270q0 25 -9.5 47.5t-26 39.5t-39 26.5t-48.5 9.5t-48 -9.5t-39 -26.5t-26.5 -39.5t-9.5 -47.5q0 -26 9.5 -48t26.5 -39t39 -26.5t48 -9.5t48.5 9.5t39 26.5t26 39t9.5 48z" />
    <glyph glyph-name="endash" unicode="&#x2013;" horiz-adv-x="472" 
d="M440 158v2q0 11 -8.5 20t-24.5 9h-6q-5 -1 -13 -1h-16q-14 0 -31.5 0.5t-35.5 1.5q-23 1 -44.5 1.5t-40.5 0.5q-17 0 -29.5 -0.5t-20.5 -2.5h1q-35 -6 -43 -36q0 -1 -0.5 -3t-0.5 -3q0 -14 14 -26v1q11 -8 24 -8q11 0 18 4h-1q2 1 4.5 2t4.5 3q6 4 10 4q5 1 24 1h26
q15 0 32 -1t35 -1h35q16 0 30 0.5t24 1.5q17 2 25 11t8 19z" />
    <glyph glyph-name="emdash" unicode="&#x2014;" horiz-adv-x="715" 
d="M705 157q0 11 -9 21t-25 10h-5q-11 -1 -25 -1h-33h-83h-121q-61 0 -109 1q-24 0 -41 0.5t-28 0.5q-7 6 -23 6q-10 0 -22 -2.5t-23 -5.5q-28 -12 -28 -33q0 -11 10 -20t27 -11h9q6 0 12 0.5t13 2.5h56t72 -1q51 -1 106 -1h103h79q35 0 53 2q18 1 26.5 10.5t8.5 20.5z" />
    <glyph glyph-name="tilde" unicode="&#x2dc;" horiz-adv-x="351" 
d="M326 613h-1q2 5 2 10q0 9 -6 17t-17 11q-4 1 -7 2t-5 1q-10 0 -19.5 -5.5t-14.5 -17.5q-5 -11 -7 -11q-7 0 -32 16q-17 11 -34.5 17.5t-34.5 6.5q-24 0 -48 -14t-41 -44q-4 -5 -4.5 -9t-0.5 -7q0 -9 5.5 -16t13.5 -10h-1q8 -5 19 -5q19 0 31 17q15 23 29 23q9 0 25 -11
q37 -30 76 -30h2q23 0 42 13.5t28 45.5z" />
    <glyph glyph-name="trademark" unicode="&#x2122;" horiz-adv-x="761" 
d="M760 342q6 6 6 16q0 5 -2.5 10t-9.5 9v-1q-10 8 -28 8q-12 -2 -33.5 -7.5t-43.5 -12.5q-3 0 -7 -0.5t-9 -0.5t-9 3q-7 11 -13 27t-10 34q-11 44 -49 44q-31 0 -67 -30q-11 -8 -24.5 -19t-23.5 -20q-3 8 -6 16.5t-6 15.5q-8 17 -19 23t-23 6h-5q-2 0 -7 -1l1 1
q-15 -3 -31 -13.5t-25 -22.5l-11 -10q-5 -6 -11 -12l-11 -11l-1 -1v6q0 29 3 53v3q0 14 -9 20.5t-20 6.5q-9 0 -17 -4t-12 -15q-6 13 -21 14q-13 2 -31 3t-35 1h-7q0 16 2.5 36t6 40.5t7.5 39.5t9 33l-1 -1q0 1 2 3q3 4 5 7t2 11q0 19 -19 29q-8 4 -15 4q-8 0 -15 -4.5
t-11 -13.5q-2 -4 -2 -5q-2 -2 -4.5 -6t-0.5 -2q-4 -6 -7 -15v-3q0 -5 2 -9q-10 -35 -14.5 -74.5t-5.5 -69.5h-30q-17 -2 -22.5 -11t-5.5 -18q0 -10 7 -18.5t22 -8.5h29q0 -30 3.5 -57t9.5 -46v1q3 -13 11.5 -19t18.5 -6q6 0 10 2q8 3 14 9t6 16q0 2 -0.5 4t-0.5 4
q-5 17 -8.5 42t-4.5 50h20t19 -1h30q15 0 23 9v-8q-1 -13 -1 -29v-32v-22t1 -20q0 -11 7 -18.5t15 -11.5q3 -1 5.5 -1.5t6.5 -0.5q8 0 14.5 3t11.5 11q7 9 16.5 21.5t16.5 19.5q11 11 22 22.5t19 22.5q8 10 13 10h4q2 -7 4 -12t4 -9h-1q6 -20 16 -38q10 -16 30 -16
q15 1 24.5 9.5t17.5 19.5v-1q14 15 22 22q5 5 11.5 10.5t11.5 9.5q1 1 2 1.5t2 1.5l-1 -1q17 11 23 11l2 -4q5 -21 13.5 -40.5t22.5 -35.5q11 -11 24 -15.5t27 -4.5q20 0 38 7v-1q24 6 37 9q6 2 11 2.5t8 1.5l0.5 -0.5t1.5 -0.5t3.5 -0.5t3.5 -0.5q8 2 15 7t11 10z" />
    <glyph glyph-name="scaron" unicode="&#x161;" horiz-adv-x="381" 
d="M427 342q10 13 10 30t-13 32v-1q-9 11 -25.5 18.5t-36.5 7.5h-3q-29 -1 -60 -9t-59.5 -19.5t-54 -25.5t-43.5 -27h1q-37 -24 -55.5 -50t-18.5 -51q0 -26 18 -49t53 -37q4 -2 6.5 -3t6.5 -3q32 -15 57.5 -28t41.5 -28q13 -13 13 -31v-4q0 -13 -3.5 -27t-14.5 -29
q-16 -26 -44.5 -53.5t-60.5 -47.5q-5 -4 -13 -4q-6 0 -10 4q-8 5 -15 7t-15 2q-27 0 -38 -24q-2 -7 -3.5 -13t-1.5 -11q0 -14 7 -26.5t24 -22.5q22 -12 50 -12q29 0 50 14q50 28 85 63t61 74q14 23 23.5 51t9.5 57q0 28 -10.5 56t-34.5 48q-23 19 -44.5 30t-41.5 22
q-8 4 -15.5 7.5t-15.5 7.5q-18 9 -18 16q2 12 21 24q15 11 36 22t43 19.5t42.5 14t33.5 5.5q22 -15 41 -15q21 0 34 19zM91 468h1q14 -16 32 -35t29 -30q12 -11 28 -11q10 0 25 10v-1q11 6 22 13.5t24 15.5q24 16 52 32q18 12 18 30q0 11 -6 20q-11 18 -32 18q-8 0 -20 -5
q-6 -5 -13 -8.5t-13 -8.5h1q-14 -9 -27.5 -17t-24.5 -16v2q-5 5 -10 9.5t-11 10.5l-25 25q-6 5 -11.5 6t-11.5 1q-14 0 -25 -9.5t-11 -25.5q0 -5 2 -12t7 -14z" />
    <glyph glyph-name="guilsinglright" unicode="&#x203a;" horiz-adv-x="235" 
d="M218 115v-1q9 15 9 27q0 14 -8 27q-7 12 -17.5 28t-22 33t-23 32.5t-20.5 27.5q-12 12 -26 12q-12 0 -21 -8t-9 -22q0 -9 5 -17q7 -11 15 -22.5t15 -21.5q12 -18 23.5 -34t21.5 -32q0 -1 0.5 -1.5t0.5 -2.5t-1 -2q-12 -20 -31 -45t-42 -54q-5 -5 -6.5 -10.5t-1.5 -9.5
q0 -8 3.5 -13.5t8.5 -10.5q8 -7 19 -7q12 0 22 10q20 22 44.5 55t41.5 62z" />
    <glyph glyph-name="oe" unicode="&#x153;" horiz-adv-x="823" 
d="M872 93l1 -1q-13 21 -38 21h-5t-8 -2q-8 -3 -19 -6t-23 -8q-42 -16 -95 -32.5t-104 -16.5q-19 0 -36 4q-32 7 -34 36q35 5 70.5 19.5t67 36t55.5 48.5t37 58q7 16 10 32t3 30q0 26 -10 46t-32 30q-18 9 -45 9q-37 0 -80 -17q-38 -19 -57 -41h1q-12 -13 -32.5 -39
t-38.5 -60q-17 17 -38 29t-50 17q-12 2 -21.5 2.5t-21.5 0.5q-23 19 -53 19q-26 0 -48 -12q-21 -11 -42 -27.5t-40 -39t-33 -50.5t-21 -61q-8 -37 -8 -63q0 -68 37.5 -97t103.5 -29h9q35 1 63 7t62 20q26 11 45.5 24t36.5 30q14 -22 36.5 -33.5t49.5 -16.5q11 -2 24 -3
t26 -1q33 0 65 5.5t62 14t57 18.5t49 19q11 5 20.5 8.5t17.5 6.5q17 5 24.5 16t7.5 24q0 12 -8 25zM420 125l-1 -1q-2 -10 -14 -23.5t-27.5 -27t-31.5 -24.5t-26 -14q-36 -14 -87 -14q-29 4 -40.5 10t-11.5 26q0 15 3 44q5 34 27.5 63t43.5 43q6 -18 34 -28h-1q15 -6 38 -6
q15 0 30 2.5t25 8.5q15 -8 27 -24t12 -30v-5zM660 308l1 -1q2 -2 2 -7q0 -6 -3 -15t-6 -15q-14 -27 -46.5 -49.5t-70.5 -34.5q12 25 27.5 46t38.5 43l7 7q5 6 9.5 10t14.5 8q5 3 12 5.5t12 2.5h2z" />
    <glyph glyph-name="Ydieresis" unicode="&#x178;" horiz-adv-x="516" 
d="M644 552q8 9 10.5 16.5t2.5 15.5q0 17 -14.5 30.5t-33.5 13.5q-20 0 -37 -16q-23 -28 -46.5 -59t-46.5 -66q-45 -66 -84.5 -133t-69.5 -118q-8 -14 -14.5 -26t-13.5 -23q-23 42 -47 90.5t-45.5 95t-39 87.5t-27.5 68q-5 15 -15.5 22t-22.5 7q-18 0 -34 -12.5t-16 -29.5
q0 -7 3 -11h-1q6 -19 17 -48t26 -63.5t33.5 -73.5t37.5 -78.5t39 -77.5t39 -71q-23 -40 -47 -82t-47 -78v1q-10 -14 -10 -28q0 -11 6 -19t15 -15q5 -5 12 -7t15 -2t18 4t19 15q9 12 22 33.5t27 45.5t27 46t21 36q13 5 21.5 16t8.5 26q0 6 -1 11q24 43 47 83.5t47.5 81.5
t51.5 84.5t59 92.5q20 30 42.5 59.5t45.5 55.5zM461 680q0 25 -17 41.5t-39 16.5q-24 0 -39.5 -16.5t-15.5 -41.5q0 -24 16 -39.5t40 -15.5q23 1 38.5 16t16.5 39zM298 680q0 25 -16 41.5t-40 16.5t-38.5 -16.5t-15.5 -41.5q0 -24 15.5 -39.5t39.5 -15.5q22 0 38.5 16.5
t16.5 38.5z" />
    <glyph glyph-name="exclamdown" unicode="&#xa1;" horiz-adv-x="295" 
d="M225 80v5q0 20 -12.5 30t-27.5 10t-26.5 -9.5t-12.5 -29.5q-4 -41 -7.5 -87t-6.5 -91t-5 -87.5t-4 -75.5q-2 -5 -4 -11t-2 -17q0 -8 0.5 -19.5t2.5 -19.5v1q3 -19 14 -29t23 -10q16 0 28 11t14 33q2 26 5 67t5 90q3 58 7 121t9 118zM242 324q-16 19 -39 19q-18 0 -33 -12
q-10 -8 -15 -20.5t-5 -26.5t4.5 -26.5t15.5 -23.5q15 -12 32 -12q19 0 34 12q21 19 21 48q0 24 -15 42z" />
    <glyph glyph-name="cent" unicode="&#xa2;" horiz-adv-x="418" 
d="M430 210h1q-12 13 -32 13q-10 0 -22 -4q-5 -2 -13 -8.5t-16 -13.5q-8 -6 -15 -11t-9 -7v1q-8 -5 -20.5 -10t-25.5 -7v5q0 37 2.5 74.5t5.5 72.5v2h1q4 -2 8.5 -2.5t9.5 -0.5q8 0 16 1.5t14 4.5q13 6 21.5 18t8.5 26t-9 25.5t-30 14.5q-2 0 -5 0.5t-6 0.5q-5 0 -10 -0.5
t-10 -1.5l1 6q2 14 4 25t5 25q1 3 1.5 5t0.5 8q0 13 -9 20.5t-20 9.5q-2 0 -4.5 0.5t-4.5 0.5q-14 0 -25 -7.5t-14 -21.5t-7.5 -41.5t-6.5 -57.5q-32 -18 -66 -50t-54 -70q-23 -41 -23 -75q0 -41 32 -67t99 -32q0 -14 2 -29.5t4 -25.5q5 -23 17.5 -35t30.5 -12q4 0 8 0.5
t10 2.5l-1 -1q12 5 19.5 16t7.5 23q0 22 -20 34q-2 5 -2 12v18q23 3 45 12t39 20v-1q13 8 24 15.5t19 14.5q4 3 6.5 5.5t5.5 4.5q20 14 20 32q0 12 -9 23zM207 266q-2 -22 -3.5 -44.5t-1.5 -44.5v-15q-25 2 -35.5 9.5t-10.5 19.5q0 10 8 29q8 17 19.5 31t24.5 25
q0 -3 -0.5 -5.5t-0.5 -4.5z" />
    <glyph glyph-name="sterling" unicode="&#xa3;" horiz-adv-x="529" 
d="M535 7l-1 -1q9 12 9 25q0 17 -13 27t-29 10q-9 0 -18 -4t-16 -13q-11 -13 -39.5 -18.5t-62.5 -5.5h-13q-5 0 -12 1q2 8 2 12q0 12 -5 25t-13 25q-4 5 -8.5 11t-9.5 14l-23 35q20 0 39.5 1t37.5 2h38q18 0 28.5 12t10.5 27q0 12 -9.5 25.5t-29.5 13.5q-17 0 -36 -0.5
t-39 -1.5l-42 -2t-41 -1q-33 58 -33 98q0 20 13 37t39 29q25 10 52 15t50 5q5 0 10 -0.5t10 -1.5q1 -6 4 -12t11 -10q15 -9 32 -13.5t33 -5.5q10 0 17 3.5t14 9.5q12 13 12 29q0 7 -6 21q-9 19 -34.5 33.5t-52.5 20.5q-18 3 -45 3q-35 0 -73.5 -8.5t-67.5 -20.5
q-56 -26 -77.5 -62t-21.5 -77q0 -50 24 -96q-7 0 -11.5 -1t-9.5 -3q-13 -5 -17.5 -13.5t-4.5 -19.5q0 -16 11 -26.5t28 -11.5h42q8 -14 18.5 -28.5t21.5 -28.5q8 -11 13.5 -20.5t9.5 -15.5q2 -5 4 -9.5t2 -8.5t-2 -6q-29 2 -62.5 6.5t-61.5 7.5q-7 1 -13 1q-5 0 -10 1
q-3 2 -6 2h-4q-21 0 -33 -17q-6 -8 -6 -20q0 -15 12 -26v1q24 -26 59.5 -40t72.5 -14q20 0 40.5 4.5t38.5 15.5q2 0 4 -0.5t4 -0.5q14 -1 31 -1.5t36 -0.5q25 0 52.5 2t51.5 8.5t43.5 17.5t30.5 29z" />
    <glyph glyph-name="currency" unicode="&#xa4;" horiz-adv-x="626" 
d="M323 141v2q0 14 -9 25t-25 11h-6q-8 -1 -17 -1.5t-21 -0.5h-18q-9 0 -20 1q5 25 15 50q1 4 3 8l5 10q10 0 20 -0.5t20 -0.5q43 0 69 3q19 3 27.5 14t8.5 23v2q0 14 -8.5 25t-25.5 11h-6q-6 -1 -14 -1.5t-17 -0.5q-6 0 -13.5 0.5t-15.5 0.5h-3q22 31 49 59t54.5 53
t55.5 45.5t52 35.5q2 -1 7 -1q30 0 46 29h-1q12 19 12 39q0 21 -14 35q-10 10 -26 10q-18 0 -37 -11q-40 -21 -82 -52t-82.5 -69t-76 -81.5t-62.5 -88.5h-17q-17 0 -30.5 -0.5t-21.5 -2.5q-17 -4 -29 -15.5t-16 -28.5q0 -2 -0.5 -4t-0.5 -4q0 -18 15 -31v1q9 -9 25 -9
q11 0 19 4h-1q4 2 9 7q4 4 8 4h1q-12 -32 -18 -65h-14q-16 0 -29 -0.5t-21 -2.5q-37 -8 -45 -44q0 -2 -0.5 -4t-0.5 -4q0 -18 15 -31v1q9 -9 25 -9q10 0 18 4h-1q2 1 4.5 2.5t4.5 3.5q5 5 9 5q3 1 14 1h12q0 -45 16 -80q17 -39 51.5 -65t100.5 -39q46 -9 108 -9
q48 0 102.5 7t115.5 22q40 11 40 45q0 5 -0.5 7t-0.5 4q-7 20 -16.5 29.5t-26.5 9.5q-5 0 -9 -0.5t-8 -1.5q-61 -16 -109 -22.5t-87 -6.5q-24 0 -46 2t-43 6q-38 5 -57 19.5t-27 34.5q-8 16 -8 37h44q15 0 26 0.5t20 1.5q18 3 27 14t9 23z" />
    <glyph glyph-name="yen" unicode="&#xa5;" horiz-adv-x="512" 
d="M348 106v2q0 14 -8.5 25t-24.5 11h-6q-6 -1 -13 -1.5t-15 -0.5q-5 0 -12 0.5t-15 0.5h-1q4 6 7 11l6 10q6 2 8 4q7 0 14 -0.5t12 -0.5q26 0 44 3q17 3 25.5 14.5t8.5 22.5v2q0 14 -8.5 25t-24.5 11h-6q-6 -1 -14 -1h-16q12 21 18 32t10.5 18t7.5 11.5l9 13.5q2 4 5 7
q7 10 17.5 26t27.5 42q20 31 43 60.5t44 54.5q14 17 14 31q0 17 -14.5 30.5t-33.5 13.5q-20 0 -37 -16q-23 -28 -46 -58.5t-46 -65.5q-20 -30 -32.5 -48.5t-20 -30t-11.5 -18.5l-8 -14q-3 -5 -6.5 -11t-8.5 -14q-26 50 -37.5 88.5t-21.5 73.5q-5 18 -10.5 36.5t-12.5 37.5
q-5 15 -15.5 22t-22.5 7q-18 0 -33.5 -12.5t-15.5 -29.5q0 -5 3 -11h-1q3 -11 6 -21t5 -22q11 -46 28 -101.5t56 -127.5q-4 0 -8 0.5t-7 0.5q-17 0 -30 -1t-21 -3h1q-17 -4 -29 -15.5t-15 -28.5q0 -2 -0.5 -4t-0.5 -3q0 -20 14 -31v1q10 -10 25 -10q10 0 18 5h-1l5 2.5
t5 3.5q6 4 9 4q5 1 12 1h16h1l-4 -6q-2 -5 -4.5 -9t-5.5 -8q-7 0 -13.5 0.5t-12.5 0.5q-17 0 -29.5 -1t-20.5 -3h1q-17 -4 -28.5 -15t-15.5 -28q0 -2 -0.5 -4t-0.5 -4q0 -11 4 -18t10 -13v1q5 -5 12 -7.5t13 -2.5q12 0 18 5h-1q4 1 10 7q2 2 3.5 2.5t3.5 1.5l-8 -14
q-9 -13 -9 -26q0 -11 6 -19t15 -15q5 -5 12 -7t14 -2q9 0 18.5 4t18.5 15q8 11 19 28t22 35h54q14 0 26.5 0.5t22.5 1.5q18 3 26.5 14t8.5 22z" />
    <glyph glyph-name="brokenbar" unicode="&#xa6;" horiz-adv-x="266" 
d="M145 -49q17 30 21.5 59.5t4.5 58.5q0 9 -0.5 19t-0.5 18q-1 9 -1 17v18q0 22 3 44t11 45q4 9 4 17q0 11 -5.5 18t-15.5 12l-8 2t-6 1q-18 0 -31 -20q-14 -22 -18.5 -30.5t-4.5 -18.5v-7q0 -3 1 -7q1 -7 2 -18t1 -30q0 -20 -1.5 -51t-6.5 -77q-9 -12 -15 -25.5t-7 -25.5
q-1 -4 -1 -8v-8q0 -14 4.5 -22.5t14.5 -16.5q5 -2 8 -3t5 -1q11 0 21.5 11t20.5 29zM139 712q-16 -30 -21.5 -60.5t-5.5 -60.5q0 -12 0.5 -23.5t1.5 -23.5q1 -11 1.5 -22t0.5 -22q0 -16 -3.5 -33t-8.5 -34q-4 -11 -4 -18q0 -11 5.5 -17t15.5 -12q7 -3 14 -3q18 0 31 20
q14 23 18 32t4 17t-1 13q-2 8 -3 21t-1 36q0 19 1 48.5t5 71.5q10 14 16 27t7 26q0 3 0.5 6.5t0.5 6.5q0 17 -5.5 25t-14.5 15q-10 4 -12 4q-11 0 -21.5 -11t-20.5 -29z" />
    <glyph glyph-name="section" unicode="&#xa7;" horiz-adv-x="518" 
d="M478 579q1 2 1.5 4.5t0.5 7.5q0 12 -6.5 24t-19.5 20l1 -1q-16 11 -36 11q-8 0 -18 -2t-18 -7q-28 -11 -54.5 -29t-49.5 -39t-42.5 -42.5t-32.5 -40.5q-40 -55 -40 -93q0 -17 7 -36q-35 -26 -64.5 -57t-49.5 -57q-40 -54 -40 -95q0 -17 5 -28v1q20 -53 95 -57
q41 -2 74.5 -6t53.5 -13q16 -8 22.5 -24t6.5 -36q0 -6 -1 -13t-3 -15q-2 -9 -9.5 -32.5t-18.5 -47.5t-25.5 -42.5t-29.5 -18.5h-5q-5 1 -9 2t-6 1q-20 0 -30.5 -12.5t-13.5 -29.5v-4q0 -17 12 -33.5t38 -20.5h-1q3 -1 7 -1h7q23 0 44 9.5t37 27.5h-1q38 43 60.5 89t33.5 92
q1 8 2 15t2 15q32 11 50 32q38 45 59.5 89.5t33.5 92.5v-1q5 23 5 49q0 30 -11 65q-9 26 -28 48.5t-49 33.5q-32 11 -56.5 14.5t-47.5 5.5q-6 0 -12 0.5t-12 1.5h1q-26 9 -26 19q0 9 10 22q11 16 27 33t33.5 33t34.5 28t30 17q7 -2 15.5 -3t13.5 -1q18 0 29 10.5t14 24.5z
M278 131v1q-25 8 -47 11.5t-44 5.5q-11 2 -21.5 3t-22.5 3q-18 1 -22 7v2q0 12 13 29q11 16 27 33t33.5 33t34.5 28t30 17q7 -2 15.5 -2.5t13.5 -0.5q31 0 58.5 -3t45.5 -11q16 -7 23 -22.5t7 -33.5q0 -14 -5 -32q-3 -15 -9.5 -33t-15.5 -36t-20.5 -35t-24.5 -30
q-10 21 -27.5 38.5t-41.5 27.5z" />
    <glyph glyph-name="dieresis" unicode="&#xa8;" horiz-adv-x="349" 
d="M353 371q0 20 -16.5 34.5t-37.5 14.5q-23 0 -37.5 -14.5t-14.5 -34.5q0 -21 15 -34t38 -13q22 0 37 13t16 34zM197 371q0 20 -15.5 34.5t-38.5 14.5t-37 -14.5t-15 -34.5q0 -21 15 -34t38 -13q21 0 37 14t16 33z" />
    <glyph glyph-name="copyright" unicode="&#xa9;" horiz-adv-x="843" 
d="M50 163l1 -1q29 -45 82 -73.5t124 -33.5q23 -3 50.5 -5.5t59.5 -2.5q54 0 112 10t114 38q30 15 62.5 38t62.5 51q0 -1 0.5 -1.5l0.5 -0.5q2 -6 2 -8q3 -14 20 -22t34 -8q2 0 4 0.5t4 0.5q19 7 35.5 19.5t16.5 41.5v8q0 9 -1.5 21t-3.5 25.5t-4.5 27t-5.5 24.5q5 10 5 19
q0 19 -17 33q-9 39 -28 89.5t-48 104t-69 105t-92 93.5q-55 45 -105.5 65t-99.5 20h-15t-13 -1q-74 -12 -130 -67t-82 -144h1q-7 -20 -15 -43.5t-17 -49.5q-16 -43 -32 -87.5t-27 -82.5q-8 -24 -11 -47.5t-3 -45.5q0 -61 28 -110zM130 196l1 -1q-15 27 -15 62q0 14 2.5 30.5
t6.5 33.5q4 24 11.5 53t17 60t20.5 62.5t21 60.5q5 15 10 29l10 28q21 61 50.5 98.5t77.5 41.5h9q27 0 61 -11.5t76 -43.5q45 -33 83 -81t68 -101t50.5 -105t29.5 -92q-40 -53 -80 -88t-87 -55q-42 -22 -95.5 -32.5t-114.5 -10.5q-28 0 -56 2t-57 6h1q-76 16 -101 54z
M686 373l-1 1q-14 19 -37 19q-13 0 -24 -7q-14 -8 -43.5 -21t-68.5 -25.5t-86 -21.5t-95 -9q-35 0 -51.5 11t-16.5 27q0 11 6 25q9 18 25 36.5t34.5 34t38 27.5t36.5 17q9 -4 18.5 -5t17.5 -1q6 0 10.5 0.5t8.5 1.5q20 4 31.5 19t11.5 32q-1 17 -13.5 30.5t-39.5 17.5h1
q-4 1 -9 1h-11q-23 0 -31 -2q-72 -26 -128.5 -71.5t-86.5 -96.5q-13 -23 -18.5 -43.5t-5.5 -38.5q0 -52 44 -82t123 -30h8q58 1 111 10.5t96.5 23t76.5 28t51 24.5q25 16 25 41q0 14 -8 27z" />
    <glyph glyph-name="ordfeminine" unicode="&#xaa;" horiz-adv-x="472" 
d="M444 461q-10 12 -23 12q-5 0 -15 -5q-16 -8 -40.5 -16t-41.5 -11h-3q-15 0 -21 17q-2 5 -2.5 12.5t-0.5 17.5v10q0 17 -9 25.5t-23 8.5q-17 0 -35 -11v1q-11 -7 -25.5 -17.5t-29.5 -22.5t-29 -24t-25 -21l-8 -7q-8 -6 -12 -6l-1 1q-1 1 -1 6q0 11 4 19q7 15 19 31
t26.5 31t29.5 28t27 21q27 18 45 18q13 0 23 -8q9 -6 20 -6q10 0 17.5 4.5t12.5 11.5q4 7 4 16q0 6 -2.5 12.5t-9.5 11.5q-15 12 -29 17t-28 5q-26 0 -48.5 -12t-39.5 -23q-14 -9 -31 -23t-33.5 -31t-32 -36.5t-25.5 -40.5q-14 -26 -16 -58q0 -35 19 -51q16 -13 37 -13
q24 0 56 21q8 7 16.5 14.5t18.5 14.5q15 14 28.5 25t22.5 17l4 2q0 -11 4 -23.5t9 -19.5v1q11 -16 24.5 -23.5t36.5 -7.5h8q5 0 10 1q26 2 56 13t53 24q16 9 16 28q0 8 -7 19z" />
    <glyph glyph-name="guillemotleft" unicode="&#xab;" horiz-adv-x="347" 
d="M337 36l-1 1q-16 23 -35 47q-11 15 -21.5 28t-21.5 33q-1 1 -1 2v2q12 20 32 44.5t46 53.5h-1q9 9 9 22q0 15 -12 24q-8 8 -21 8q-12 0 -23 -11q-11 -12 -23.5 -27t-25 -30.5t-24 -31t-18.5 -28.5q-5 -7 -7 -14t-2 -13q0 -14 10 -28v1q9 -14 20.5 -31t23.5 -33.5
t23 -31.5t20 -25q10 -12 26 -12q10 0 18 6q14 8 14 26q0 10 -5 18zM215 36l-1 1l-18 24t-17 23q-11 15 -22 28t-22 33q-1 1 -1 2v2q13 20 33 44.5t46 53.5h-1q9 10 9 22q0 15 -12 24q-10 8 -21 8q-12 0 -23 -11q-11 -12 -23.5 -27t-25 -30.5t-24 -31t-18.5 -28.5
q-10 -13 -10 -27q0 -8 3 -14t8 -14v1q9 -14 20.5 -31t23.5 -33.5t23 -31.5t19 -25q12 -12 27 -12q10 0 18 6q14 8 14 26q0 8 -5 18z" />
    <glyph glyph-name="logicalnot" unicode="&#xac;" horiz-adv-x="802" 
d="M658 115l4 4h1q18 11 37 17t31 8h4q8 0 10 -2q1 -1 1 -3q0 -6 -5 -14q-4 -11 -11.5 -22t-17.5 -22q-17 -19 -36 -32.5t-42 -28.5q-11 -9 -11 -23q0 -3 0.5 -6.5t3.5 -7.5q10 -15 23 -15q3 0 7.5 1t9.5 5q2 2 4 2.5t4 2.5h-1q21 14 42 28.5t40 32.5q22 28 36 55v-1
q8 14 11.5 27.5t3.5 26.5q0 11 -2 20t-9 17v-1q-6 11 -19 14.5t-30 3.5q-23 0 -50 -7.5t-46 -19.5l1 1q-4 -2 -7.5 -4t-7.5 -4q2 39 7 76.5t10 63.5q0 3 1 5.5t2 5.5q17 4 35 10.5t33 12.5l10 4l10 4q20 6 20 24q0 9 -4 14v-1q-7 17 -23 17q-5 0 -10 -2v1q-5 -2 -14.5 -4.5
t-20.5 -7.5h1q-21 -8 -45.5 -15t-47.5 -7q-5 0 -9.5 0.5t-9.5 1.5q-10 1 -13 9q15 4 29.5 9t32.5 13q7 3 12 11q17 12 29.5 26.5t17.5 31.5q2 9 3.5 17.5t1.5 14.5q0 15 -5 27t-19 20q-11 7 -27 7q-12 0 -22.5 -3.5t-18.5 -7.5q-6 -3 -12.5 -7.5t-13.5 -9.5h1q-4 -2 -6 -4
q-12 -15 -28 -37t-26 -50q-2 0 -2 2q-5 8 -10 21t-7 25q-8 41 -36 45l2 -1q-5 2 -8 2h-4q-12 0 -25.5 -4t-27.5 -9q-12 -5 -29 -18.5t-33 -28.5v10q0 16 1 34t3 36h24q11 -8 21 -8q8 0 16 5l-1 -1q17 10 19 28q0 2 0.5 3t0.5 3q0 25 -34 25h-37q7 29 23 50q8 8 8 18
q0 8 -5 13.5t-11 10.5q-5 2 -9.5 3t-7.5 1q-15 0 -24 -13q-26 -31 -35 -83h-123q-32 0 -62 0.5t-53 1.5h-2q-14 0 -20 -8t-8 -19v-2q0 -10 8 -19t22 -9q12 -1 32 -1.5t41 -0.5h37q20 0 38 1q0 -13 -0.5 -26t-0.5 -27q0 -17 -0.5 -34.5t-0.5 -35.5q0 -29 1 -55.5t4 -45.5
q2 -20 11.5 -28.5t20.5 -9.5q3 -1 8 -1q10 0 18 6t10 19q1 3 1 7q0 7 -3.5 11.5t-8.5 9.5q-2 12 -3 38.5t-1 58.5v61q0 30 2 53q4 0 7 0.5t7 0.5h11q-2 -14 -2 -28v-27q0 -21 1 -42t3 -44q1 -16 9 -23t20 -7q19 0 30 14h-1l20 20t22.5 20.5t21.5 17.5t17 11q10 5 13 5
q2 0 4 -6q1 -2 1.5 -4t1.5 -4v1q5 -12 9 -25t12 -24q18 -24 43 -28q1 -15 6.5 -26t15.5 -21q15 -17 43 -20q5 0 10.5 -0.5t11.5 -0.5q-7 -29 -12.5 -75t-7.5 -92q-4 -1 -7 -1q-11 0 -15 11q-2 3 -2 19v10q0 16 -8 23.5t-21 7.5q-14 0 -29 -9h1q-14 -7 -30.5 -20.5
t-33.5 -27.5q-8 -7 -15 -13t-13 -11l-4 -4v2q0 8 3 14q11 22 34.5 46.5t42.5 37.5q19 12 33 12q10 0 15 -4q6 -6 19 -6q18 0 26 14q4 7 4 16q0 13 -11 22q-24 18 -48 18q-21 0 -39.5 -9.5t-29.5 -18.5l1 1q-24 -15 -52.5 -43.5t-46.5 -62.5q-12 -23 -12 -47v-15
q-17 -6 -40 -11.5t-47 -9.5t-47.5 -6.5t-41.5 -2.5q-14 0 -16 2q-4 4 -4 9q0 9 5 26q22 70 34 133.5t17 118.5v3q0 13 -8 19t-19 8q-1 0 -2.5 0.5t-2.5 0.5q-9 0 -18 -7.5t-9 -19.5q-6 -45 -16 -105t-33 -136q-9 -29 -9 -52q0 -27 14 -41q7 -8 21 -13t37 -5q24 0 57.5 3.5
t68.5 9.5t66.5 15t51.5 21q17 3 41 21q6 5 10 9l10 10q10 8 19.5 16.5t16.5 13.5q2 -7 4.5 -15t7.5 -13v1q8 -14 19.5 -20t29.5 -6h8q5 0 9 1h4q0 -14 5 -27l-1 1q3 -14 12.5 -20t18.5 -6q10 0 19 7.5t9 20.5v27q2 2 2 5l1 1q2 5 5.5 8.5t6.5 8.5q1 0 5 4zM356 248v16
q0 6 0.5 11.5t0.5 11.5v34q-2 11 -8.5 17t-14.5 6q-18 0 -27 -18q-5 -8 -5 -18q0 -9 4 -13v-47q0 -25 24 -25q26 0 26 25zM635 487q-2 -12 -17 -23t-33 -18q5 11 12 20.5t14 17.5q5 5 8 7t5 4q6 3 11 3h1v-2q0 -5 -1 -9z" />
    <glyph glyph-name="registered" unicode="&#xae;" horiz-adv-x="483" 
d="M54 358l1 -1q17 -25 45 -40.5t66 -18.5q13 -2 28.5 -3t32.5 -1q29 0 59.5 5t59.5 20q29 16 59 43q3 -8 12 -12.5t19 -4.5q6 0 9 2q10 3 19 10t9 24v5q0 8 -2 23t-4 27q0 2 0.5 5t0.5 5q0 10 -9 21q-5 20 -15 46.5t-25.5 54t-36.5 55t-48 49.5q-29 24 -56 35t-54 11
q-4 0 -8.5 -0.5t-7.5 -0.5q-40 -6 -70 -36t-44 -78l-2.5 -10l-0.5 -2l-0.5 0.5t-0.5 -0.5q-10 -26 -22.5 -61t-20.5 -63q-7 -22 -7 -49q0 -32 14 -60zM104 379l1 -1q-7 14 -7 31q0 16 4 31q3 17 9 37t12.5 41t13.5 40.5t12 34.5q11 31 26 49.5t37 20.5q2 0 4 0.5t4 0.5
q13 0 29 -6.5t36 -22.5q23 -17 42.5 -41t35 -51t26 -53.5t15.5 -47.5q-20 -27 -40 -44t-43 -27q-22 -11 -51 -16.5t-61 -5.5q-27 0 -55 3h1q-36 7 -51 27zM374 507q0 14 -13 24q-5 3 -13 6t-22 3q-25 -2 -58 -15t-59 -30q1 7 1.5 13t2.5 11q0 1 0.5 3t0.5 3q0 9 -5.5 14
t-13.5 9q-4 2 -11 2q-20 0 -24 -17q-1 -2 -2 -4.5t-2 -4.5q-2 -2 -2.5 -4t-1.5 -3l-3 -4.5t-1 -6.5q0 -7 4 -10q-2 -11 -2 -26v-29q0 -9 0.5 -18t0.5 -16q0 -14 8.5 -22t19.5 -8t19.5 6.5t9.5 20.5v3q1 5 1.5 9t5.5 11q3 5 8.5 9t12.5 10h-1q20 13 44.5 23t41.5 13h-1
q1 0 2 0.5t3 0.5q1 0 2.5 -1t5.5 -3t13 -2q15 0 22 12q6 7 6 18z" />
    <glyph glyph-name="macron" unicode="&#xaf;" horiz-adv-x="459" 
d="M395 570v1q0 12 -8.5 21t-24.5 9h-6q-6 -1 -14 -1h-18q-15 0 -33.5 0.5t-37.5 1.5q-20 0 -41 0.5t-38 0.5q-34 0 -49 -3h1q-17 -3 -28.5 -12.5t-14.5 -23.5q0 -1 -0.5 -3t-0.5 -3q0 -15 14 -26v1q5 -5 11.5 -6.5t12.5 -1.5q11 0 18 4h-1q2 1 4.5 2t4.5 3q6 4 10 4
q5 1 13 1h19h55q17 0 33.5 -0.5t31.5 -0.5q16 0 30 0.5t24 0.5q17 3 25 12t8 19z" />
    <glyph glyph-name="macron" unicode="&#x2c9;" horiz-adv-x="459" 
d="M395 570v1q0 12 -8.5 21t-24.5 9h-6q-6 -1 -14 -1h-18q-15 0 -33.5 0.5t-37.5 1.5q-20 0 -41 0.5t-38 0.5q-34 0 -49 -3h1q-17 -3 -28.5 -12.5t-14.5 -23.5q0 -1 -0.5 -3t-0.5 -3q0 -15 14 -26v1q5 -5 11.5 -6.5t12.5 -1.5q11 0 18 4h-1q2 1 4.5 2t4.5 3q6 4 10 4
q5 1 13 1h19h55q17 0 33.5 -0.5t31.5 -0.5q16 0 30 0.5t24 0.5q17 3 25 12t8 19z" />
    <glyph glyph-name="degree" unicode="&#xb0;" horiz-adv-x="219" 
d="M199 363q26 29 26 66t-26 66q-29 27 -67 27t-66 -27q-26 -29 -26 -66t26 -66q29 -26 66 -26q38 0 67 26zM162 399q-13 -13 -30 -13t-30 13t-13 30t13 30t30 13t30 -13q13 -12 13 -30t-13 -30z" />
    <glyph glyph-name="plusminus" unicode="&#xb1;" horiz-adv-x="374" 
d="M203 212h2q14 0 24.5 9t10.5 25v6q-1 7 -1.5 16t-0.5 19v28t2 32h37q11 0 20 0.5t17 1.5q18 3 26.5 14t8.5 22v2q0 14 -8.5 25t-24.5 11h-5q-7 -1 -14 -1.5t-16 -0.5q-6 0 -13 0.5t-15 0.5h-10v13q0 34 -3 51q-4 17 -15 28.5t-27 15.5q-2 0 -4 0.5t-4 0.5q-17 0 -30 -15
h1q-5 -5 -7 -11.5t-2 -12.5t0.5 -10t3.5 -9v1q1 -3 6 -8t5 -11q1 -4 1 -15v-15q-12 1 -23 1.5t-19 0.5q-43 0 -62.5 -10t-26.5 -36q0 -2 -0.5 -4.5t-0.5 -4.5q0 -19 14 -31v1q5 -5 11.5 -7t12.5 -2q12 0 18 5h-1q2 1 4.5 2t4.5 3q5 5 10 5q10 2 24 2h14q8 0 18 -1v-52
q0 -15 0.5 -28t1.5 -22q2 -17 13 -26t22 -9zM356 146v2q0 14 -8.5 25t-24.5 11h-6q-5 -1 -13 -1h-16q-15 0 -32 0.5t-36 1.5q-22 1 -43.5 1.5t-40.5 0.5q-35 0 -50 -3h1q-17 -4 -28.5 -15t-15.5 -28q0 -2 -0.5 -4t-0.5 -4q0 -17 14 -31v1q10 -9 25 -9q10 0 18 5q4 0 7 5
q5 5 11 5q3 1 9 1h14h27t32 -1t35 -1h35q16 0 30 0.5t24 1.5q17 3 25 14t8 22z" />
    <glyph glyph-name="twosuperior" unicode="&#xb2;" horiz-adv-x="385" 
d="M363 383v3q0 11 -8 20t-25 11q-10 1 -21 1h-24q-32 0 -68 -2t-71 -6q27 22 53.5 44.5t43.5 42.5q29 35 29 66t-27 51q-8 5 -22.5 14.5t-30.5 14.5q-9 3 -29.5 5.5t-43.5 2.5h-12q-5 0 -10 -1q-13 0 -19 -8.5t-6 -17.5v-1q0 -11 7.5 -20t21.5 -9q16 0 39 -2t32 -3
q10 -2 18.5 -7.5t13.5 -9.5q7 -7 7 -14q0 -12 -12 -25t-29.5 -28.5t-37 -32.5t-41 -34t-42.5 -32q-8 -5 -12 -12t-4 -15q0 -9 4 -16v1q4 -8 12.5 -14.5t20.5 -6.5h5q47 7 102.5 12.5t103.5 5.5q7 0 12.5 0.5t11.5 -0.5q9 -7 23 -7q8 0 12 2q11 4 16 11.5t7 15.5z" />
    <glyph glyph-name="threesuperior" unicode="&#xb3;" horiz-adv-x="286" 
d="M261 448q-1 25 -15 45.5t-43 31.5q-9 3 -16.5 4t-15.5 2q15 11 27.5 22t20.5 19q24 24 24 50q0 12 -5 20q-8 13 -25.5 22t-46.5 11h-9q-30 0 -59.5 -6.5t-48.5 -14.5q-14 -7 -14 -22q0 -7 4 -15q4 -5 10 -9t14 -4q3 0 6.5 0.5t7.5 2.5q12 6 33 10t42 4h9q20 0 20 -7
q0 -4 -7 -13q-8 -8 -19.5 -17.5t-24 -19t-25 -18t-21.5 -14.5q-17 -12 -17 -25q0 -5 3 -11q3 -7 10 -12t18 -5h4q2 0 5 0.5t6 0.5q8 1 17.5 1.5t18.5 0.5h13t11 -2q32 -11 32 -32v-2q0 -9 -4 -18t-12 -21q-13 -17 -31.5 -31t-39.5 -26t-42.5 -21.5t-40.5 -16.5v1
q-19 -7 -19 -25q0 -7 3 -11q5 -17 25 -17q6 0 11 2q23 7 48 18.5t49 26t45 31.5t36 37q28 36 28 73z" />
    <glyph glyph-name="acute" unicode="&#xb4;" horiz-adv-x="290" 
d="M293 434q-11 17 -29 17q-11 0 -18 -5l-32 -16l-37 -18.5l-37 -18.5t-33 -16q-11 -6 -17 -14.5t-6 -16.5t5 -15q4 -8 10.5 -14t18.5 -6q4 0 9 1.5t11 3.5q14 7 33.5 16.5t39.5 19.5t38.5 19.5t31.5 16.5q17 11 17 27q0 7 -5 19z" />
    <glyph glyph-name="mu" unicode="&#xb5;" horiz-adv-x="660" 
d="M727 88q-9 25 -36 25q-12 0 -25 -7q-19 -11 -44.5 -20.5t-52.5 -12.5q-3 0 -5.5 -0.5t-4.5 -0.5q-11 0 -21 5t-15 19v-1q-6 19 -6 49q0 17 2.5 38t8.5 44l-1 -1q2 5 2 7v4q0 15 -10.5 25.5t-25.5 14.5l1 -1q-5 2 -8 2h-4q-14 0 -25.5 -6.5t-18.5 -21.5q-16 -45 -52 -93.5
t-93 -88.5q-31 -22 -60 -22q-10 0 -16 2q-19 6 -25 26q-6 19 -6 47q0 32 6 68t16 65l-1 -1q2 6 2.5 9.5t0.5 6.5q0 18 -13 28.5t-29 10.5q-14 0 -28.5 -8.5t-22.5 -26.5q-16 -41 -21 -98.5t-9 -119.5q-2 -55 -6.5 -107t-18.5 -94q2 -9 8.5 -17t15 -14t17.5 -10.5t16 -7.5
q3 -1 5 -1.5t6 -0.5q8 0 15 3t12 7q14 11 14 27q0 6 -5 18q1 -1 0.5 0.5t-1.5 2.5q-5 5 -5 12v14q0 13 1 33t5 44q3 -1 6 -1t7 -1l-1 1l12 -4h-1q15 -4 37 -4q58 0 120 40q22 14 45.5 35.5t42.5 44.5q4 -26 18 -46q16 -25 44.5 -36.5t58.5 -11.5q7 0 13 0.5t12 1.5
q38 6 72 18t57 26q13 8 18 18.5t5 21.5q0 12 -5 22z" />
    <glyph glyph-name="mu" unicode="&#x3bc;" horiz-adv-x="660" 
d="M727 88q-9 25 -36 25q-12 0 -25 -7q-19 -11 -44.5 -20.5t-52.5 -12.5q-3 0 -5.5 -0.5t-4.5 -0.5q-11 0 -21 5t-15 19v-1q-6 19 -6 49q0 17 2.5 38t8.5 44l-1 -1q2 5 2 7v4q0 15 -10.5 25.5t-25.5 14.5l1 -1q-5 2 -8 2h-4q-14 0 -25.5 -6.5t-18.5 -21.5q-16 -45 -52 -93.5
t-93 -88.5q-31 -22 -60 -22q-10 0 -16 2q-19 6 -25 26q-6 19 -6 47q0 32 6 68t16 65l-1 -1q2 6 2.5 9.5t0.5 6.5q0 18 -13 28.5t-29 10.5q-14 0 -28.5 -8.5t-22.5 -26.5q-16 -41 -21 -98.5t-9 -119.5q-2 -55 -6.5 -107t-18.5 -94q2 -9 8.5 -17t15 -14t17.5 -10.5t16 -7.5
q3 -1 5 -1.5t6 -0.5q8 0 15 3t12 7q14 11 14 27q0 6 -5 18q1 -1 0.5 0.5t-1.5 2.5q-5 5 -5 12v14q0 13 1 33t5 44q3 -1 6 -1t7 -1l-1 1l12 -4h-1q15 -4 37 -4q58 0 120 40q22 14 45.5 35.5t42.5 44.5q4 -26 18 -46q16 -25 44.5 -36.5t58.5 -11.5q7 0 13 0.5t12 1.5
q38 6 72 18t57 26q13 8 18 18.5t5 21.5q0 12 -5 22z" />
    <glyph glyph-name="paragraph" unicode="&#xb6;" horiz-adv-x="627" 
d="M524 503l1 -5v-18q0 -27 -2 -63t-5 -71t-7 -66t-8 -49l1 1q-2 -5 -2 -7v-4q0 -16 10 -26t25 -13q4 -1 14 -1q15 0 27 8.5t17 28.5q4 20 7 50.5t5 65.5t3.5 72.5t1.5 72.5v43q0 20 -2 37v4q0 8 -1 12v4q-5 15 -19.5 25.5t-34.5 10.5q-12 0 -24 -5.5t-20 -13.5
q-41 -12 -88 -21.5t-95 -17.5l-86 -18t-81 -18q-74 -21 -109 -54.5t-36 -73.5v-2q0 -32 24 -62.5t73 -54.5q10 -5 24 -6.5t31 -1.5q16 0 33.5 1t35.5 3q20 1 40.5 2t40.5 1q23 0 43 -2.5t37 -7.5q1 -18 2.5 -45.5t2.5 -59t2 -65t1 -63.5q0 -28 -1 -50.5t-3 -34.5l1 1
q-2 -5 -2 -7v-4q0 -16 9.5 -26t24.5 -13q4 -1 14 -1q15 0 27 8.5t17 28.5q7 31 9.5 66t2.5 74q0 58 -5.5 118t-13 115t-16 102t-15.5 79q19 3 31.5 6t26.5 7q8 2 11 4z" />
    <glyph glyph-name="periodcentered" unicode="&#xb7;" horiz-adv-x="170" 
d="M126 223q10 7 14.5 18t4.5 23t-4.5 23.5t-14.5 18.5q-15 10 -32 10q-8 0 -17 -2.5t-15 -7.5q-20 -17 -20 -39q0 -26 16 -40t36 -14q18 0 32 10z" />
    <glyph glyph-name="periodcentered" unicode="&#x22c5;" horiz-adv-x="170" 
d="M126 223q10 7 14.5 18t4.5 23t-4.5 23.5t-14.5 18.5q-15 10 -32 10q-8 0 -17 -2.5t-15 -7.5q-20 -17 -20 -39q0 -26 16 -40t36 -14q18 0 32 10z" />
    <glyph glyph-name="cedilla" unicode="&#xb8;" horiz-adv-x="345" 
d="M247 -95q8 14 8 34q0 15 -7.5 28t-27.5 20q-4 1 -4 3q0 3 1 8t3 11v1q2 4 2 8q0 12 -9.5 20t-21.5 8q-10 0 -19 -6.5t-14 -22.5q-5 -22 -5 -41q0 -35 31 -43h4q0 -1 -1 -1v-1q-7 -8 -30 -15q-13 -4 -18.5 -13t-5.5 -20q0 -12 7.5 -22t23.5 -10h5q23 3 43.5 17t34.5 37z
" />
    <glyph glyph-name="onesuperior" unicode="&#xb9;" horiz-adv-x="192" 
d="M149 365q0 15 -12 23q-12 7 -28 7q1 22 3.5 52t5.5 62.5t6.5 63t5.5 53.5v4q0 14 -10 23.5t-23 9.5q-11 0 -18 -6q-4 -2 -9.5 -5.5t-11.5 -7.5q-8 -6 -15 -10t-12 -6h1q-16 -9 -16 -25q0 -9 4 -16q9 -14 23 -14h3q6 2 11 5t10 5q-2 -16 -4.5 -40t-5 -51t-4 -53.5
t-1.5 -47.5q-16 0 -28 -6q-20 -6 -20 -26q0 -7 3 -13l-1 1q7 -21 29 -24h4q9 0 17 6q3 1 6 1h4q6 -6 15 -6q11 0 17 9h11q9 0 13 1q14 2 20.5 11t6.5 20z" />
    <glyph glyph-name="ordmasculine" unicode="&#xba;" horiz-adv-x="422" 
d="M403 581v1q0 14 -11 25t-28 11h-64q-11 8 -25.5 15t-27.5 9q-2 0 -6 0.5t-8 0.5q-5 0 -9 -0.5t-9 -1.5q-18 15 -38 15q-22 0 -38 -9h1q-40 -21 -70 -59t-41 -87q-5 -25 -5 -46q0 -37 14 -58q14 -25 39.5 -36t61.5 -11h4q29 0 54 4t49 15q52 22 97 75q15 17 20.5 34
t5.5 31q0 11 -2.5 20.5t-5.5 16.5q6 1 11.5 1.5t10.5 2.5q10 5 15 13.5t5 17.5zM284 490q-15 -18 -32.5 -33t-37.5 -23q-14 -5 -29 -8t-36 -3h-7q-23 0 -35 16q-6 7 -6 24q0 5 0.5 10.5t1.5 13.5q6 27 23 50t31 33l4 2q2 0 3 1q2 -12 16.5 -19.5t35.5 -7.5h57q19 -13 19 -34
q0 -14 -8 -22z" />
    <glyph glyph-name="guillemotright" unicode="&#xbb;" horiz-adv-x="347" 
d="M348 115v-1q10 14 10 27q0 14 -9 27q-7 12 -18 28t-23.5 33t-24.5 32.5t-22 27.5q-12 12 -27 12q-13 0 -22 -8t-9 -22q0 -10 4 -17q8 -11 16.5 -22.5t16.5 -21.5q13 -18 24.5 -34t22.5 -32q0 -1 0.5 -1.5t0.5 -2.5q0 -1 -0.5 -1.5t-0.5 -1.5v1q-13 -20 -33 -45t-44 -53
q-5 -5 -6.5 -10.5t-1.5 -10.5q0 -14 12 -24q8 -7 20 -7q8 0 13.5 2.5t10.5 7.5q10 11 22 25t24.5 30t23.5 32t20 30zM226 115v-1q10 17 10 27q0 12 -9 27q-7 12 -18 28t-23.5 33t-25 32.5t-21.5 27.5q-7 7 -14 9.5t-13 2.5q-13 0 -22.5 -8t-9.5 -22q0 -9 5 -17
q8 -11 16.5 -22.5t16.5 -21.5q12 -18 24 -34t23 -32q0 -1 0.5 -1.5t0.5 -2.5q0 -1 -0.5 -1.5t-0.5 -1.5v1q-14 -20 -34 -45t-43 -54q-9 -9 -9 -20q0 -8 3.5 -13.5t8.5 -10.5q10 -7 21 -7q13 0 23 10q10 11 22.5 25t24.5 30t23.5 32t20.5 30z" />
    <glyph glyph-name="onequarter" unicode="&#xbc;" horiz-adv-x="562" 
d="M527 610q1 5 1 9v10q0 18 -5.5 30.5t-18.5 14.5l1 -1q-5 2 -8 2h-5q-11 0 -21 -6t-18 -22q-8 -12 -10.5 -26.5t-2.5 -32.5q-21 -33 -48 -70.5t-57.5 -78.5t-64 -83t-66.5 -84q-44 -56 -85 -108t-73 -97t-52 -80t-22 -55v-7q0 -31 29 -37l-1 1q8 -4 16 -4q11 0 17.5 6
t11.5 21q4 18 24 49.5t50 72.5t67 89t77 98q46 59 91.5 118.5t82.5 111.5t61.5 93.5t28.5 65.5zM588 83q0 11 -6.5 20t-20.5 9h-2q-11 -1 -22 -1t-22 -1l-38 -2q2 30 3 61.5t3 58.5v14q0 14 -7 21t-18 9q-1 0 -2 0.5t-3 0.5q-22 0 -30 -21q-18 -11 -48.5 -31t-62 -42
t-59 -42.5t-39.5 -33.5q-5 -5 -7 -11.5t-2 -12.5q0 -9 2 -14q5 -9 12.5 -15t21.5 -6q60 0 123 3l48 1v-10q-2 -34 -3.5 -56t-1.5 -43v-32q1 -20 9 -28.5t20 -8.5q14 0 28 17q9 11 9 22t-8 18q0 32 1.5 63.5t4.5 58.5q23 1 47 2t44 3q14 2 20 10t6 19zM176 365q0 15 -12 23
q-12 7 -28 7q1 22 3.5 52t5.5 62.5t6.5 63t5.5 53.5v4q0 14 -10 23.5t-23 9.5q-11 0 -18 -6q-4 -2 -9.5 -5.5t-11.5 -7.5q-8 -6 -15 -10t-12 -6h1q-16 -9 -16 -25q0 -9 4 -16q9 -14 23 -14h3q6 2 11 5t10 5q-2 -16 -4.5 -40t-5 -51t-4 -53.5t-1.5 -47.5q-16 0 -28 -6
q-20 -6 -20 -26q0 -7 3 -13l-1 1q7 -21 29 -24h4q9 0 17 6q3 1 6 1h4q6 -6 15 -6q11 0 17 9h11q9 0 13 1q14 2 20.5 11t6.5 20zM420 166q0 -14 -1 -28.5t-3 -30.5q-54 0 -108 -3q29 20 56.5 40t56.5 39q-1 -4 -1 -9v-8z" />
    <glyph glyph-name="onehalf" unicode="&#xbd;" horiz-adv-x="562" 
d="M555 13v3q0 11 -8 20t-25 11q-10 1 -21 1h-24q-32 0 -68 -2t-71 -6q27 22 53.5 44.5t43.5 42.5q29 35 29 66t-27 51q-8 5 -22.5 14.5t-30.5 14.5q-9 3 -29.5 5.5t-43.5 2.5h-1q40 52 77.5 102t67.5 93.5t49.5 78t22.5 55.5q1 5 1 9v10q0 18 -5.5 30.5t-18.5 14.5l1 -1
q-5 2 -8 2h-5q-11 0 -21 -6t-18 -22q-8 -12 -10.5 -26.5t-2.5 -32.5q-21 -33 -48 -70.5t-57.5 -78.5t-64 -83t-66.5 -84q-44 -56 -85 -108t-73 -97t-52 -80t-22 -55v-7q0 -31 29 -37l-1 1q8 -4 16 -4q11 0 17.5 6t11.5 21q4 18 24 49.5t50 72.5t67 89t77 98q3 3 9 11
q8 -8 21 -8q16 0 39 -2t32 -3q10 -2 18.5 -7.5t13.5 -9.5q7 -7 7 -14q0 -12 -12 -25t-29.5 -28.5t-37 -32.5t-41 -34t-42.5 -32q-8 -5 -12 -12t-4 -15q0 -9 4 -16v1q4 -8 12.5 -14.5t20.5 -6.5h5q47 7 102.5 12.5t103.5 5.5q7 0 12.5 0.5t11.5 -0.5q9 -7 23 -7q8 0 12 2
q11 4 16 11.5t7 15.5zM176 365q0 15 -12 23q-12 7 -28 7q1 22 3.5 52t5.5 62.5t6.5 63t5.5 53.5v4q0 14 -10 23.5t-23 9.5q-11 0 -18 -6q-4 -2 -9.5 -5.5t-11.5 -7.5q-8 -6 -15 -10t-12 -6h1q-16 -9 -16 -25q0 -9 4 -16q9 -14 23 -14h3q6 2 11 5t10 5q-2 -16 -4.5 -40
t-5 -51t-4 -53.5t-1.5 -47.5q-16 0 -28 -6q-20 -6 -20 -26q0 -7 3 -13l-1 1q7 -21 29 -24h4q9 0 17 6q3 1 6 1h4q6 -6 15 -6q11 0 17 9h11q9 0 13 1q14 2 20.5 11t6.5 20z" />
    <glyph glyph-name="threequarters" unicode="&#xbe;" horiz-adv-x="562" 
d="M527 610q1 5 1 9v10q0 18 -5.5 30.5t-18.5 14.5l1 -1q-5 2 -8 2h-5q-11 0 -21 -6t-18 -22q-8 -12 -10.5 -26.5t-2.5 -32.5q-21 -33 -48 -70.5t-57.5 -78.5t-64 -83t-66.5 -84q-44 -56 -85 -108t-73 -97t-52 -80t-22 -55v-7q0 -31 29 -37l-1 1q8 -4 16 -4q11 0 17.5 6
t11.5 21q4 18 24 49.5t50 72.5t67 89t77 98q46 59 91.5 118.5t82.5 111.5t61.5 93.5t28.5 65.5zM588 83q0 11 -6.5 20t-20.5 9h-2q-11 -1 -22 -1t-22 -1l-38 -2q2 30 3 61.5t3 58.5v14q0 14 -7 21t-18 9q-1 0 -2 0.5t-3 0.5q-22 0 -30 -21q-18 -11 -48.5 -31t-62 -42
t-59 -42.5t-39.5 -33.5q-5 -5 -7 -11.5t-2 -12.5q0 -9 2 -14q5 -9 12.5 -15t21.5 -6q60 0 123 3l48 1v-10q-2 -34 -3.5 -56t-1.5 -43v-32q1 -20 9 -28.5t20 -8.5q14 0 28 17q9 11 9 22t-8 18q0 32 1.5 63.5t4.5 58.5q23 1 47 2t44 3q14 2 20 10t6 19zM250 448
q-1 25 -15 45.5t-43 31.5q-9 3 -16.5 4t-15.5 2q15 11 27.5 22t20.5 19q24 24 24 50q0 12 -5 20q-8 13 -25.5 22t-46.5 11h-9q-30 0 -59.5 -6.5t-48.5 -14.5q-14 -7 -14 -22q0 -7 4 -15q4 -5 10 -9t14 -4q3 0 6.5 0.5t7.5 2.5q12 6 33 10t42 4h9q20 0 20 -7q0 -4 -7 -13
q-8 -8 -19.5 -17.5t-24 -19t-25 -18t-21.5 -14.5q-17 -12 -17 -25q0 -5 3 -11q3 -7 10 -12t18 -5h4q2 0 5 0.5t6 0.5q8 1 17.5 1.5t18.5 0.5h13t11 -2q32 -11 32 -32v-2q0 -9 -4 -18t-12 -21q-13 -17 -31.5 -31t-39.5 -26t-42.5 -21.5t-40.5 -16.5v1q-19 -7 -19 -25
q0 -7 3 -11q5 -17 25 -17q6 0 11 2q23 7 48 18.5t49 26t45 31.5t36 37q28 36 28 73zM420 166q0 -14 -1 -28.5t-3 -30.5q-54 0 -108 -3q29 20 56.5 40t56.5 39q-1 -4 -1 -9v-8z" />
    <glyph glyph-name="questiondown" unicode="&#xbf;" horiz-adv-x="391" 
d="M371 -344l1 1q7 14 7 26q0 21 -18 38q-29 21 -51 21q-3 0 -5 -1q-11 4 -22.5 8t-23.5 8q-21 8 -40.5 15.5t-35.5 13.5q-26 10 -28 26q0 11 16 29q16 16 32 31t31 31q36 35 67.5 68t51.5 62q10 16 14.5 32.5t4.5 30.5q0 21 -10 35q-6 9 -15.5 13.5t-20.5 4.5
q-13 0 -24.5 -8t-14.5 -25q-3 -12 -3 -29v-6q-15 -26 -61 -73t-112 -107v1q-47 -42 -47 -93v-6q0 -32 21.5 -59t65.5 -42q32 -11 72.5 -26t85.5 -34q12 -4 23 -4q23 0 39 18zM327 302q-17 20 -41 20q-18 0 -37 -13q-11 -8 -16.5 -21t-5.5 -28q0 -14 5 -26.5t16 -20.5
q8 -5 17.5 -8.5t19.5 -3.5q20 0 35 12q11 9 17 21.5t6 25.5q0 26 -16 42z" />
    <glyph glyph-name="Agrave" unicode="&#xc0;" horiz-adv-x="682" 
d="M702 32q-6 8 -14 21t-16 27.5t-16 28.5t-12 23q-2 4 -4 8.5t-4 8.5l-1 1q0 1 -1 2q5 2 10 3t10 3q18 6 24 21t6 26q-5 23 -16.5 31.5t-24.5 8.5h-4t-7 -2l1 1q-8 -2 -16.5 -4t-19.5 -4q-16 36 -34.5 83.5t-37.5 101.5q-20 54 -40.5 109t-42.5 105q-6 17 -17.5 23t-24.5 6
h-4q-22 -1 -33.5 -14.5t-12.5 -28.5q-11 -17 -25.5 -45.5t-32 -64.5t-37.5 -78t-40 -85q-30 -63 -58 -122t-51 -104q-6 -2 -13 -3.5t-15 -2.5q-5 -2 -10 -2q-4 0 -9 -2q-24 -8 -33 -21t-9 -27q0 -20 13 -30.5t30 -10.5q-4 -7 -6.5 -13.5t-5.5 -13.5v1q-8 -13 -8 -31
q0 -17 15 -32q12 -10 28 -10q15 0 27 6q20 10 26 25t7 26q7 12 13 25.5t13 28.5q2 3 2.5 6t2.5 6q14 3 26.5 6t26.5 7q76 17 158 36t154 36l14 -28q6 -14 15 -31.5t19.5 -35.5t20 -34t17.5 -26q16 -21 41 -21q16 0 32 11q16 12 16 32q0 19 -12 33zM499 212
q-69 -16 -140.5 -32.5t-134.5 -30.5q11 24 23 50.5t25 54.5q32 66 64 132.5t59 121.5q11 -29 22.5 -59.5t22.5 -62.5q15 -43 31 -87t34 -86q-2 -1 -6 -1zM457 706q9 11 9 24q0 17 -15 28h1q-16 14 -34 27.5t-35 27.5q-12 8 -23.5 17.5t-23.5 19.5q-8 8 -21 8q-10 0 -17 -4.5
t-12 -11.5q-10 -12 -10 -25q0 -16 15 -27q27 -23 57 -46.5t59 -44.5q9 -8 22 -8q8 0 15.5 4.5t12.5 10.5z" />
    <glyph glyph-name="Aacute" unicode="&#xc1;" horiz-adv-x="682" 
d="M702 32q-6 8 -14 21t-16 27.5t-16 28.5t-12 23q-2 4 -4 8.5t-4 8.5l-1 1q0 1 -1 2q5 2 10 3t10 3q18 7 24 21.5t6 25.5q-5 23 -16.5 31.5t-24.5 8.5h-4t-7 -2l1 1q-8 -2 -16.5 -4t-19.5 -4q-16 36 -34.5 83.5t-37.5 101.5q-20 54 -40.5 109t-42.5 106q-6 16 -17.5 22
t-24.5 6h-4q-22 -1 -33.5 -14t-12.5 -29q-11 -17 -25.5 -45.5t-32 -64.5t-37.5 -78t-40 -85q-30 -63 -58 -122t-51 -104q-7 -2 -15.5 -3.5t-17.5 -3.5q-5 -1 -13 -3q-14 0 -22.5 -6t-13 -13.5t-6 -15.5t-1.5 -13q0 -20 13 -30t30 -11q-5 -8 -8 -15t-6 -15v1q-8 -13 -8 -31
q0 -17 15 -32q12 -10 28 -10q15 0 27 6q20 10 26 25t7 26q8 17 15 32.5t15 29.5q1 2 1.5 3.5t1.5 3.5q31 8 61.5 14.5t62.5 13.5q57 13 117 27.5t124 29.5l14 -28q6 -14 15 -31.5t19.5 -35.5t20 -34t17.5 -26q16 -21 41 -21q16 0 32 11q16 12 16 32q0 19 -12 33zM499 213
q-69 -17 -140.5 -33.5t-134.5 -30.5q11 24 23 50.5t25 54.5q32 66 64 132.5t59 121.5q11 -29 22.5 -59.5t22.5 -62.5q15 -43 31 -86.5t34 -85.5q-2 -1 -6 -1zM537 855v1q-11 19 -31 19q-5 0 -9.5 -1t-9.5 -5q-15 -8 -34 -18t-39 -20.5t-39.5 -20.5t-35.5 -18
q-11 -7 -17.5 -16.5t-6.5 -18.5t5 -17q5 -9 11.5 -15.5t19.5 -6.5q4 0 9.5 2t11.5 4q15 7 35.5 17.5t42 21.5t41 22t33.5 19q18 12 18 31q0 4 -1 9.5t-4 10.5z" />
    <glyph glyph-name="Acircumflex" unicode="&#xc2;" horiz-adv-x="682" 
d="M702 32q-6 8 -14 21t-16 27.5t-16 28.5t-12 23q-2 4 -4 8.5t-4 8.5l-1 1q0 1 -1 2q5 2 10 3t10 3q18 6 24 21t6 26q-5 23 -16.5 31.5t-24.5 8.5h-4t-7 -2l1 1q-8 -2 -16.5 -4t-19.5 -4q-16 36 -34.5 83.5t-37.5 101.5q-20 54 -40.5 109t-42.5 105q-6 17 -17.5 23t-24.5 6
h-4q-22 -1 -33.5 -14.5t-12.5 -28.5q-11 -17 -25.5 -45.5t-32 -65t-37.5 -78.5t-40 -85q-30 -63 -58 -121.5t-51 -103.5q-7 -2 -15.5 -4t-17.5 -3q-5 -1 -13 -3q-14 0 -22.5 -6t-13 -13.5t-6 -15.5t-1.5 -13q0 -20 13 -30t30 -11q-5 -8 -8 -15t-6 -15v1q-8 -13 -8 -31
q0 -17 15 -32q12 -10 28 -10q15 0 27 6q20 10 26 25t7 26q8 17 15 32.5t15 29.5q1 2 1.5 3.5t1.5 3.5q31 8 61.5 14.5t62.5 13.5q57 13 117 27.5t124 29.5l14 -28q6 -14 15 -31.5t19.5 -35.5t20 -34t17.5 -26q16 -21 41 -21q16 0 32 11q16 12 16 32q0 19 -12 33zM499 212
q-69 -16 -140.5 -32.5t-134.5 -30.5q11 24 23 50.5t25 53.5q32 67 64 133.5t59 121.5q11 -29 22.5 -59.5t22.5 -62.5q15 -43 31 -87t34 -86q-2 -1 -6 -1zM505 765h-1q-13 14 -30.5 32.5t-32.5 32.5q-12 12 -28 12q-7 0 -12.5 -2.5t-13.5 -7.5v1q-11 -6 -22 -13.5t-25 -15.5
q-13 -8 -27 -17t-27 -17q-17 -11 -17 -29q0 -11 6 -20q11 -18 32 -18q12 0 20 5q6 5 13.5 8.5t14.5 8.5h-1q13 8 26.5 16.5t24.5 16.5q5 -5 11 -10t13 -12q5 -6 11.5 -12.5t12.5 -11.5t12.5 -6.5t11.5 -1.5q15 0 26 9.5t11 25.5q0 6 -2 13t-7 13z" />
    <glyph glyph-name="Atilde" unicode="&#xc3;" horiz-adv-x="682" 
d="M702 32q-6 8 -14 21t-16 27.5t-16 28.5t-12 23q-2 4 -4 8.5t-4 8.5l-1 1q0 1 -1 2q5 2 10 2.5t10 2.5q18 7 24 21.5t6 25.5q-5 24 -16.5 32t-24.5 8h-4t-7 -1q-8 -2 -16.5 -3.5t-18.5 -3.5q-16 36 -34.5 83t-37.5 101q-20 54 -40.5 109t-42.5 106q-6 16 -17.5 22t-24.5 6
h-4q-22 -1 -33.5 -14t-12.5 -29q-11 -17 -25.5 -45t-32 -64.5t-37.5 -78.5t-40 -85q-30 -63 -58 -121.5t-51 -103.5q-15 -5 -33 -8q-5 -1 -13 -3q-14 0 -22.5 -5.5t-13 -13t-6 -15.5t-1.5 -13q0 -20 13 -30t30 -12q-5 -7 -8 -14t-6 -15v1q-8 -13 -8 -31t15 -31
q11 -11 28 -11q15 0 27 6q20 10 26 25t7 26q9 17 16 33t15 31q0 1 2 5q31 8 61.5 14.5t62.5 13.5q57 13 117 27t124 30l14 -28q6 -14 15 -32t19.5 -35.5t20 -33.5t17.5 -25q16 -22 41 -22q16 0 32 11q16 12 16 32q0 18 -12 33zM499 212q-69 -16 -140.5 -32.5t-134.5 -30.5
q11 24 23 50.5t25 53.5q32 66 64 132.5t59 122.5q22 -60 45 -123q15 -42 31 -86t34 -86q-2 -1 -6 -1zM543 752h-1q2 5 2 7v4q0 11 -6.5 20t-17.5 13q-4 1 -7.5 2t-5.5 1q-10 0 -20 -6t-15 -20q-3 -13 -7 -13q-8 0 -33 18q-19 14 -36.5 21t-35.5 7q-25 0 -50 -16t-42 -50
q-5 -5 -5.5 -10t-0.5 -10q0 -11 5.5 -19t13.5 -11h-1q7 -5 20 -5q22 0 32 19q16 26 31 26q11 0 26 -12q38 -34 80 -34h2q24 0 43.5 15t28.5 53z" />
    <glyph glyph-name="Adieresis" unicode="&#xc4;" horiz-adv-x="682" 
d="M702 32q-6 8 -14 21t-16 27.5t-16 28.5t-12 23q-2 4 -4 8.5t-4 8.5l-1 1q0 1 -1 2q5 2 10 3t10 3q18 6 24 20.5t6 25.5q-5 24 -16.5 32.5t-24.5 8.5h-4t-7 -2l1 1q-8 -2 -16.5 -4t-19.5 -4q-16 36 -34.5 83.5t-37.5 101.5q-20 54 -40.5 108.5t-42.5 105.5q-6 16 -17.5 22
t-24.5 6h-4q-22 -1 -33.5 -14t-12.5 -29q-11 -17 -25.5 -45t-32 -64.5t-37.5 -78.5t-40 -85q-30 -63 -58 -121.5t-51 -103.5q-6 -2 -13 -3.5t-15 -3.5q-5 -2 -10 -2q-4 0 -9 -2q-27 -10 -34.5 -23.5t-7.5 -23.5q0 -20 12 -30.5t30 -10.5q-4 -8 -7 -15t-6 -15v1
q-8 -13 -8 -31t15 -31q11 -11 28 -11q15 0 27 6q20 10 26 25t7 26q10 18 17.5 35t15.5 33q85 19 173.5 39.5t191.5 46.5l14 -28q6 -14 15 -31.5t19.5 -35.5t20 -34t17.5 -26q16 -21 41 -21q16 0 32 11q16 12 16 32q0 19 -12 33zM499 212q-69 -16 -140.5 -32.5t-134.5 -30.5
q11 24 23 50.5t25 53.5q32 66 64 132.5t59 122.5q22 -59 45 -123q15 -42 31 -86t34 -86q-2 -1 -6 -1zM535 767q0 24 -17.5 41t-39.5 17q-24 0 -39 -17t-15 -41t15.5 -40t39.5 -16q23 1 39 16.5t17 39.5zM371 767q0 24 -16 41t-40 17t-38.5 -17t-15.5 -41q0 -24 15.5 -40
t39.5 -16q22 0 38.5 17t16.5 39z" />
    <glyph glyph-name="Aring" unicode="&#xc5;" horiz-adv-x="682" 
d="M702 32q-6 8 -14 21t-16 27.5t-16 28.5t-12 23q-2 4 -4 8.5t-4 8.5l-1 1q0 1 -1 2q5 2 10 3t10 3q18 7 24 21.5t6 25.5q-5 23 -16.5 31.5t-24.5 8.5h-4t-7 -2l1 1q-8 -2 -16.5 -3.5t-19.5 -3.5q-16 36 -34.5 83.5t-37.5 100.5q-20 54 -40.5 109t-42.5 106q-6 16 -17.5 22
t-24.5 6h-4q-22 -1 -33.5 -14t-12.5 -29q-11 -17 -25.5 -45.5t-32 -64.5t-37.5 -78t-40 -85q-29 -63 -57.5 -121t-50.5 -103q-5 -2 -10 -3.5t-10 -1.5q-5 -2 -11.5 -3.5t-16.5 -4.5q-27 -10 -34.5 -23.5t-7.5 -23.5q0 -20 11.5 -30.5t30.5 -11.5q-5 -8 -7.5 -14.5
t-5.5 -14.5v1q-8 -13 -8 -31q0 -17 15 -32q12 -10 28 -10q15 0 27 6q20 10 26 25t7 26q10 18 17.5 35t15.5 33q85 19 173.5 39.5t191.5 46.5l14 -28q6 -14 15 -31.5t19.5 -35.5t20 -34t17.5 -26q16 -21 41 -21q16 0 32 11q16 12 16 32q0 19 -12 33zM499 213
q-69 -17 -140.5 -33.5t-134.5 -30.5q11 24 23 50.5t25 54.5q32 66 64 132.5t59 121.5q11 -29 22.5 -59.5t22.5 -62.5q15 -43 31 -86.5t34 -85.5q-2 -1 -6 -1zM473 701q29 32 29 72q0 41 -29 72q-31 29 -72 29q-39 0 -70 -29q-29 -31 -29 -72q0 -40 29 -72q31 -28 70 -28
q41 0 72 28zM448 729l-2 -1q-8 -10 -20 -14t-25 -4q-12 0 -23.5 4t-19.5 15q-11 8 -15 19.5t-4 24.5q0 12 4 24.5t15 20.5q8 11 20 15t23 4q13 0 24.5 -3.5t18.5 -12.5q12 -10 17.5 -23t5.5 -25q0 -29 -19 -44z" />
    <glyph glyph-name="AE" unicode="&#xc6;" horiz-adv-x="988" 
d="M994 542q0 17 -10 31t-33 17q-26 2 -55 3t-61 1q-58 0 -114.5 -3.5t-99.5 -10.5q-2 -1 -7 -2t-7 -2l1 1q-6 -2 -11 -2.5t-10 -2.5q-9 6 -23 6t-29.5 -6t-31.5 -15q-27 -17 -61 -43t-71 -58.5t-74 -69t-71 -75.5t-68 -80.5t-64.5 -84t-57.5 -85.5t-46 -83q-5 -11 -5 -23
q0 -11 4.5 -19.5t12.5 -16.5q17 -10 31 -10q16 0 32 11q8 9 17 19.5t13 20.5q1 3 2 6.5t1 7.5q0 2 -0.5 3t-0.5 2q42 73 92.5 141.5t104.5 129.5q86 95 146.5 146t95.5 73q2 2 8 2h1q-2 -14 -4 -35t-4.5 -45.5t-4 -49.5t-2.5 -47q-47 -8 -96 -19.5t-94 -22.5
q-40 -10 -40 -43q0 -5 0.5 -8.5t1.5 -7.5q3 -14 15.5 -25t30.5 -11q5 0 8 0.5t7 1.5q41 11 81 21.5t84 18.5q-1 -8 -0.5 -16t0.5 -18q0 -20 0.5 -41t1.5 -42t2.5 -40t4.5 -34q9 -45 37.5 -64t73.5 -19h14q44 0 101 11t104 28q36 13 66 29.5t52 42.5q10 17 10 30
q0 11 -4 18.5t-10 14.5q-14 14 -33 14t-34 -17q-30 -31 -79 -46q-54 -18 -97 -26t-82 -8q-11 0 -18 3.5t-9 14.5q-4 21 -5.5 52t-1.5 64v34q0 18 1 34q53 11 109 20t111 17q20 2 40 5t39 6h-1q19 3 29 15.5t10 26.5q0 2 -0.5 4t-0.5 4q-3 16 -13.5 29t-31.5 13h-3l-14 -2
t-15 -2q-28 -4 -61 -8.5t-67 -10t-67.5 -10.5t-62.5 -11q2 38 6 82.5t9 80.5v-1q3 13 16 16q36 5 82 7t92 2q32 0 62 -0.5t54 -2.5h7q23 0 32.5 13.5t9.5 30.5z" />
    <glyph glyph-name="Ccedilla" unicode="&#xc7;" horiz-adv-x="623" 
d="M421 -200q5 7 7 16.5t2 20.5q0 16 -8.5 30t-30.5 22q-5 0 -5 2q0 3 1 8.5t3 11.5q44 2 94.5 8.5t109.5 20.5q19 5 28 17t9 27q0 5 -0.5 8.5t-2.5 9.5v-1q-9 33 -40 33q-6 0 -10 -0.5t-7 -1.5q-60 -16 -108 -22.5t-87 -6.5q-24 0 -46 2t-43 6q-37 6 -56 20t-28 35
q-7 17 -7 45q0 29 7.5 59.5t17.5 59.5q15 43 45 86.5t66 81.5t75 69t73 50q2 -1 7 -1q28 0 46 30h-1q12 18 12 39t-14 35q-10 10 -26 10q-18 0 -37 -11q-45 -24 -94.5 -62t-94.5 -84.5t-82 -99.5t-59 -105q-17 -40 -27 -81.5t-10 -79.5q0 -23 4 -44t13 -40
q18 -44 52.5 -68.5t95.5 -35.5q11 -2 24.5 -3.5t30.5 -2.5q-4 -16 -4 -36q0 -38 35 -47h4q0 -1 -1 -1v-1q-5 -5 -13.5 -9t-20.5 -8q-14 -4 -20.5 -14t-6.5 -21q0 -14 9 -24t26 -10h5q26 3 49.5 17.5t38.5 40.5z" />
    <glyph glyph-name="Egrave" unicode="&#xc8;" horiz-adv-x="642" 
d="M640 35v-1q7 8 8.5 16t1.5 16q0 23 -16 36h1q-7 6 -15 8t-17 2q-8 0 -16.5 -3.5t-17.5 -12.5q-14 -17 -32.5 -27.5t-42.5 -18.5q-57 -20 -117.5 -30t-104.5 -12h-5q-16 0 -23 8q-6 6 -8.5 18t-2.5 27v6q1 34 8 71t20 75q33 5 77 12t88.5 15t83.5 15.5t62 13.5
q20 6 28 19.5t8 27.5q0 2 -0.5 4.5t-0.5 4.5q-3 14 -13 25t-26 11h-4q-1 0 -6 -2l1 1q-23 -6 -54.5 -12t-67 -12t-73 -12.5t-72.5 -12.5q11 38 20.5 75.5t11.5 69.5q0 4 0.5 7.5t0.5 6.5q0 4 -0.5 7.5t-1.5 8.5q48 8 100 12t105 4h33t33 -1h5q20 0 30.5 12.5t11.5 29.5v6
q0 15 -12 28.5t-35 13.5q-16 1 -33 1h-36q-42 0 -90.5 -2t-99 -8.5t-102 -18t-99.5 -30.5q-17 -8 -24.5 -20.5t-7.5 -26.5q0 -17 11 -30.5t30 -13.5q11 0 18 4l-1 -1q14 5 28.5 9t28.5 9q2 1 5.5 1.5t7.5 2.5v-8q0 -4 -0.5 -7.5t-0.5 -6.5q-3 -26 -13.5 -66.5t-25.5 -81.5
q-9 -2 -18 -3t-17 -2q-12 5 -22 5q-22 0 -36 -12h1q-25 -20 -25 -44q1 -17 13.5 -29t35.5 -12h1q5 -1 7 -1h7h12q7 0 13 1q-3 -15 -7 -32.5t-7.5 -35.5t-6 -35t-2.5 -30q0 -34 7.5 -62t20.5 -48v1q30 -46 85 -46h4q30 0 67 4.5t73.5 12t70.5 17t59 18.5q35 12 64.5 29
t49.5 42zM458 655q9 11 9 25q0 16 -15 27h1q-16 14 -33.5 27.5t-34.5 27.5q-12 9 -23.5 18t-23.5 19q-10 8 -21 8q-10 0 -17 -4.5t-12 -11.5q-10 -12 -10 -25q0 -16 15 -27q27 -23 57 -46t59 -44q9 -8 21 -8q9 0 16 4.5t12 9.5z" />
    <glyph glyph-name="Eacute" unicode="&#xc9;" horiz-adv-x="642" 
d="M640 35v-1q7 8 8.5 16t1.5 15q0 24 -16 37h1q-13 10 -32 10q-8 0 -16.5 -3.5t-17.5 -12.5q-14 -17 -32.5 -27.5t-42.5 -18.5q-57 -20 -117.5 -30t-104.5 -12h-5q-16 0 -23 8q-6 6 -8.5 18t-2.5 27v6q2 67 28 146q33 5 77 12t88.5 15t83.5 15.5t62 13.5q20 6 28 19.5
t8 27.5q0 2 -0.5 4.5t-0.5 4.5q-3 14 -13 25t-26 11h-4q-1 0 -6 -2l1 1q-23 -6 -54.5 -12t-67 -12.5t-73 -12.5t-72.5 -12q11 38 20.5 75t11.5 69q0 4 0.5 7.5t0.5 6.5q0 5 -0.5 8.5t-1.5 8.5q48 8 100 11.5t105 3.5h33t33 -1h5q20 0 30.5 12.5t11.5 29.5v6q0 16 -12 29
t-35 13q-16 1 -33 1h-36q-42 0 -90.5 -2t-99 -8t-102 -17.5t-99.5 -30.5q-17 -8 -24.5 -21t-7.5 -26q0 -17 11 -30.5t30 -13.5q11 0 18 4l-1 -1q14 5 28.5 8.5t28.5 8.5q2 1 5.5 1.5t7.5 2.5v-8q0 -3 -0.5 -6.5t-0.5 -6.5q-3 -26 -13.5 -66.5t-25.5 -81.5q-9 -2 -18 -3
t-17 -2q-12 5 -22 5t-20 -3.5t-16 -9.5h1q-25 -19 -25 -44q1 -17 13.5 -29t35.5 -12h1q5 -1 7 -1h7h12q7 0 13 1q-3 -14 -7 -32t-7.5 -36t-6 -34.5t-2.5 -29.5q0 -34 7.5 -62t20.5 -48v1q30 -46 85 -46h4q30 0 67 4.5t73.5 12t70.5 17t59 18.5q35 12 64.5 29t49.5 42z
M524 757v1q-11 18 -30 18q-5 0 -10 -1t-10 -6l1 1q-15 -8 -34 -18t-39 -20.5t-39.5 -20.5t-34.5 -17q-25 -16 -25 -35q0 -9 5 -17q5 -10 12 -16t19 -6q4 0 9.5 2t12.5 4q15 7 35 17.5t41.5 21.5t41 22t32.5 19q19 13 19 30q0 10 -6 21z" />
    <glyph glyph-name="Ecircumflex" unicode="&#xca;" horiz-adv-x="642" 
d="M640 35v-1q7 8 8.5 16t1.5 15q0 24 -16 37h1q-13 10 -32 10q-8 0 -16.5 -3.5t-17.5 -12.5q-14 -17 -32.5 -27.5t-42.5 -18.5q-57 -20 -117.5 -30t-104.5 -12h-5q-16 0 -23 8q-6 6 -8.5 18t-2.5 27v6q2 67 28 146q33 5 77 12t88.5 15t83.5 15.5t62 13.5q20 6 28 19.5
t8 27.5q0 2 -0.5 4.5t-0.5 4.5q-3 14 -13 25t-26 11h-4q-1 0 -6 -2l1 1q-23 -6 -54.5 -12t-67 -12.5t-73 -12.5t-72.5 -12q11 38 20.5 75t11.5 69q0 4 0.5 7.5t0.5 6.5q0 5 -0.5 8.5t-1.5 8.5q48 8 100 11.5t105 3.5h33t33 -1h5q20 0 30.5 12.5t11.5 29.5v6q0 16 -12 29
t-35 13q-16 1 -33 1h-36q-42 0 -90.5 -2t-99 -8t-102 -17.5t-99.5 -30.5q-17 -8 -24.5 -21t-7.5 -26q0 -17 11 -30.5t30 -13.5q11 0 18 4l-1 -1q14 5 28.5 8.5t28.5 8.5q2 1 5.5 1.5t7.5 2.5v-8q0 -3 -0.5 -6.5t-0.5 -6.5q-3 -26 -13.5 -66.5t-25.5 -81.5q-9 -2 -18 -3
t-17 -2q-12 5 -22 5t-20 -3.5t-16 -9.5h1q-25 -19 -25 -44q1 -17 13.5 -29t35.5 -12h1q5 -1 7 -1h7h12q7 0 13 1q-3 -14 -7 -32t-7.5 -36t-6 -34.5t-2.5 -29.5q0 -34 7.5 -62t20.5 -48v1q30 -46 85 -46h4q30 0 67 4.5t73.5 12t70.5 17t59 18.5q35 12 64.5 29t49.5 42z
M498 702h-1q-13 14 -30.5 32t-31.5 32q-14 12 -28 12q-11 0 -26 -10v1q-11 -6 -22 -13.5t-25 -15.5q-13 -8 -26.5 -16.5t-27.5 -16.5q-16 -12 -16 -30q0 -10 6 -19q9 -19 32 -19q11 0 19 5q7 5 14 9t14 9h-1q13 8 26.5 16t24.5 16q5 -5 11 -10t12 -12q6 -5 12.5 -12
t12.5 -12q5 -5 11.5 -6.5t12.5 -1.5q14 0 25 10t11 25q0 6 -1.5 13t-7.5 14z" />
    <glyph glyph-name="Edieresis" unicode="&#xcb;" horiz-adv-x="642" 
d="M640 35v-1q7 8 8.5 16t1.5 15q0 24 -16 37h1q-13 10 -32 10q-17 0 -34 -16q-14 -17 -32.5 -27.5t-42.5 -18.5q-57 -20 -117.5 -30t-104.5 -12h-5q-16 0 -23 8q-6 6 -8.5 18t-2.5 27v6q2 67 28 146q33 5 77 12t88.5 15t83.5 15.5t62 13.5q20 5 28 19t8 28q0 2 -0.5 4
t-0.5 4q-3 15 -13 25.5t-26 10.5h-4q-1 0 -6 -1l1 1q-23 -6 -54.5 -12t-67 -12.5t-73 -12.5t-72.5 -12q11 38 20.5 75t11.5 69q0 4 0.5 7.5t0.5 6.5q0 5 -0.5 8.5t-1.5 8.5q48 8 100 11.5t105 3.5h33t33 -1h5q20 0 30.5 12.5t11.5 29.5v6q0 16 -12 29t-35 13q-16 1 -33 1
h-36q-42 0 -90.5 -2t-99 -8.5t-102 -18t-99.5 -30.5q-17 -7 -24.5 -20t-7.5 -26q0 -17 11 -30.5t30 -13.5q10 0 18 3l-1 -1q14 5 28.5 9t28.5 9q2 1 5.5 1.5t7.5 2.5v-8q0 -4 -0.5 -7.5t-0.5 -6.5q-3 -26 -13.5 -66t-25.5 -81q-9 -2 -18 -3t-17 -2q-12 5 -22 5t-20 -3.5
t-16 -9.5h1q-25 -19 -25 -44q1 -17 13.5 -29t35.5 -12h1q5 -1 7 -1h7h12q7 0 13 1q-3 -14 -7 -32t-7.5 -36t-6 -34.5t-2.5 -29.5q0 -35 7.5 -62.5t20.5 -47.5v1q30 -46 85 -46h4q30 0 67 4.5t73.5 12t70.5 17t59 18.5q35 12 64.5 29t49.5 42zM356 699q0 25 -16 41.5
t-40 16.5t-39 -16.5t-15 -41.5q0 -24 15.5 -39.5t39.5 -15.5q22 0 38.5 16.5t16.5 38.5zM518 699q0 25 -17 41.5t-39 16.5q-24 0 -39 -16.5t-15 -41.5q0 -24 15.5 -39.5t39.5 -15.5q23 1 38.5 16t16.5 39z" />
    <glyph glyph-name="Igrave" unicode="&#xcc;" 
d="M516 521q0 18 -12 31.5t-34 13.5h-54h-65t-60 1q-11 18 -33 18q-9 0 -18.5 -4t-14.5 -12h-73q-21 0 -40 -1t-31 -4q-23 -4 -33.5 -17.5t-10.5 -27.5v-1q0 -18 12 -31t32 -17q8 -2 18 -2q8 0 17.5 2t16.5 7q11 1 21 1h23h18q10 0 19 -1v-26q0 -69 -3.5 -145.5t-7.5 -154.5
q-2 -22 -2.5 -43t-2.5 -42q-14 -1 -25 -1.5t-21 -0.5h-52q-23 0 -35.5 -14t-12.5 -30q0 -17 12 -31t35 -15q8 -1 16 -1h17h22q12 0 25 1q6 0 12.5 0.5t13.5 0.5q6 -8 15 -12t17 -4q20 0 33 16q42 2 77 2.5t61 0.5q22 0 34 13.5t12 30.5v2q0 17 -10.5 30t-33.5 13h-62h-31
t-29 -1q2 24 3 48.5t3 50.5q5 69 9 139t4 133v39q16 -2 35 -2h40h47q12 0 23.5 0.5t20.5 1.5q22 2 32.5 15t10.5 30zM328 637q9 9 9 24q0 17 -14 27h1q-17 14 -34.5 27.5t-34.5 27.5q-11 9 -22.5 18t-23.5 19q-8 8 -21 8q-9 0 -16.5 -4.5t-12.5 -11.5q-9 -11 -9 -25
q0 -16 14 -26q27 -23 57 -46.5t58 -44.5q5 -5 10.5 -6.5t10.5 -1.5q9 0 16 4.5t12 10.5z" />
    <glyph glyph-name="Iacute" unicode="&#xcd;" 
d="M516 521q0 18 -12 31.5t-34 13.5h-54h-65t-60 1q-11 18 -33 18q-9 0 -18.5 -4t-14.5 -12h-73q-21 0 -40 -1t-31 -4q-23 -4 -33.5 -17.5t-10.5 -27.5v-2q0 -17 12 -30t32 -17q8 -2 18 -2q8 0 17.5 2t16.5 7q11 1 21 1h23h18q10 0 19 -1v-26q0 -69 -3.5 -145.5t-7.5 -154.5
q-2 -22 -2.5 -43t-2.5 -42q-14 -1 -25 -1.5t-21 -0.5h-52q-23 0 -35.5 -14t-12.5 -30q0 -17 12 -31t35 -15q8 -1 16 -1h17h22q12 0 25 1q6 0 12.5 0.5t13.5 0.5q6 -8 15 -12t17 -4q20 0 33 16q42 2 77 2.5t61 0.5q22 0 34 13.5t12 30.5v2q0 17 -10.5 30t-33.5 13h-62h-31
t-29 -1q2 24 3 48.5t3 50.5q5 69 9 139t4 133v39q16 -2 35 -2h40h47q12 0 23.5 0.5t20.5 1.5q22 2 32.5 15t10.5 30zM415 766v1q-11 19 -30 19q-12 0 -19 -6q-15 -8 -34 -18t-38.5 -20.5t-39 -20.5t-34.5 -17q-24 -15 -24 -35q0 -9 5 -17q4 -9 11 -15.5t19 -6.5q4 0 9.5 2
t11.5 4q15 7 35.5 17.5t41.5 21.5t40.5 22t32.5 19q18 12 18 30q0 5 -1 10t-4 10z" />
    <glyph glyph-name="Icircumflex" unicode="&#xce;" 
d="M516 521q0 18 -12 31.5t-34 13.5h-54h-65t-60 1q-11 18 -33 18q-9 0 -18.5 -4t-14.5 -12h-73q-21 0 -40 -1t-31 -4q-23 -5 -33.5 -18t-10.5 -27v-2q0 -17 12 -30.5t32 -17.5q8 -2 18 -2q8 0 17.5 2.5t16.5 7.5q11 1 21 1h23h18q10 0 19 -1v-26q0 -69 -3.5 -145.5
t-7.5 -154.5q-2 -22 -2.5 -43t-2.5 -42q-14 -1 -25 -1.5t-21 -0.5h-52q-23 0 -35.5 -14t-12.5 -30q0 -17 12 -31t35 -15q8 -1 16 -1h17h22q12 0 25 1q6 0 12.5 0.5t13.5 0.5q6 -8 15 -12t17 -4q20 0 33 16q42 2 77 2.5t61 0.5q22 0 34 13.5t12 30.5v2q0 17 -10.5 30
t-33.5 13h-62h-31t-29 -1q2 24 3 48.5t3 50.5q5 69 9 139t4 133v38q16 -2 35 -2h40h47q12 0 23.5 0.5t20.5 1.5q22 3 32.5 16t10.5 30zM372 693h-1q-13 14 -30.5 32t-31.5 32q-14 12 -28 12q-6 0 -12 -2.5t-14 -7.5v1q-10 -6 -21 -13.5t-25 -15.5q-13 -8 -26.5 -16.5
t-26.5 -16.5q-17 -11 -17 -30q0 -10 6 -19q11 -19 32 -19q11 0 19 5q6 5 13.5 9t14.5 9h-1q13 8 26.5 16t24.5 16q5 -5 10.5 -10t12.5 -11q5 -6 11.5 -13t12.5 -12q5 -5 11.5 -6.5t12.5 -1.5q14 0 25 10t11 26q0 5 -2 12t-7 14z" />
    <glyph glyph-name="Idieresis" unicode="&#xcf;" 
d="M516 521q0 17 -12 31t-34 14h-54h-65t-60 1q-11 17 -33 17q-9 0 -18.5 -3.5t-14.5 -11.5h-73q-21 0 -40 -1t-31 -4q-23 -5 -33.5 -18t-10.5 -27v-2q0 -18 12 -31t32 -17q8 -2 18 -2q8 0 17.5 2.5t16.5 7.5q11 1 21 1h23h18q10 0 19 -1v-26q0 -69 -3.5 -145.5t-7.5 -154.5
q-2 -22 -2.5 -43t-2.5 -42q-14 -1 -25 -1.5t-21 -0.5h-52q-23 0 -35.5 -14t-12.5 -30q0 -17 12 -31t35 -15q8 -1 16 -1h17h22q12 0 25 1q6 0 12.5 0.5t13.5 0.5q6 -8 15 -12t17 -4q20 0 33 16q42 2 77 2.5t61 0.5q22 0 34 13.5t12 30.5v2q0 17 -10.5 30t-33.5 13h-62h-31
t-29 -1q2 24 3 48.5t3 50.5q5 69 9 139t4 133v38q16 -2 35 -2h40h47q12 0 23.5 0.5t20.5 1.5q22 3 32.5 15.5t10.5 30.5zM238 690q0 25 -16 41.5t-40 16.5q-23 0 -37.5 -16.5t-15.5 -41.5q0 -24 15.5 -39.5t38.5 -15.5q22 0 38.5 16.5t16.5 38.5zM399 690q0 25 -17 41.5
t-38 16.5q-24 0 -39 -16.5t-15 -41.5q0 -24 15.5 -39.5t39.5 -15.5q22 1 37.5 16t16.5 39z" />
    <glyph glyph-name="Eth" unicode="&#xd0;" horiz-adv-x="654" 
d="M329 284v2q0 14 -8.5 25t-25.5 11h-6q-7 -1 -16 -1.5t-20 -0.5h-18q-9 0 -19 1q1 24 3 49t5 51q2 29 5.5 59t6.5 59q9 -5 18 -10.5t19 -10.5q30 -17 61 -34.5t60.5 -34.5t54.5 -32t43 -27q42 -28 63 -53.5t21 -51.5q0 -19 -16 -45.5t-40 -53.5t-52 -52.5t-52 -42.5
q-42 -30 -95.5 -59.5t-115.5 -62.5q-14 -7 -20 -18.5t-6 -23.5q0 -10 5 -20q7 -11 18 -19t22 -8q14 0 25 7q60 32 114.5 62t105.5 66q34 24 70.5 57t66.5 69t49 72.5t19 67.5v2q0 99 -133 185q-26 17 -69.5 42.5t-97 55.5t-112.5 62t-117 63q-8 4 -15 5t-13 1q-24 0 -38 -17
q-12 -11 -12 -28q0 -7 2 -14t8 -14l-1 2q15 -27 44 -27q6 -3 13 -6l14 -6q-3 -31 -5.5 -63t-5.5 -64q-4 -35 -7.5 -68.5t-6.5 -66.5h-14q-18 0 -33 -0.5t-24 -2.5q-17 -4 -28.5 -15.5t-15.5 -28.5q0 -2 -0.5 -4t-0.5 -4q0 -17 14 -31v1q10 -10 26 -10q10 0 18 5h-1
q2 1 4.5 2.5t4.5 3.5q5 5 11 5q4 1 10 1h16h7q-6 -61 -9.5 -106t-3.5 -65q0 -24 8 -42.5t14 -30.5q8 -17 20.5 -23t25.5 -6q7 0 25 6q9 4 15 12.5t6 20.5q0 7 -4 15l-2.5 6.5t-4.5 10.5q-5 8 -8 16.5t-3 15.5q0 16 3.5 60.5t9.5 107.5q7 -1 14 -1h16q34 0 55 3q19 3 27.5 14
t8.5 23zM213 30l-1 1q0 -1 0.5 -1.5l0.5 -0.5v1z" />
    <glyph glyph-name="Ntilde" unicode="&#xd1;" horiz-adv-x="656" 
d="M627 459q-5 17 -17.5 25.5t-26.5 8.5q-4 0 -7.5 -0.5t-8.5 -2.5q-14 -6 -24 -18t-12 -31v-4q0 -22 15 -33q1 -8 1.5 -17t0.5 -19q0 -31 -3.5 -66.5t-9 -68.5t-11.5 -60.5t-12 -42.5q-6 -14 -15.5 -30t-26.5 -17h-2q-10 0 -20.5 5.5t-25.5 19.5q-30 30 -58.5 69.5
t-54 82.5t-46.5 84.5t-36 75.5q2 10 2 15q0 30 -27 38q-1 3 -2.5 6t-0.5 1l-1 2l-0.5 1.5t-4 5.5t-10.5 15q-9 10 -27 10q-13 0 -22 -5q-10 -5 -17.5 -15.5t-7.5 -25.5q0 -2 0.5 -4.5t0.5 -4.5q2 -10 7.5 -22t10.5 -23l2 -4q-5 -33 -10 -77.5t-9 -92t-7 -94.5t-3 -87
q0 -38 3 -65q2 -31 19 -52.5t51 -25.5h6q20 0 32.5 14t12.5 31q0 11 -6 20.5t-20 14.5q-4 1 -6 16q-1 2 -1 6q-1 8 -1 16v18q0 41 4 96t9 112q35 -65 73 -120t79 -97q29 -33 58 -47t55 -14q44 0 78.5 31.5t51.5 82.5h-1q8 24 15 56t12 66.5t8 70.5t3 69q0 30 -2 56t-7 45z
M522 594h-1q2 5 2 6v4q0 11 -7 20.5t-18 13.5q-8 2 -12 2q-11 0 -20.5 -6t-14.5 -20q-5 -12 -8 -12q-8 0 -32 18q-36 27 -72 27q-24 0 -49 -15.5t-42 -50.5q-4 -5 -5 -9.5t-1 -9.5q0 -11 6 -19t13 -11h-1q10 -5 21 -5q9 0 17.5 4.5t13.5 14.5q16 26 30 26q11 0 26 -12
q38 -34 79 -34h2q24 0 43.5 15t29.5 53z" />
    <glyph glyph-name="Ograve" unicode="&#xd2;" horiz-adv-x="787" 
d="M793 200q0 79 -80 141q-35 26 -74.5 50.5t-81.5 45.5q-39 19 -72.5 26t-62.5 7q-25 0 -47 -3q-1 0 -1 -1h-1v2q0 15 -12.5 27.5t-26.5 17.5q-6 2 -10.5 2.5t-7.5 0.5q-19 0 -31 -12t-16 -31q-39 -26 -73 -67.5t-59.5 -88.5t-40.5 -94.5t-15 -86.5q0 -94 53 -144
q28 -26 67.5 -39t88.5 -13q40 0 87 9t98 29q21 8 44 16l46 16t46 15.5t46 16.5q69 27 102 67t34 91zM697 198q0 -20 -17.5 -37.5t-59.5 -35.5q-32 -14 -67.5 -26t-70.5 -24q-10 -4 -19.5 -7t-18.5 -6q-52 -17 -92 -25.5t-72 -8.5q-26 0 -44.5 6.5t-31.5 17.5q-15 13 -22 35
t-9 49q0 22 11 55.5t29.5 69.5t42 69.5t48.5 54.5q6 -6 15 -8.5t19 -2.5q11 0 16 1q12 2 23.5 3t24.5 1q27 0 57 -6t59 -20h-1q38 -20 72.5 -40.5t61.5 -43.5v1q46 -42 46 -72zM447 558q9 9 9 24q0 16 -14 27h1q-17 14 -34.5 27.5t-34.5 27.5q-12 8 -24 17.5t-23 19.5
q-10 8 -22 8q-9 0 -16.5 -4.5t-12.5 -11.5q-9 -11 -9 -25q0 -8 3 -14.5t11 -12.5q27 -23 57.5 -46t59.5 -44q9 -8 21 -8q9 0 16 4.5t12 10.5z" />
    <glyph glyph-name="Oacute" unicode="&#xd3;" horiz-adv-x="787" 
d="M793 200q0 79 -80 141q-35 26 -74.5 51t-81.5 45q-39 19 -72.5 26t-62.5 7q-25 0 -47 -3q-1 0 -1 -1h-1v2q0 16 -12.5 28t-26.5 17q-6 2 -10.5 2.5t-7.5 0.5q-19 0 -31 -12t-16 -31q-39 -26 -73 -67.5t-59.5 -88.5t-40.5 -94.5t-15 -85.5q0 -95 53 -145q28 -26 67.5 -39
t88.5 -13q40 0 87 9t98 29q21 8 44 16l46 16t46 15.5t46 16.5q69 27 102 67t34 91zM697 198q0 -20 -17.5 -37.5t-59.5 -35.5q-32 -14 -67.5 -26t-70.5 -24q-10 -4 -19.5 -7t-18.5 -6q-52 -17 -92 -25.5t-72 -8.5q-26 0 -44.5 6.5t-31.5 17.5q-15 13 -22 35t-9 50q0 21 11 55
t29.5 70t42 69t48.5 54q6 -6 15 -8.5t19 -2.5q11 0 16 1q12 2 23.5 3t24.5 1q27 0 57 -5.5t59 -20.5h-1q38 -20 72.5 -40.5t61.5 -43.5v1q46 -42 46 -72zM537 705v1q-11 19 -30 19q-5 0 -10.5 -1t-10.5 -6l1 1q-15 -8 -34 -18t-39 -20.5t-39.5 -20.5t-35.5 -17
q-24 -16 -24 -35q0 -9 5 -17q5 -10 12 -16t19 -6q7 0 22 5q15 7 35 17.5t41.5 22t41 22t33.5 18.5q19 13 19 31q0 9 -6 20z" />
    <glyph glyph-name="Ocircumflex" unicode="&#xd4;" horiz-adv-x="787" 
d="M793 200q0 79 -80 141q-35 26 -74.5 50.5t-81.5 44.5q-39 20 -72.5 26.5t-62.5 6.5h-24t-23 -2q-1 0 -1 -1h-1v2q0 15 -12.5 27t-26.5 17q-6 2 -10.5 2.5t-7.5 0.5q-19 0 -31 -11.5t-16 -31.5q-39 -26 -73 -67t-59.5 -88t-40.5 -94.5t-15 -86.5q0 -94 53 -144
q28 -26 67.5 -39t88.5 -13q40 0 87 9t98 29q21 8 44 16l46 16t46 15.5t46 16.5q69 27 102 67t34 91zM697 198q0 -20 -17.5 -37.5t-59.5 -35.5q-32 -14 -67.5 -26t-70.5 -24q-10 -4 -19.5 -7t-18.5 -6q-52 -17 -92 -25.5t-72 -8.5q-26 0 -44.5 6.5t-31.5 17.5q-15 13 -22 35
t-9 49q0 22 11 55.5t29.5 69.5t42 69.5t48.5 54.5q6 -6 15 -8.5t19 -2.5q11 0 16 1q12 2 23.5 3t24.5 1q27 0 57 -6t59 -20h-1q38 -20 72.5 -40.5t61.5 -43.5v1q46 -42 46 -72zM544 614h-1q-13 14 -30.5 32t-31.5 32q-14 12 -29 12q-6 0 -12 -2.5t-14 -7.5v1
q-11 -6 -22 -13.5t-25 -15.5q-13 -8 -27 -16.5t-27 -16.5q-17 -11 -17 -30q0 -10 6 -19q11 -19 32 -19q12 0 20 5q6 5 13.5 9t14.5 9h-1q13 8 27 16t25 16q5 -5 10.5 -10t12.5 -12q6 -5 12 -12t12 -12t12.5 -6.5t11.5 -1.5q15 0 26 10t11 25q0 6 -1.5 13t-7.5 14z" />
    <glyph glyph-name="Otilde" unicode="&#xd5;" horiz-adv-x="787" 
d="M793 200q0 79 -80 141q-35 26 -74.5 50.5t-81.5 44.5q-39 19 -72.5 26t-62.5 7q-25 0 -47 -3q-1 0 -1 -1h-1v2q0 16 -12.5 28t-26.5 17q-6 2 -10.5 2.5t-7.5 0.5q-19 0 -31 -12t-16 -31q-39 -26 -73 -67.5t-59.5 -88.5t-40.5 -94.5t-15 -85.5q0 -94 53 -144
q28 -26 67.5 -39t88.5 -13q40 0 87 9t98 29q21 8 44 16l46 16t46 15.5t46 16.5q69 27 102 67t34 91zM697 198q0 -20 -17.5 -37.5t-59.5 -35.5q-32 -14 -67.5 -26t-70.5 -24q-10 -4 -19.5 -7t-18.5 -6q-52 -17 -92 -25.5t-72 -8.5q-26 0 -44.5 6.5t-31.5 17.5q-15 13 -22 35
t-9 49q0 22 11 55.5t29.5 69.5t42 69t48.5 54q6 -5 15 -7.5t19 -2.5q11 0 16 1q12 2 23.5 3t24.5 1q27 0 57 -6t59 -21h-1q38 -20 72.5 -40t61.5 -43v1q46 -43 46 -72zM538 611h-1q2 5 2 7v4q0 11 -6.5 20t-17.5 13q-4 1 -7.5 2t-5.5 1q-11 0 -20.5 -6t-14.5 -20
q-5 -13 -8 -13q-6 0 -33 18q-37 28 -72 28q-25 0 -50 -16t-42 -51q-4 -5 -5 -9.5t-1 -9.5q0 -11 6 -18.5t13 -10.5h-1q9 -6 21 -6q19 0 32 19q16 27 30 27q12 0 26 -13q40 -34 80 -34h2q24 0 43.5 15.5t29.5 52.5z" />
    <glyph glyph-name="Odieresis" unicode="&#xd6;" horiz-adv-x="787" 
d="M793 200q0 79 -80 141q-35 26 -74.5 50.5t-81.5 44.5q-39 19 -72.5 26t-62.5 7q-25 0 -47 -3q-1 0 -1 -1h-1v2q0 16 -12.5 28t-26.5 17q-6 2 -10.5 2.5t-7.5 0.5q-19 0 -31 -12t-16 -31q-39 -26 -73 -67t-59.5 -88t-40.5 -94.5t-15 -86.5q0 -94 53 -144q28 -26 67.5 -39
t88.5 -13q40 0 87 9t98 29q21 8 44 16l46 16t46 15.5t46 16.5q69 27 102 67t34 91zM697 198q0 -20 -17.5 -37.5t-59.5 -35.5q-32 -14 -67.5 -26t-70.5 -24q-10 -4 -19.5 -7t-18.5 -6q-52 -17 -92 -25.5t-72 -8.5q-26 0 -44.5 6.5t-31.5 17.5q-15 13 -22 35t-9 49
q0 22 11 55.5t29.5 69.5t42 69.5t48.5 54.5q6 -6 15 -8.5t19 -2.5q11 0 16 1q12 2 23.5 3t24.5 1q27 0 57 -6t59 -21h-1q38 -20 72.5 -40t61.5 -43v1q46 -43 46 -72zM574 615q0 24 -17 41t-40 17q-24 0 -39 -17t-15 -41t15.5 -39.5t39.5 -15.5q23 1 39 16t17 39zM410 615
q0 24 -16 41t-40 17t-38.5 -17t-15.5 -41q0 -24 15.5 -39.5t39.5 -15.5q22 0 38.5 16.5t16.5 38.5z" />
    <glyph glyph-name="multiply" unicode="&#xd7;" horiz-adv-x="368" 
d="M298 186q12 10 12 26t-12 25q-11 9 -27 28t-33 40q15 14 28.5 27t23.5 24q12 12 12 26q0 8 -3 14t-8 11q-6 5 -12 8.5t-14 3.5q-15 0 -25 -12q-9 -11 -21.5 -22t-26.5 -23q-13 14 -24.5 25t-20.5 19h1q-7 6 -16 8.5t-17 2.5q-16 0 -26 -7q-20 -11 -20 -30v-4
q1 -12 7 -21.5t19 -11.5l-1 1l9 -3q3 -2 6 -2.5t5 -2.5q3 -3 7.5 -8.5t10.5 -12.5q-42 -36 -62 -59q-5 -8 -8 -16t-3 -17q0 -15 9 -27v1q12 -19 33 -19q24 0 32 24l5 14q2 6 3 7q2 2 7.5 7t13.5 12q5 4 9.5 8t10.5 9q20 -23 37 -43t28 -30q7 -6 14 -8t13 -2q15 0 24 10z" />
    <glyph glyph-name="Oslash" unicode="&#xd8;" horiz-adv-x="787" 
d="M679 532q1 5 1 9v10q0 18 -5.5 30.5t-18.5 14.5l1 -1q-5 2 -8 2h-5q-12 0 -21.5 -6t-18.5 -22q-8 -12 -10.5 -27t-2.5 -33q-10 -16 -21.5 -33t-23.5 -34q-36 17 -67.5 22.5t-58.5 5.5q-11 0 -22.5 -1t-21.5 -2q-2 0 -3 -1v2q0 16 -12.5 28t-26.5 17q-6 2 -10.5 2.5
t-7.5 0.5q-19 0 -31 -12t-16 -31q-39 -26 -73 -67.5t-59.5 -88.5t-40.5 -94.5t-15 -85.5q0 -96 53 -146q19 -16 40 -27q-49 -72 -54 -110v-7q0 -31 29 -37l-1 1q4 -2 8.5 -3t7.5 -1q11 0 18 6t12 21q5 17 21.5 45t42.5 63q8 -1 16 -1h17q40 0 86 8.5t98 28.5q21 8 44 16
l46 16t46 15.5t46 16.5q69 27 102 67t34 91q0 79 -80 141q-23 18 -48.5 34.5t-51.5 31.5q28 41 45 72.5t21 52.5zM204 52v1q-15 13 -22 35t-9 49q0 21 11 55t29.5 70t42 69t48.5 54q6 -6 15 -8t19 -2h15q12 2 24 3t25 1q20 0 41.5 -3t44.5 -11q-35 -49 -75 -98t-78 -97
q-29 -35 -55.5 -68.5t-50.5 -65.5q-16 6 -25 16zM697 198q0 -20 -17.5 -37.5t-59.5 -35.5q-32 -14 -67.5 -26t-70.5 -24q-10 -4 -19.5 -6.5t-18.5 -5.5q-35 -11 -64 -18.5t-53 -11.5q20 26 42 54t45 57q38 48 75.5 95.5t69.5 92.5q26 -14 49 -30t43 -33v1q46 -42 46 -72z
" />
    <glyph glyph-name="Ugrave" unicode="&#xd9;" horiz-adv-x="667" 
d="M630 612v1q-6 20 -17.5 28.5t-26.5 8.5q-28 0 -44 -26l1 1q-5 -6 -6 -12t-1 -13q0 -9 1 -16t3 -16q2 -8 3 -16.5t3 -20.5q3 -23 5 -50t2 -56q0 -41 -4 -85.5t-13.5 -87.5t-24.5 -83t-37 -72q-38 -53 -83.5 -84.5t-86.5 -31.5q-15 0 -29 5t-25 17q-30 28 -46 97
q-9 45 -9 93q0 51 7.5 104t16.5 99q6 33 10 60.5t4 49.5q0 23 -14.5 36t-32.5 13h-2q-15 0 -29 -12.5t-14 -34.5q0 -12 -4 -32.5t-9 -47.5q-8 -47 -17.5 -106t-9.5 -125q0 -29 2.5 -58t8.5 -56q21 -104 74 -151q49 -45 114 -45q21 0 44 4t46 15q45 20 86 56.5t72 81.5
q30 42 49 90.5t30 98.5t15 100.5t4 95.5q0 64 -5.5 113t-10.5 70zM438 640q9 11 9 24q0 17 -15 28h1q-16 14 -33.5 27.5t-34.5 27.5q-12 8 -23.5 17.5t-23.5 19.5q-8 8 -21 8q-9 0 -16.5 -4.5t-12.5 -11.5q-9 -11 -9 -26q0 -7 3 -13.5t11 -12.5q27 -23 57 -46.5t59 -44.5
q8 -8 21 -8q9 0 16 4.5t12 10.5z" />
    <glyph glyph-name="Uacute" unicode="&#xda;" horiz-adv-x="667" 
d="M630 612v1q-6 20 -17.5 28.5t-26.5 8.5q-28 0 -44 -26l1 1q-5 -6 -6 -12.5t-1 -12.5q0 -9 1 -16t3 -16q2 -8 3 -16.5t3 -20.5q3 -23 5 -50t2 -56q0 -41 -4 -85.5t-13.5 -87.5t-24.5 -83t-37 -72q-38 -53 -83.5 -84.5t-86.5 -31.5q-15 0 -29 5t-25 17q-30 28 -46 97
q-9 45 -9 93q0 51 7.5 104t16.5 99q6 33 10 60.5t4 49.5q0 23 -14.5 36t-32.5 13h-2q-15 0 -29 -12.5t-14 -34.5q0 -12 -4 -32.5t-9 -48.5q-8 -46 -17.5 -105t-9.5 -125q0 -29 2.5 -58t8.5 -56q21 -104 74 -151q49 -45 114 -45q21 0 44 4t46 15q45 20 86 56.5t72 81.5
q30 42 49 90.5t30 98.5t15 100t4 95q0 65 -5.5 114t-10.5 70zM498 762v1q-11 19 -30 19q-13 0 -19 -6q-15 -8 -34 -18t-39 -20.5t-39.5 -20.5t-34.5 -18q-12 -7 -18 -16.5t-6 -18.5t5 -16q4 -10 11 -16.5t19 -6.5q4 0 9.5 2t12.5 4q15 7 35 17.5t41.5 21.5t41 22t32.5 19
q19 13 19 30q0 10 -6 21z" />
    <glyph glyph-name="Ucircumflex" unicode="&#xdb;" horiz-adv-x="667" 
d="M630 612v1q-6 20 -17.5 28.5t-26.5 8.5q-28 0 -44 -26l1 1q-5 -6 -6 -12.5t-1 -12.5q0 -9 1 -16t3 -16q2 -8 3 -16.5t3 -20.5q3 -23 5 -50t2 -56q0 -41 -4 -85.5t-13.5 -87.5t-24.5 -83t-37 -72q-38 -53 -83.5 -84.5t-86.5 -31.5q-15 0 -29 5t-25 17q-30 28 -46 97
q-9 45 -9 93q0 51 7.5 104t16.5 99q6 33 10 60.5t4 49.5q0 23 -14.5 36t-32.5 13h-2q-15 0 -29 -12.5t-14 -34.5q0 -12 -4 -32.5t-9 -47.5q-8 -47 -17.5 -106t-9.5 -125q0 -29 2.5 -58t8.5 -56q21 -104 74 -151q49 -45 114 -45q21 0 44 4t46 15q45 20 86 56.5t72 81.5
q30 42 49 90.5t30 98.5t15 100t4 95q0 65 -5.5 114t-10.5 70zM481 710h-1q-12 14 -29.5 32.5t-31.5 32.5q-14 12 -28 12q-11 0 -26 -10v1q-11 -6 -22 -14t-25 -16q-13 -8 -26.5 -16.5t-27.5 -16.5q-16 -12 -16 -29q0 -11 6 -20q9 -18 32 -18q11 0 19 5q6 4 13.5 8t14.5 9h-1
q13 8 26.5 16.5t24.5 15.5q5 -4 10.5 -9t12.5 -12q6 -6 12 -13t12 -12t12.5 -6t11.5 -1q15 0 26 9.5t11 25.5q0 6 -2 12.5t-8 13.5z" />
    <glyph glyph-name="Udieresis" unicode="&#xdc;" horiz-adv-x="667" 
d="M630 612v1q-12 36 -44 36q-28 0 -44 -26l1 1q-5 -5 -6 -11.5t-1 -13.5q0 -9 1 -15.5t3 -15.5q2 -8 3 -17t3 -20q3 -23 5 -50.5t2 -56.5q0 -41 -4 -85t-13.5 -87t-24.5 -83t-37 -72q-38 -53 -83.5 -84.5t-86.5 -31.5q-15 0 -29 5t-25 17q-30 28 -46 97q-9 45 -9 93
q0 51 7.5 103.5t16.5 99.5q6 33 10 60.5t4 48.5q0 23 -14.5 36t-32.5 13h-2q-15 0 -29 -12t-14 -35q0 -11 -4 -32t-9 -48q-8 -47 -17.5 -106t-9.5 -125q0 -29 2.5 -57.5t8.5 -55.5q21 -104 74 -151q49 -45 114 -45q21 0 44 4t46 15q45 21 86 57t72 81q30 42 49 90t30 98.5
t15 100.5t4 95q0 64 -5.5 113t-10.5 71zM357 688q0 24 -16 41t-40 17t-38.5 -17t-15.5 -41q0 -24 15.5 -40t39.5 -16q22 0 38.5 17t16.5 39zM519 688q0 24 -17 41t-39 17q-24 0 -39 -17t-15 -41t15.5 -40t39.5 -16q23 1 38.5 16.5t16.5 39.5z" />
    <glyph glyph-name="Yacute" unicode="&#xdd;" horiz-adv-x="516" 
d="M644 553q8 9 10.5 16t2.5 15q0 18 -14.5 31t-33.5 13t-37 -15q-47 -57 -93 -126q-45 -66 -84.5 -133t-69.5 -118q-8 -14 -14.5 -26t-13.5 -23q-23 42 -47 90.5t-45.5 95t-39 87.5t-27.5 68q-5 16 -15.5 23t-22.5 7q-18 0 -34 -12.5t-16 -29.5q0 -6 3 -12h-1
q9 -28 29.5 -77.5t47 -107.5t57 -118t58.5 -109q-23 -40 -47 -82t-47 -78q-10 -13 -10 -27q0 -11 6 -19t15 -15q5 -5 12 -7t15 -2t18 4t19 15q9 12 22 33.5t27 45.5t27 46t21 36q13 5 21.5 16t8.5 26q0 6 -1 11q24 43 47 83.5t47.5 81.5t51.5 84.5t59 92.5q20 31 42.5 60.5
t45.5 55.5zM458 753v1q-11 19 -30 19q-13 0 -19 -6q-15 -8 -34 -18t-39 -20.5t-39.5 -20.5t-35.5 -17q-24 -16 -24 -35q0 -9 5 -17q5 -10 12 -16.5t19 -6.5q4 0 9.5 2t11.5 4q15 7 35.5 17.5t42 22t41 22.5t32.5 19q19 11 19 30q0 11 -6 20z" />
    <glyph glyph-name="Thorn" unicode="&#xde;" horiz-adv-x="641" 
d="M385 806q4 7 4 16q0 13 -7.5 23.5t-18.5 15.5l1 -1q-15 10 -28 10q-23 0 -35 -26q-36 -78 -66 -160t-51.5 -168t-33.5 -177.5t-12 -188.5q0 -52 4 -106.5t13 -114.5q5 -20 16.5 -27.5t26.5 -7.5q10 0 13 1q16 3 25.5 13.5t9.5 25.5v4t-2 7l1 -1q-9 44 -12.5 90t-3.5 93
q0 50 3.5 98t9.5 91q1 17 4 40t6.5 46t7.5 42.5t7 29.5q14 -2 27.5 -5t27.5 -5q38 -8 72.5 -14.5t64.5 -15.5q62 -16 62 -41v-2q0 -18 -35 -33q-19 -10 -44.5 -22.5t-54 -26.5t-58.5 -28.5t-60 -27.5q-14 -7 -20.5 -17.5t-6.5 -21.5t5 -21q5 -12 15.5 -20t24.5 -8q11 0 20 5
q29 12 61 28t64 31q29 14 54 26.5t45 20.5q49 25 72.5 55.5t23.5 62.5v2q-1 39 -35.5 73t-108.5 55q-29 8 -61 14.5t-67 13.5q-33 6 -63 12q22 75 47.5 138.5t45.5 103.5z" />
    <glyph glyph-name="germandbls" unicode="&#xdf;" horiz-adv-x="524" 
d="M477 71v1q20 40 20 80q0 32 -14.5 57.5t-46.5 41.5q-26 13 -69 13h-1q31 32 58.5 69t46.5 66q29 50 29 93t-25 72q-15 15 -35 23.5t-47 8.5h-12q-24 -1 -54.5 -7.5t-63.5 -22.5q-72 -36 -110 -107.5t-49 -191.5q-9 -89 -9 -180q0 -72 6 -134t19 -100q8 -22 21 -31.5
t29 -9.5q11 0 21 5.5t18 13.5q4 7 6.5 15t2.5 16q0 11 -4 21t-13 18q-7 25 -10 77t-3 115q0 42 1.5 85t4.5 82q11 87 34.5 144t70.5 80q23 9 41 14t34 6q19 0 27 -9q5 -7 5 -13q0 -13 -13 -36q-14 -23 -32.5 -48.5t-39.5 -49.5t-41.5 -45.5t-36.5 -36.5q-17 -16 -17 -40
q0 -17 7 -28v1q12 -28 41 -28h4t7 2l-1 -1q25 6 54 6q28 0 46 -6h-1q21 -10 21 -29q0 -10 -8 -29q-20 -39 -52 -61.5t-80 -44.5q-29 -15 -29 -41q0 -11 4 -19q5 -11 15.5 -20t24.5 -9q11 0 18 4h-1q22 8 47 20.5t49.5 30.5t46.5 42t38 55z" />
    <glyph glyph-name="agrave" unicode="&#xe0;" horiz-adv-x="594" 
d="M663 97v1q-14 15 -33 15q-6 0 -11 -1.5t-11 -3.5q-11 -6 -26.5 -12.5t-32 -12t-32.5 -9.5t-28 -6h-4q-11 0 -18 5t-12 19q-3 8 -4 19t-1 25v15q0 26 -13 38.5t-33 12.5q-22 0 -50 -17v1q-16 -10 -36.5 -25.5t-42 -33t-42 -35.5t-36.5 -31q-3 -2 -6 -4.5t-6 -5.5
q-11 -8 -17 -8q-2 0 -2 2q-1 1 -1 8t1.5 15t4.5 13q10 22 27.5 45.5t38 45.5t41.5 40t39 30q37 27 66 27q9 0 17.5 -2t15.5 -9q13 -9 28 -9q14 0 25.5 6.5t18.5 17.5q6 10 6 24q0 8 -4 17t-14 17q-21 18 -41.5 25t-40.5 7q-37 0 -70 -17.5t-57 -32.5q-21 -14 -45.5 -34.5
t-48.5 -45t-45.5 -53.5t-36.5 -59q-21 -41 -23 -86q0 -50 28 -75q11 -8 24 -13.5t29 -5.5q36 0 80 32q12 9 24.5 20.5t26.5 22.5q22 19 41.5 35.5t32.5 25.5q2 2 6 2q0 -15 6 -34t13 -29v1q16 -23 35.5 -33.5t52.5 -10.5h12t14 1q37 4 80 19.5t77 33.5q23 15 23 42
q0 13 -10 28zM455 420q9 9 9 24q0 16 -15 27h1q-16 14 -33.5 27t-35.5 27q-11 9 -23 18.5t-23 18.5q-10 8 -21 8q-10 0 -17.5 -4.5t-11.5 -11.5q-10 -10 -10 -25t14 -26q27 -23 57.5 -46t59.5 -44q8 -8 21 -8q9 0 16 4.5t12 10.5z" />
    <glyph glyph-name="aacute" unicode="&#xe1;" horiz-adv-x="594" 
d="M663 97v1q-14 15 -33 15q-6 0 -11 -1.5t-11 -3.5q-11 -6 -26.5 -12.5t-32 -12t-32.5 -9.5t-28 -6h-4q-11 0 -18 5t-12 19q-3 8 -4 19t-1 25v15q0 26 -13 38t-33 12q-24 0 -50 -16v1q-16 -10 -36.5 -25.5t-42 -33t-42 -35.5t-36.5 -31q-3 -2 -6 -4.5t-6 -5.5
q-11 -8 -17 -8q-2 0 -2 2q-1 1 -1 8t1.5 15t4.5 13q10 22 27.5 45.5t38 45t41.5 40t39 30.5q37 27 66 27q9 0 17.5 -2.5t15.5 -8.5q13 -9 28 -9q14 0 25.5 6.5t18.5 17.5q6 10 6 23q0 9 -4 18t-14 17q-21 18 -41.5 25t-40.5 7q-37 0 -70 -17.5t-57 -32.5
q-21 -14 -45.5 -34.5t-48.5 -45.5t-45.5 -53.5t-36.5 -58.5q-21 -41 -23 -86q0 -50 28 -75q11 -8 24 -13.5t29 -5.5q36 0 80 32q12 9 24.5 20t26.5 22q22 20 41.5 36.5t32.5 25.5q4 2 6 2q0 -15 6 -34t13 -29v1q16 -23 35.5 -33.5t52.5 -10.5h12t14 1q37 4 80 19.5t77 33.5
q23 15 23 42q0 13 -10 28zM487 538v1q-11 18 -30 18q-12 0 -19 -6q-15 -8 -34 -18t-39 -20t-39.5 -20t-35.5 -17q-24 -16 -24 -35q0 -9 5 -17q5 -9 12 -15.5t19 -6.5q4 0 9.5 2t11.5 4q15 7 35.5 17.5t42 21.5t41 21.5t32.5 18.5q19 13 19 30q0 10 -6 21z" />
    <glyph glyph-name="acircumflex" unicode="&#xe2;" horiz-adv-x="594" 
d="M663 97v1q-15 15 -33 15q-10 0 -22 -6q-11 -6 -26.5 -12t-32 -11.5t-32.5 -9.5t-28 -6h-4q-11 0 -18 5t-12 19q-3 8 -4 19t-1 25v15q0 26 -13 38t-33 12q-24 0 -50 -16v1q-16 -10 -36.5 -25.5t-42 -33t-42 -35.5t-36.5 -31q-3 -2 -6 -4.5t-6 -5.5q-9 -8 -17 -8q-2 0 -2 2
q-1 0 -1 8q0 7 1.5 15t4.5 13q10 22 27.5 45.5t38 45t41.5 40t39 30.5q39 27 66 27q9 0 17.5 -2.5t15.5 -9.5q14 -8 28 -8q30 0 44 24q6 10 6 23q0 20 -18 35q-21 17 -41.5 24.5t-40.5 7.5q-37 0 -70 -17.5t-57 -32.5q-21 -14 -45.5 -34.5t-48.5 -45.5t-45.5 -53.5
t-36.5 -58.5q-21 -41 -23 -86q0 -50 28 -75q11 -8 24 -13.5t29 -5.5q36 0 80 32q12 9 24.5 20t26.5 22q22 20 41.5 36.5t32.5 24.5q3 3 6 3v-1q0 -15 6 -33.5t13 -28.5v1q16 -23 35.5 -33.5t52.5 -10.5h12t14 1q37 4 80 19.5t77 33.5q23 15 23 42q0 13 -10 28zM488 468h-1
q-13 14 -30.5 32t-31.5 32q-14 12 -28 12q-11 0 -26 -10v1q-11 -5 -22 -13t-25 -16q-13 -8 -27 -16.5t-27 -16.5q-16 -9 -16 -29q0 -9 5 -19q10 -18 32 -18q5 0 10 0.5t10 3.5q6 5 13.5 9t14.5 9h-1q13 8 26.5 16t24.5 16q5 -5 11 -10t12 -12q6 -5 12.5 -12t12.5 -12
q5 -5 11.5 -6.5t12.5 -1.5q14 0 25.5 10t11.5 25q0 6 -2 13t-8 13z" />
    <glyph glyph-name="atilde" unicode="&#xe3;" horiz-adv-x="594" 
d="M663 97v1q-15 15 -33 15q-10 0 -22 -6q-11 -6 -26.5 -12t-32 -11.5t-32.5 -9.5t-28 -6h-4q-11 0 -18 5t-12 19q-3 8 -4 19t-1 24v16q0 26 -13 38t-33 12q-21 0 -50 -16v1q-16 -10 -36.5 -25.5t-42 -33t-42 -35.5t-36.5 -31q-3 -2 -6 -4.5t-6 -5.5q-9 -8 -17 -8
q-1 0 -1.5 0.5l-0.5 0.5q-1 1 -1 9q0 16 6 28q10 22 27.5 45.5t38 45t41.5 40t39 30.5q39 27 66 27q9 0 17.5 -2.5t15.5 -9.5q13 -9 28 -9q14 0 25.5 7t18.5 18q6 9 6 23q0 8 -4 17.5t-14 17.5q-21 17 -41.5 24.5t-40.5 7.5q-37 0 -70 -17.5t-57 -33.5q-21 -14 -45.5 -34
t-48.5 -45t-45.5 -53.5t-36.5 -58.5q-21 -41 -23 -86q0 -50 28 -75q11 -8 24 -13.5t29 -5.5q36 0 80 32q12 9 24.5 20t26.5 22q22 20 41.5 36.5t32.5 24.5q3 3 6 3v-1q0 -15 6 -33.5t13 -28.5v1q16 -23 35.5 -33.5t52.5 -10.5h12t14 1q37 4 80 19.5t77 33.5q23 15 23 42
q0 13 -10 28zM509 471h-1q2 5 2 6v4q0 11 -6.5 20.5t-17.5 12.5q-4 1 -7.5 2t-5.5 1q-10 0 -19.5 -6t-14.5 -20q-5 -12 -8 -12q-9 0 -33 18q-38 27 -72 27q-25 0 -49.5 -15.5t-41.5 -49.5q-5 -5 -6 -10t-1 -10q0 -11 6 -18.5t14 -10.5h-1q9 -6 20 -6q19 0 32 19q16 27 30 27
q12 0 26 -13q40 -34 80 -34h2q24 0 43.5 15.5t28.5 52.5z" />
    <glyph glyph-name="adieresis" unicode="&#xe4;" horiz-adv-x="594" 
d="M663 97v1q-15 15 -33 15q-10 0 -22 -6q-11 -6 -26.5 -12t-32 -11.5t-32.5 -10t-28 -5.5h-4q-11 0 -18 5t-12 19q-3 7 -4 18.5t-1 24.5v16q0 26 -13 38t-33 12q-21 0 -50 -16v1q-16 -10 -36.5 -26t-42 -33.5t-42 -35t-36.5 -30.5q-3 -2 -6 -4.5t-6 -5.5q-9 -8 -17 -8
q-2 0 -2 1q-1 1 -1 9q0 16 6 28q10 22 27.5 45.5t38 45t41.5 40t39 30.5q39 27 66 27q9 0 17.5 -2.5t15.5 -9.5q13 -9 28 -9q14 0 25.5 7t18.5 18q6 9 6 23q0 8 -4 17.5t-14 17.5q-21 17 -41.5 24t-40.5 7q-37 0 -70 -17t-57 -33q-21 -14 -45.5 -34.5t-48.5 -45t-45.5 -53
t-36.5 -58.5q-21 -41 -23 -86q0 -50 28 -75q11 -8 24 -13.5t29 -5.5q36 0 80 32q12 9 24.5 20t26.5 22q22 20 41.5 36.5t32.5 24.5q3 3 6 3v-1q0 -15 6 -33.5t13 -28.5v1q16 -23 35.5 -33.5t52.5 -10.5h12t14 1q37 4 80 19.5t77 33.5q23 15 23 42q0 13 -10 28zM525 464
q0 24 -17 40.5t-39 16.5q-24 0 -39.5 -16.5t-15.5 -40.5t16 -39.5t39 -15.5q23 1 39 16t17 39zM362 464q0 24 -16 40.5t-40 16.5t-38.5 -16.5t-15.5 -40.5q0 -24 15.5 -39.5t39.5 -15.5q22 0 38.5 16.5t16.5 38.5z" />
    <glyph glyph-name="aring" unicode="&#xe5;" horiz-adv-x="594" 
d="M663 97v1q-14 15 -33 15q-6 0 -11 -1.5t-11 -3.5q-11 -6 -26.5 -12.5t-32 -12t-32.5 -9.5t-28 -6h-4q-11 0 -18 5t-12 19q-3 8 -4 19t-1 25v15q0 26 -13 38.5t-33 12.5q-22 0 -50 -17v1q-16 -10 -36.5 -25.5t-42 -33t-42 -35.5t-36.5 -31q-3 -2 -6 -4.5t-6 -5.5
q-11 -8 -17 -8q-2 0 -2 2q-1 1 -1 8t1.5 15t4.5 13q10 22 27.5 45.5t38 45.5t41.5 40t39 30q38 28 66 28q9 0 17.5 -2.5t15.5 -9.5q13 -9 28 -9q14 0 25.5 6.5t18.5 17.5q6 10 6 24q0 8 -4 17.5t-14 17.5q-21 17 -41.5 24.5t-40.5 7.5q-37 0 -70 -17.5t-57 -33.5
q-21 -14 -45.5 -34.5t-48.5 -45t-45.5 -53.5t-36.5 -59q-21 -41 -23 -86q0 -50 28 -75q11 -8 24 -13.5t29 -5.5q36 0 80 32q12 9 24.5 20.5t26.5 22.5q22 19 41.5 35.5t32.5 25.5q3 3 6 3q0 -16 6 -35t13 -29v1q16 -23 35.5 -33.5t52.5 -10.5h12t14 1q37 4 80 19.5t77 33.5
q23 15 23 42q0 13 -10 28zM446 407q28 31 28 71q0 41 -28 72q-31 28 -71 28t-71 -28q-14 -16 -21 -33.5t-7 -38.5q0 -38 28 -71q31 -28 71 -28t71 28zM421 434l-2 -1q-8 -9 -20 -13t-24 -4q-13 0 -24.5 4t-19.5 14q-10 8 -14 20t-4 24t4 24.5t14 20.5q18 19 44 19
q12 0 23.5 -4t18.5 -12q12 -10 17 -23t5 -25q0 -13 -4 -24.5t-14 -19.5z" />
    <glyph glyph-name="ae" unicode="&#xe6;" horiz-adv-x="756" 
d="M809 95q-5 8 -13.5 14t-19.5 6q-10 0 -17 -4h1q-9 -3 -20.5 -6t-22.5 -8h1q-45 -16 -99.5 -32.5t-102.5 -16.5q-17 0 -32 4t-23.5 11t-10.5 24q35 4 72 19t69 37.5t56 51t33 60.5q6 19 6 47q0 23 -8.5 45t-30.5 37q-12 8 -24.5 11t-23.5 3q-20 0 -39.5 -6t-33.5 -13
q-11 -5 -29.5 -18.5t-32.5 -30.5q-8 11 -19.5 18t-22.5 12q-23 11 -48 11q-35 0 -66 -14.5t-60 -33.5q-51 -35 -89.5 -91.5t-63.5 -112.5q-7 -15 -12 -38t-8 -46v1q-1 -3 -1 -7v-9q0 -38 22.5 -58.5t56.5 -20.5q18 0 37.5 7t39.5 21q75 62 126 111q1 -14 3.5 -26.5
t6.5 -20.5q13 -33 37 -50t63 -22q12 -2 25 -3t26 -1q33 0 65 5.5t62.5 14t57.5 18.5t49 19q10 5 19 8t17 6l-1 -1q15 5 22.5 17t7.5 26t-7 25zM412 260l-1 -1q-3 -5 -3 -6q-13 -1 -29 -16l-21 -20q-23 -23 -47 -48t-47.5 -47.5t-45.5 -42t-41 -32.5l1 1q-8 -4 -9 -4v8
q5 16 10 29q9 27 24.5 53.5t32 49t33 38.5t27.5 24q23 16 40.5 24.5t31.5 8.5q7 0 15 -3l6 -4q4 -4 10 -7t13 -5zM589 273q-5 -14 -16.5 -26.5t-27 -24t-34.5 -21t-38 -15.5q14 26 31 50t34 40q6 8 12 12t15 9q5 3 13.5 6.5t15.5 3.5h1v-4q0 -7 -2 -15t-4 -15z" />
    <glyph glyph-name="ccedilla" unicode="&#xe7;" horiz-adv-x="558" 
d="M313 -146q9 15 9 37q0 16 -8.5 30t-30.5 21q-5 1 -5 3q0 7 5 20v1q34 3 71.5 10t75.5 17.5t75 25t70 32.5q14 8 19.5 19t5.5 22q0 12 -7 26l-1 1q-14 19 -37 19q-13 0 -24 -7q-14 -8 -43 -21t-68 -25t-84.5 -21t-93.5 -9q-35 0 -51.5 10.5t-16.5 27.5q0 11 7 24
q9 18 24.5 36.5t34 33.5t37.5 26.5t36 16.5q9 -4 18 -4.5t18 -0.5q13 0 18 1q20 4 31.5 19t11.5 32q-1 17 -13.5 30.5t-39.5 17.5h1q-3 1 -8 1h-11q-23 0 -31 -2q-71 -26 -127 -71t-85 -96q-25 -43 -25 -81q0 -46 36 -74.5t105 -35.5q-2 -8 -3 -17.5t-1 -17.5q0 -38 35 -47
h4q0 -1 -1 -1v-1q-8 -8 -34 -16q-27 -8 -27 -34q0 -13 9.5 -23.5t27.5 -10.5h3q29 2 52 16.5t36 39.5z" />
    <glyph glyph-name="egrave" unicode="&#xe8;" horiz-adv-x="456" 
d="M512 91v-1q-6 11 -15.5 18.5t-22.5 7.5q-5 0 -8 -0.5t-6 -1.5q-10 -2 -22.5 -7.5t-26.5 -10.5q-41 -15 -91.5 -31t-96.5 -16q-8 0 -17 0.5t-17 2.5q-15 2 -24 12t-9 25q34 4 70.5 19t68 37.5t55 51t32.5 60.5q6 21 6 49q0 25 -8.5 47.5t-30.5 35.5q-20 13 -48 13
q-20 0 -39 -5.5t-33 -13.5h1q-18 -8 -39.5 -28t-44.5 -49q-23 -31 -46.5 -76t-33.5 -102q-2 -10 -3 -19t-1 -20q0 -56 37 -91q13 -13 31 -22.5t41 -14.5q23 -4 50 -4q32 0 64 6t61.5 14.5t56 18.5t47.5 19q11 4 20 7t17 6h-1q16 5 23 16.5t7 25.5q0 13 -4 21zM373 455
q3 5 5.5 11t2.5 13q0 17 -14 27h1q-16 14 -33.5 27.5t-34.5 27.5q-12 8 -23.5 17.5t-22.5 19.5q-11 7 -21 7q-19 0 -29 -15q-10 -12 -10 -25q0 -16 15 -27q26 -23 56 -46t59 -44q8 -8 21 -8q8 0 15.5 4.5t12.5 10.5zM295 278v1q-4 -14 -15.5 -27.5t-27.5 -25.5t-34.5 -21
t-37.5 -15q10 26 26 49.5t33 40.5q15 16 27 24h-1q5 2 11 4t11 2q6 0 8 -2q1 -2 2 -5t1 -7q0 -6 -3 -18z" />
    <glyph glyph-name="eacute" unicode="&#xe9;" horiz-adv-x="456" 
d="M512 91v-1q-6 11 -15.5 18.5t-22.5 7.5q-5 0 -8 -0.5t-6 -1.5q-10 -2 -22.5 -7.5t-26.5 -10.5q-41 -15 -91.5 -31t-96.5 -16q-8 0 -17 0.5t-17 2.5q-15 2 -24 12t-9 25q34 4 70.5 19t68 37.5t55 51t32.5 60.5q6 21 6 49q0 25 -8.5 47.5t-30.5 35.5q-20 13 -48 13
q-20 0 -39 -5.5t-33 -13.5h1q-18 -8 -39.5 -28t-44.5 -49q-23 -31 -46.5 -76t-33.5 -102q-2 -10 -3 -19t-1 -20q0 -56 37 -91q13 -13 31 -22.5t41 -14.5q23 -4 50 -4q32 0 64 6t61.5 14.5t56 18.5t47.5 19q11 4 20 7t17 6h-1q16 5 23 16.5t7 25.5q0 13 -4 21zM439 585v1
q-11 18 -30 18q-12 0 -19 -5q-15 -8 -33.5 -18t-38.5 -20.5t-39.5 -20.5t-34.5 -17q-24 -16 -24 -35q0 -9 5 -17q5 -9 11.5 -15.5t19.5 -6.5q4 0 9 2t12 4q15 7 35 17.5t41 21.5t40.5 22t32.5 19q18 10 18 30q0 4 -1 9.5t-4 10.5zM295 278v1q-4 -14 -15.5 -27.5t-27.5 -25.5
t-34.5 -21t-37.5 -15q10 26 26 49.5t33 40.5q15 16 27 24h-1q5 2 11 4t11 2q6 0 8 -2q1 -2 2 -5t1 -7q0 -6 -3 -18z" />
    <glyph glyph-name="ecircumflex" unicode="&#xea;" horiz-adv-x="456" 
d="M512 91v-1q-6 11 -15.5 18.5t-22.5 7.5q-5 0 -8 -0.5t-6 -1.5q-10 -3 -22.5 -8t-26.5 -10q-20 -8 -43.5 -16t-48 -15.5t-49 -12t-47.5 -4.5q-19 0 -34 4q-15 2 -24 12t-9 25q34 4 70.5 19t68 37.5t55 51t32.5 60.5q6 19 6 48q0 25 -8.5 47.5t-30.5 35.5q-20 13 -48 13
q-20 0 -39 -5t-33 -13h1q-37 -18 -84 -78q-23 -31 -46.5 -75.5t-33.5 -101.5q-2 -10 -3 -19t-1 -20q0 -56 37 -91q13 -13 31 -22.5t41 -14.5q23 -4 50 -4q32 0 64 6t61.5 14.5t56 18.5t47.5 19q11 4 20 7t17 6h-1q16 5 23 16.5t7 25.5q0 13 -4 21zM405 500h-1
q-12 14 -29.5 32t-31.5 32q-12 11 -28 11q-11 0 -26 -9v1q-10 -6 -21 -13.5t-25 -15.5q-13 -8 -26.5 -16.5t-26.5 -16.5q-17 -11 -17 -29q0 -11 6 -20q11 -18 32 -18q11 0 19 5q7 5 14 8.5t14 8.5h-1l26 16t24 16q5 -5 11 -9.5t12 -11.5l12.5 -12.5l11.5 -11.5
q6 -5 12.5 -6.5t11.5 -1.5q15 0 26 9.5t11 25.5q0 5 -2 12t-8 14zM295 278v1q-4 -14 -15.5 -28t-27.5 -25.5t-34.5 -21t-37.5 -14.5q10 26 26 49.5t33 40.5q8 8 14.5 13.5t12.5 9.5h-1q5 2 11 4.5t11 2.5q6 0 8 -2q1 -2 2 -5.5t1 -7.5q0 -5 -3 -17z" />
    <glyph glyph-name="edieresis" unicode="&#xeb;" horiz-adv-x="456" 
d="M512 91v-1q-6 11 -15.5 18.5t-22.5 7.5q-5 0 -8 -0.5t-6 -1.5q-10 -3 -22.5 -8t-26.5 -10q-20 -8 -43.5 -16t-48 -15.5t-49 -12t-47.5 -4.5q-19 0 -34 4q-15 2 -24 12t-9 25q34 4 70.5 19t68 37.5t55 51t32.5 60.5q6 19 6 48q0 25 -8.5 47.5t-30.5 35.5q-20 13 -48 13
q-20 0 -39 -5t-33 -13h1q-37 -18 -84 -78q-23 -31 -46.5 -75.5t-33.5 -101.5q-2 -10 -3 -19t-1 -20q0 -56 37 -91q13 -13 31 -22.5t41 -14.5q23 -4 50 -4q32 0 64 6t61.5 14.5t56 18.5t47.5 19q11 4 20 7t17 6h-1q16 5 23 16.5t7 25.5q0 13 -4 21zM259 513q0 24 -16 40.5
t-40 16.5t-38.5 -16.5t-15.5 -40.5q0 -24 15.5 -39.5t39.5 -15.5q22 0 38.5 16.5t16.5 38.5zM420 513q0 24 -17 40.5t-39 16.5q-24 0 -39 -16.5t-15 -40.5t15.5 -39.5t39.5 -15.5q23 1 38.5 16t16.5 39zM295 278v1q-4 -14 -15.5 -28t-27.5 -25.5t-34.5 -21t-37.5 -14.5
q10 26 26 49.5t33 40.5q8 8 14.5 13.5t12.5 9.5h-1q5 2 11 4.5t11 2.5q6 0 8 -2q1 -2 2 -5.5t1 -7.5q0 -5 -3 -17z" />
    <glyph glyph-name="igrave" unicode="&#xec;" horiz-adv-x="351" 
d="M484 71v2q-1 17 -13 31.5t-35 14.5h-2q-23 0 -58 -12.5t-68 -25.5q-21 -9 -40 -15.5t-33 -8.5q-5 -2 -10 -2h-8q-19 0 -25 21q-2 8 -2.5 18.5t-0.5 23.5v16q2 32 12 65.5t21 53.5q4 7 4 15q0 12 -8.5 21.5t-22.5 14.5q-5 2 -10.5 3t-10.5 1q-19 0 -32 -12
q-8 -8 -16.5 -22.5t-13.5 -25.5q-2 -8 -2 -13q0 -8 4 -12q-6 -20 -10.5 -42t-6.5 -45q-1 -8 -1.5 -16t-0.5 -19q0 -15 1.5 -29.5t4.5 -25.5q13 -45 36.5 -65.5t62.5 -20.5q23 0 55 8q20 5 44.5 13.5t49.5 17.5q28 11 52.5 18.5t39.5 9.5q23 3 33 16t10 28zM265 357
q3 5 5.5 10.5t2.5 13.5q0 16 -14 27h1q-16 14 -33.5 27t-34.5 27q-11 9 -22.5 18t-22.5 19q-5 4 -10.5 5.5t-10.5 1.5q-19 0 -29 -15q-9 -11 -9 -25q0 -8 3 -14t11 -12q26 -23 56 -46t58 -44q9 -8 21 -8q8 0 15.5 4.5t12.5 10.5z" />
    <glyph glyph-name="iacute" unicode="&#xed;" horiz-adv-x="351" 
d="M483 71v2q0 18 -12 32t-35 14h-2q-23 0 -58 -12t-69 -26q-20 -8 -39 -15t-33 -9q-6 -2 -10 -2h-8q-19 0 -25 21q-4 15 -4 42v16q2 32 12.5 65.5t21.5 53.5q4 7 4 15q0 12 -8.5 21.5t-22.5 14.5q-11 4 -21 4q-19 0 -32 -12q-8 -8 -16.5 -22.5t-13.5 -25.5q-2 -8 -2 -12
q0 -9 4 -13q-6 -20 -10.5 -42t-6.5 -45q-1 -7 -1.5 -15.5t-0.5 -19.5q0 -15 1.5 -29.5t4.5 -25.5q13 -45 36.5 -65.5t62.5 -20.5q23 0 55 8q20 5 44.5 13.5t49.5 17.5q27 11 52 18.5t40 9.5q23 3 32.5 16t9.5 28zM307 504v1q-9 18 -29 18q-12 0 -19 -5q-15 -8 -33.5 -18
t-38 -20.5t-39 -20t-34.5 -17.5q-11 -7 -17.5 -16.5t-6.5 -17.5q0 -9 5 -17q5 -9 11.5 -15.5t19.5 -6.5q3 0 8.5 2t12.5 4q15 7 35 17.5t40.5 21.5t40 21.5t32.5 18.5q18 13 18 30q0 9 -6 20z" />
    <glyph glyph-name="icircumflex" unicode="&#xee;" horiz-adv-x="352" 
d="M485 71v2q-1 17 -13 31.5t-35 14.5h-2q-23 0 -58 -12.5t-69 -25.5q-21 -9 -39.5 -15.5t-32.5 -8.5q-6 -2 -11 -2h-8q-11 0 -16 5t-8 16q-4 15 -4 42v16q2 31 12 65t21 54q4 5 4 15q0 11 -8 21t-22 15q-6 2 -11.5 2.5t-9.5 0.5q-9 0 -17 -2t-16 -9q-8 -8 -16.5 -22.5
t-12.5 -25.5q-2 -8 -2 -13q0 -8 3 -12q-6 -20 -10.5 -42t-6.5 -45q-1 -8 -1.5 -16t-0.5 -19q0 -15 1.5 -29.5t4.5 -25.5q13 -45 36.5 -65.5t62.5 -20.5q24 0 56 8q19 5 44 13.5t50 17.5q27 11 52 18.5t40 9.5q23 3 33 16t10 28zM303 419h-1q-12 14 -29.5 32t-31.5 32
q-11 11 -27 11q-13 0 -26 -9v1q-10 -6 -21.5 -13.5t-24.5 -15.5t-26.5 -16.5t-26.5 -16.5q-17 -11 -17 -29q0 -10 6 -19q10 -18 32 -18q11 0 19 4q6 5 13.5 9t13.5 9h-1q14 8 27 16t24 16q5 -5 10.5 -10t12.5 -12q6 -5 12 -12t12 -12q5 -5 11.5 -6t12.5 -1q14 0 25 9.5
t11 24.5q0 6 -2 13t-8 13z" />
    <glyph glyph-name="idieresis" unicode="&#xef;" horiz-adv-x="353" 
d="M486 71v2q-1 17 -13 31.5t-35 14.5h-2q-24 0 -58.5 -12.5t-68.5 -25.5q-21 -9 -40 -15.5t-33 -8.5q-6 -2 -10 -2h-8q-19 0 -25 21q-4 15 -4 42v16q2 31 12.5 64.5t21.5 53.5q4 7 4 16q0 11 -8.5 21t-22.5 15q-12 3 -21 3q-18 0 -33 -11q-8 -8 -16 -22.5t-13 -25.5
q-2 -8 -2 -13q0 -9 4 -12q-7 -20 -11.5 -42t-5.5 -45q-1 -8 -1.5 -16t-0.5 -19q0 -30 5 -55q14 -45 37 -65.5t63 -20.5q23 0 55 8q20 5 44.5 13.5t50.5 17.5q27 11 52 18.5t40 9.5q23 3 33 16t10 28zM161 432q0 23 -16 39.5t-40 16.5q-23 0 -37.5 -16.5t-15.5 -39.5
q0 -24 15.5 -39.5t38.5 -15.5q22 0 38.5 16.5t16.5 38.5zM321 432q0 23 -17 39.5t-38 16.5q-24 0 -39 -16.5t-15 -39.5q0 -24 15.5 -39.5t39.5 -15.5q22 1 37.5 16t16.5 39z" />
    <glyph glyph-name="eth" unicode="&#xf0;" horiz-adv-x="599" 
d="M546 630q0 12 -6.5 22t-16.5 16q-8 4 -16 4q-16 0 -36 -20q-10 -9 -16.5 -23t-10.5 -31q-11 -12 -22 -22t-20 -19q-20 29 -39.5 56t-39.5 53q-17 17 -35 17q-14 0 -32 -13q-6 -5 -9.5 -14.5t-3.5 -18.5q0 -8 1.5 -15.5t6.5 -12.5q20 -26 40 -53.5t39 -55.5
q-14 -10 -25.5 -17t-21.5 -13q-12 -7 -21 -12.5t-15.5 -13t-12 -18t-10.5 -27.5v1q-2 -6 -2 -10v-7q0 -24 19 -32q11 -7 22 -7q8 0 14.5 4.5t13.5 15.5q11 23 31 40.5t43 34.5q24 -40 44 -79.5t34 -74.5q-83 26 -163 26q-36 0 -70 -4.5t-65 -14.5q-103 -30 -103 -118v-2
q1 -39 25.5 -76t59.5 -66q54 -44 120.5 -66.5t126.5 -22.5q57 0 99 26t67 64q14 23 21 52.5t7 60.5v19t-1 16l-12 55q-15 62 -45 128t-69 131q29 21 53.5 45.5t38.5 57.5q13 17 13 34zM478 149q0 -46 -16 -68v1q-16 -23 -37.5 -36.5t-54.5 -13.5q-40 0 -90 17t-96 52
q-18 14 -30.5 34t-12.5 32q0 11 7 20.5t28 16.5q48 14 101 14q51 0 103 -10.5t96 -30.5q1 -8 1.5 -14.5t0.5 -13.5z" />
    <glyph glyph-name="ntilde" unicode="&#xf1;" horiz-adv-x="663" 
d="M808 82v2q-1 20 -11.5 33t-32.5 13q-10 0 -14 -1q-23 -5 -51.5 -16t-55.5 -22h1q-8 -2 -15.5 -5.5t-15.5 -6.5q-14 -6 -29 -6q-25 0 -33 20q-8 18 -14 46.5t-11 65.5q-6 38 -27.5 56t-52.5 18h-6q-24 0 -52 -10t-49 -27q-20 -14 -42 -33t-42 -38q-3 -2 -6 -4.5t-6 -4.5
q-10 -10 -20.5 -18.5t-20.5 -19.5v48q0 17 -0.5 33t-1.5 30q0 2 -0.5 5.5t-0.5 6.5q-2 17 -15 25t-27 9h-5q-25 0 -36 -15q-8 -8 -14 -22t-8 -24q0 -19 15 -26v-25q0 -11 0.5 -24.5t0.5 -28.5v-105q0 -15 5.5 -26.5t22.5 -19.5q5 -2 11.5 -3t11.5 -1q12 0 24 5.5t20 21.5
q5 10 15 23.5t22.5 27.5t26 27t25.5 22q14 9 28 21.5t28 25.5v-1q14 11 28 22.5t12 11.5h-1q19 13 32 13q3 0 5 -1q8 -2 9 -8q1 -3 1 -6t1 -6v1q3 -21 8.5 -50.5t19.5 -59.5q17 -37 46 -54.5t65 -17.5q33 0 73 16q20 10 39 17t36 14h-1q15 4 27 9h8q6 0 11.5 1.5t12.5 3.5
q14 6 20 17.5t6 24.5zM480 408h-1q2 5 2 10q0 25 -25 33q-4 1 -7 2t-5 1q-11 0 -20.5 -6t-14.5 -20q-5 -13 -8 -13q-8 0 -33 19q-19 13 -36.5 20t-35.5 7q-25 0 -50 -16t-42 -49q-5 -5 -6 -10t-1 -10q0 -10 6 -18t14 -11h-1q9 -6 20 -6q21 0 32 20q17 26 31 26q10 0 26 -13
q40 -34 80 -34h2q24 0 43.5 15.5t29.5 52.5z" />
    <glyph glyph-name="ograve" unicode="&#xf2;" horiz-adv-x="548" 
d="M549 217v2q0 17 -13.5 31t-34.5 14h-76q-14 10 -31.5 18.5t-34.5 10.5q-6 2 -16 2q-12 0 -21 -3q-12 10 -24.5 14t-24.5 4q-25 0 -44 -11h1q-49 -25 -86 -72t-49 -108q-6 -29 -6 -57q0 -44 16 -73q34 -59 124 -59h5q35 1 65 6.5t59 18.5q33 14 62.5 37.5t55.5 54.5
q18 21 25 42t7 40q0 14 -3 25.5t-8 20.5q9 1 16 1.5t11 2.5q14 6 19.5 16.5t5.5 21.5zM404 104q-17 -22 -38.5 -40t-46.5 -28q-15 -7 -34.5 -11t-43.5 -4h-8q-31 0 -43 20q-7 8 -7 31q0 11 3 29q6 35 26 63t39 41l2 1q1 0 3 1q2 0 3 1q2 -15 20 -24t44 -9h69q23 -18 23 -43
q0 -16 -11 -28zM396 364q8 8 8 24q0 7 -3 14t-11 13h1q-16 14 -33.5 27t-34.5 27q-11 9 -23 18t-23 19q-8 7 -21 7q-19 0 -29 -15q-9 -11 -9 -25q0 -8 3 -14.5t11 -11.5q26 -23 56.5 -46t58.5 -44q9 -8 21 -8q9 0 16 4.5t12 10.5z" />
    <glyph glyph-name="oacute" unicode="&#xf3;" horiz-adv-x="548" 
d="M549 217v2q0 17 -13.5 31t-34.5 14h-76q-14 10 -31.5 18.5t-34.5 10.5q-6 2 -16 2q-12 0 -21 -3q-12 10 -24.5 14t-24.5 4q-25 0 -44 -11h1q-49 -25 -86 -72t-49 -108q-6 -29 -6 -57q0 -44 16 -73q34 -59 124 -59h5q35 1 65 6.5t59 18.5q33 14 62.5 37.5t55.5 54.5
q18 21 25 42t7 40q0 14 -3 25.5t-8 20.5q9 1 16 1.5t11 2.5q14 6 19.5 16.5t5.5 21.5zM404 104q-17 -22 -38.5 -40t-46.5 -28q-15 -7 -34.5 -11t-43.5 -4h-8q-31 0 -43 20q-7 8 -7 31q0 11 3 29q6 35 26 63t39 41l2 1q1 0 3 1q2 0 3 1q2 -15 20 -24t44 -9h69q23 -18 23 -43
q0 -16 -11 -28zM479 493v1q-9 18 -29 18q-5 0 -10.5 -1t-10.5 -5l1 1q-15 -8 -33.5 -18t-38 -20.5t-39 -20t-34.5 -17.5q-12 -7 -18 -16.5t-6 -18.5q0 -8 5 -16q8 -22 30 -22q4 0 9.5 2t11.5 4q15 7 35 17.5t41 21.5t40.5 21.5t33.5 18.5q18 13 18 30q0 9 -6 20z" />
    <glyph glyph-name="ocircumflex" unicode="&#xf4;" horiz-adv-x="548" 
d="M549 216v2q0 17 -13.5 31.5t-34.5 14.5h-76q-14 10 -31.5 18.5t-34.5 10.5q-2 1 -7 1h-9h-11t-10 -2q-24 18 -49 18q-23 0 -44 -12h1q-49 -24 -86 -71t-49 -108q-6 -30 -6 -57q0 -44 16 -73q34 -59 124 -59h5q35 1 65 6.5t59 18.5q33 14 62.5 37.5t55.5 54.5q18 21 25 42
t7 39q0 14 -3 26t-8 21q9 1 16 1.5t11 2.5q14 5 19.5 16t5.5 21zM404 104q-17 -22 -38.5 -40t-46.5 -28q-15 -7 -34.5 -11t-43.5 -4h-8q-31 0 -43 20q-7 8 -7 30q0 12 3 29q6 35 26 63t39 42l2 1q1 0 3 1q2 0 3 1q2 -16 20 -24.5t44 -8.5h69q23 -18 23 -43q0 -16 -11 -28z
M443 414h-1q-12 14 -29.5 32t-31.5 32q-14 12 -28 12q-11 0 -26 -10v1q-11 -6 -22 -13.5t-24 -15.5t-27 -16.5t-27 -16.5q-16 -12 -16 -29q0 -10 6 -19q9 -19 31 -19q13 0 19 5q7 5 14.5 9t13.5 9h-1q14 8 27 16t24 15q5 -4 10.5 -9t12.5 -12q6 -5 12 -12t12 -12t12 -6.5
t12 -1.5q14 0 25 10t11 25q0 6 -2 13t-7 13z" />
    <glyph glyph-name="otilde" unicode="&#xf5;" horiz-adv-x="548" 
d="M549 216v2q0 17 -13.5 31t-34.5 14h-76q-14 11 -31.5 19t-34.5 10q-6 2 -16 2q-12 0 -21 -3q-23 19 -49 19q-23 0 -44 -12h1q-49 -25 -86 -71.5t-49 -107.5q-6 -30 -6 -57q0 -44 16 -73q33 -58 124 -58h5q35 0 65 5.5t59 18.5q33 14 62.5 37.5t55.5 54.5q18 21 25 42
t7 39q0 14 -3 26t-8 21q9 1 16 1.5t11 2.5q14 5 19.5 16t5.5 21zM404 104q-17 -22 -38.5 -40t-46.5 -28q-15 -7 -34.5 -11t-43.5 -4h-8q-31 0 -43 20q-7 8 -7 30q0 12 3 29q6 35 26 63t39 42l2 1q1 0 3 1h3q2 -15 20 -23.5t44 -8.5h69q23 -18 23 -43q0 -16 -11 -28zM470 429
h-1q2 5 2 7v4q0 11 -6.5 20t-17.5 13q-4 1 -7.5 2t-5.5 1q-10 0 -19.5 -6t-14.5 -20q-5 -13 -8 -13q-7 0 -33 19q-38 27 -70 27q-25 0 -49.5 -16t-41.5 -49q-4 -5 -5 -10t-1 -10q0 -11 5.5 -18.5t13.5 -10.5h-1q9 -6 20 -6q19 0 32 19q8 14 15.5 20t13.5 6q11 0 26 -12
q38 -34 79 -34h2q23 0 42.5 15t29.5 52z" />
    <glyph glyph-name="odieresis" unicode="&#xf6;" horiz-adv-x="548" 
d="M549 216v2q0 17 -13.5 31t-34.5 14h-76q-14 11 -31.5 19t-34.5 10q-6 2 -16 2q-12 0 -21 -3q-23 19 -49 19q-23 0 -44 -12h1q-49 -25 -86 -71.5t-49 -107.5q-6 -30 -6 -57q0 -44 16 -73q33 -58 124 -58h5q35 1 65 6t59 18q33 14 62.5 37.5t55.5 54.5q18 21 25 42t7 39
q0 14 -3 26t-8 21q9 1 16 1.5t11 1.5q14 6 19.5 17t5.5 21zM404 104q-17 -22 -38.5 -40t-46.5 -28q-15 -7 -34.5 -11t-43.5 -4h-8q-31 0 -43 20q-7 8 -7 30q0 12 3 29q6 35 26 63t39 41l2 1q1 0 3 1q2 0 3 1q2 -15 20 -23.5t44 -8.5h69q23 -18 23 -43q0 -16 -11 -28z
M474 417q0 24 -17 40.5t-39 16.5q-24 0 -39 -16.5t-15 -40.5t15.5 -39.5t39.5 -15.5q23 1 38.5 16t16.5 39zM312 417q0 24 -15.5 40.5t-39.5 16.5t-38.5 -16.5t-15.5 -40.5q0 -24 15.5 -39.5t39.5 -15.5q22 0 38 16.5t16 38.5z" />
    <glyph glyph-name="divide" unicode="&#xf7;" horiz-adv-x="374" 
d="M353 260v2q0 14 -9 24.5t-24 10.5h-6q-6 -1 -14 -1h-15q-15 0 -32 0.5t-36 1.5q-22 1 -43.5 2t-40.5 1q-17 0 -29.5 -1t-20.5 -3h1q-17 -4 -28.5 -15t-15.5 -28q0 -2 -0.5 -4t-0.5 -4q0 -17 15 -30v1q5 -5 11.5 -7t12.5 -2q10 0 18 4h-1q2 1 4 2.5t4 3.5q5 5 11 5
q3 1 9 1h14h27t32 -1t35 -1h35q16 0 29.5 0.5t24.5 1.5q17 3 25 14t8 22zM236 440q-14 11 -36 11q-21 0 -35 -11q-12 -8 -18 -20.5t-6 -26.5q0 -23 16 -41q15 -18 41 -18q22 0 37 11l-1 -1q13 8 19 21t6 27t-6 26.5t-17 21.5zM231 99q11 7 17.5 19.5t6.5 26.5t-6.5 26
t-17.5 21q-16 13 -35 13t-35 -13q-13 -8 -18.5 -20.5t-5.5 -25.5q0 -22 16 -41q18 -18 42 -18q9 0 18.5 2.5t17.5 9.5z" />
    <glyph glyph-name="oslash" unicode="&#xf8;" horiz-adv-x="548" 
d="M477 365q1 5 1 9v10q0 18 -5 30.5t-19 14.5l1 -1q-5 2 -12 2q-12 0 -21.5 -6t-17.5 -23q-8 -11 -10.5 -25t-2.5 -32q-7 -8 -11.5 -15.5t-7.5 -13.5h1q-9 -12 -15 -24l-6 2q-8 2 -17 2q-12 0 -21 -3q-23 19 -48 19q-24 0 -45 -12h1q-49 -25 -85.5 -72t-49.5 -108
q-6 -29 -6 -57q0 -45 17 -73q5 -6 9 -12.5t11 -11.5q-14 -24 -22.5 -45t-10.5 -38v-7q0 -31 29 -37l-1 1q4 -2 8.5 -2.5t7.5 -0.5q11 0 17.5 5.5t11.5 21.5q3 15 12.5 32.5t22.5 36.5q7 -1 15.5 -1.5t17.5 -0.5q35 1 65 6.5t59 18.5q33 14 62.5 37.5t56.5 54.5
q18 21 24.5 42t6.5 40q0 26 -10 46q8 1 15 1.5t12 2.5q13 6 19 16.5t6 21.5v2q0 17 -14 31t-34 14h-62q19 31 31 56t14 45zM397 104q-17 -22 -39 -40t-46 -28q-12 -5 -25.5 -8.5t-29.5 -5.5q4 5 8 11t9 12q25 31 49.5 64t47.5 65h5q2 0 4 0.5t4 0.5q23 -17 23 -42
q0 -16 -10 -29zM175 72q0 11 3 29q6 35 26.5 63t38.5 41l2 1q1 0 3 1l0.5 0.5t1.5 0.5q1 -9 8.5 -15.5t18.5 -11.5q-14 -20 -27.5 -38t-27.5 -35q-12 -15 -23 -30t-22 -29q-2 5 -2 10v13zM182 39h1q0 -1 0.5 -1.5t0.5 -2.5z" />
    <glyph glyph-name="ugrave" unicode="&#xf9;" horiz-adv-x="659" 
d="M726 88q-9 25 -36 25q-12 0 -25 -7q-19 -11 -44.5 -20.5t-52.5 -12.5q-3 0 -5 -0.5t-4 -0.5q-12 0 -21.5 5t-14.5 19v-1q-3 10 -5 22t-2 27q0 18 3 38.5t8 43.5v-1q1 5 1 7v4q0 15 -10.5 26t-24.5 14l1 -1q-5 2 -8 2h-5q-14 0 -25.5 -6t-18.5 -22q-16 -45 -51.5 -93.5
t-92.5 -88.5q-16 -11 -31.5 -16.5t-28.5 -5.5q-9 0 -17 2q-18 6 -24 26q-6 19 -6 47q0 32 6 68t16 65l-1 -1q2 6 2 9v8q0 18 -12.5 28t-28.5 10q-15 0 -29 -8t-22 -27q-8 -23 -16 -66.5t-8 -88.5q0 -21 2.5 -42.5t9.5 -38.5q23 -64 85 -78h-1q15 -4 37 -4q58 0 119 40
q22 14 45.5 35.5t42.5 44.5q4 -26 18 -46q16 -25 44.5 -36.5t59.5 -11.5q6 0 12 0.5t12 1.5q38 6 72 18t57 26q13 8 18 18.5t5 21.5q0 12 -5 22zM409 322q9 9 9 24q0 16 -15 27h1q-16 14 -33.5 27t-35.5 27q-11 8 -23 17.5t-23 18.5q-10 8 -21 8q-10 0 -17.5 -4.5
t-11.5 -11.5q-10 -10 -10 -25t14 -26q27 -22 57.5 -45t59.5 -44q9 -8 21 -8q9 0 16 4.5t12 10.5z" />
    <glyph glyph-name="uacute" unicode="&#xfa;" horiz-adv-x="659" 
d="M726 88q-9 25 -36 25q-12 0 -25 -7q-19 -11 -44.5 -20.5t-52.5 -12.5q-3 0 -5 -0.5t-4 -0.5q-12 0 -21.5 5t-14.5 19q-3 9 -5 21t-2 28q0 33 11 82v-1q1 5 1 6v4q0 16 -10.5 26.5t-24.5 14.5l1 -1q-5 2 -8 2h-5q-14 0 -25.5 -6.5t-18.5 -21.5q-16 -45 -51.5 -93.5
t-92.5 -88.5q-16 -12 -31.5 -17.5t-28.5 -5.5q-9 0 -17 2q-18 6 -24 26q-6 19 -6 48q0 31 6 67t16 66l-1 -1q2 5 2 8v8q0 18 -12.5 28.5t-28.5 10.5q-15 0 -29 -8.5t-22 -27.5q-8 -23 -16 -66t-8 -88q0 -22 2.5 -43.5t9.5 -38.5q23 -64 85 -78h-1q15 -4 37 -4q58 0 119 40
q22 15 45.5 36t42.5 44q4 -26 18 -46q16 -25 44.5 -36.5t59.5 -11.5q6 0 12 0.5t12 1.5q38 6 72 18t57 26q13 8 18 19t5 22t-5 21zM462 480v1q-11 19 -31 19q-5 0 -9.5 -1t-9.5 -5q-15 -8 -34 -18t-39 -20t-39.5 -20t-34.5 -17q-25 -16 -25 -35q0 -9 5 -16q5 -10 12 -16.5
t19 -6.5q4 0 9.5 2t12.5 4q15 7 35 17.5t41.5 21.5t41 21.5t33.5 18.5q18 12 18 30q0 10 -5 20z" />
    <glyph glyph-name="ucircumflex" unicode="&#xfb;" horiz-adv-x="659" 
d="M726 88q-9 25 -36 25q-12 0 -25 -7q-19 -11 -44.5 -20.5t-52.5 -12.5q-3 0 -5 -0.5t-4 -0.5q-12 0 -21.5 5t-14.5 19v-1q-3 10 -5 22t-2 28q0 34 11 81v-1q1 5 1 7v4q0 15 -10.5 26t-24.5 15l1 -1q-5 1 -8 1h-5q-14 0 -25.5 -6t-18.5 -21q-16 -45 -51.5 -94t-92.5 -89
q-16 -11 -31.5 -16.5t-28.5 -5.5q-9 0 -17 2q-18 6 -24 26q-6 19 -6 47q0 32 6 68t16 65l-1 -1q2 6 2 9v8q0 18 -12.5 28t-28.5 10q-15 0 -29 -8t-22 -27q-4 -12 -8 -29t-7.5 -37.5t-6 -43t-2.5 -44.5t2.5 -43.5t9.5 -38.5q23 -64 85 -78h-1q15 -4 37 -4q58 0 119 40
q22 14 45.5 35.5t42.5 44.5q4 -26 18 -46q16 -25 44.5 -36.5t59.5 -11.5q6 0 12 0.5t12 1.5q38 6 72 18t57 26q13 8 18 18.5t5 21.5q0 12 -5 22zM463 405h-1q-13 14 -30.5 31.5t-32.5 31.5q-12 12 -28 12q-6 0 -12 -2.5t-14 -7.5v1q-10 -6 -21.5 -13.5t-24.5 -15.5
q-14 -8 -27.5 -16.5t-27.5 -16.5q-16 -10 -16 -28q0 -11 6 -20q10 -18 32 -18q11 0 19 5q7 5 14 8.5t14 8.5h-1q14 8 27.5 16t24.5 16q5 -5 10.5 -10t12.5 -11q6 -6 12 -12.5t12 -11.5t12.5 -6.5t11.5 -1.5q15 0 26 9.5t11 25.5q0 5 -2 12t-7 14z" />
    <glyph glyph-name="udieresis" unicode="&#xfc;" horiz-adv-x="659" 
d="M726 88q-9 25 -36 25q-12 0 -25 -7q-19 -11 -44.5 -20.5t-52.5 -12.5q-3 0 -5 -0.5t-4 -0.5q-12 0 -21.5 5t-14.5 19v-1q-3 10 -5 22t-2 27q0 33 11 82v-1q1 5 1 7v4q0 15 -10.5 25.5t-24.5 14.5l1 -1q-5 2 -8 2h-5q-14 0 -25.5 -6.5t-18.5 -21.5q-16 -45 -51.5 -93.5
t-92.5 -88.5q-16 -11 -31.5 -16.5t-28.5 -5.5q-9 0 -17 2q-18 6 -24 26q-6 19 -6 47q0 32 6 68t16 65l-1 -1q2 6 2 9v7q0 18 -12.5 28.5t-28.5 10.5q-15 0 -29 -8.5t-22 -27.5q-8 -23 -16 -66t-8 -88q0 -21 2.5 -42.5t9.5 -38.5q23 -64 85 -78h-1q15 -4 37 -4q58 0 119 40
q22 14 45.5 35.5t42.5 44.5q4 -26 18 -46q16 -25 44.5 -36.5t59.5 -11.5q6 0 12 0.5t12 1.5q38 6 72 18t57 26q13 8 18 18.5t5 21.5q0 12 -5 22zM479 402q0 24 -17 40.5t-39 16.5q-24 0 -39.5 -16.5t-15.5 -40.5t16 -39.5t40 -15.5q23 1 38.5 16t16.5 39zM316 402
q0 24 -16 40.5t-40 16.5t-38.5 -16.5t-15.5 -40.5q0 -24 15.5 -39.5t39.5 -15.5q22 0 38.5 16.5t16.5 38.5z" />
    <glyph glyph-name="yacute" unicode="&#xfd;" horiz-adv-x="622" 
d="M568 256q-3 23 -14 36t-25 20q-11 4 -22 4q-29 0 -46 -20q-26 -25 -56.5 -53.5t-62 -56t-62.5 -52.5t-59 -43q-21 -15 -35 -15q-5 0 -9 4q-3 3 -6 8t-3 13q0 13 5.5 29.5t13.5 33.5t17.5 32.5t17.5 26.5q14 19 14 33q0 13 -7 22t-18 16q-8 5 -23 5q-23 0 -40 -21v1
q-11 -13 -24.5 -35.5t-25 -48.5t-19 -54t-7.5 -52q1 -35 13 -55t26 -32q29 -23 62 -23q23 0 47 9t48 25q22 14 48.5 35t52.5 43t50 43t40 36q5 7 13 7q2 0 2 -4v-4q-1 -45 -4.5 -100.5t-9 -114t-14 -115t-20.5 -102.5q-1 -4 -1.5 -7t-0.5 -8q0 -18 11 -29.5t26 -13.5
q5 -1 10 -1q16 0 29 10t17 31q12 56 22 120.5t16.5 129t10.5 123.5t4 104q0 19 -0.5 34t-1.5 26zM478 512v1q-11 19 -30 19q-12 0 -19 -6q-15 -8 -34 -18t-38.5 -20.5t-39 -20.5t-34.5 -18q-12 -7 -18 -16.5t-6 -18.5q0 -5 1 -8.5t3 -7.5q5 -10 12 -16.5t19 -6.5q4 0 9.5 2
t11.5 4q15 7 35.5 17.5t41.5 22t40.5 22t32.5 18.5q19 13 19 31q0 9 -6 20z" />
    <glyph glyph-name="thorn" unicode="&#xfe;" horiz-adv-x="516" 
d="M216 -208l-23 167v-1q0 -1 -0.5 4t-1.5 11q14 -17 31 -17q12 0 26 9h-1q43 28 84 56.5t75 66.5q21 25 39 52t30 52v-1q27 49 27 95q0 38 -21 64q-14 14 -34.5 23t-49.5 9h-16q-7 0 -15 -2h1q-38 -5 -76.5 -18t-65.5 -28q-10 -6 -20 -12.5t-20 -14.5q3 39 7 78.5t8.5 76.5
t9.5 70t9 59l-1 -1q0 1 4 9q3 7 7 16t5 18v6q0 17 -12 27t-29 10h-4q-28 0 -41 -21q-10 -13 -13 -26t-6 -29q-6 -30 -12.5 -73t-12 -91.5t-9 -100t-3.5 -97.5q-2 -17 -3.5 -38.5t-1.5 -44.5q0 -47 3.5 -99.5t9.5 -102.5t12.5 -94t12.5 -75q3 -16 6.5 -29t12.5 -25
q15 -22 41 -22h4q17 0 29 10t12 27v6q-1 9 -5 18t-7 16q-2 5 -2.5 6t-0.5 3zM183 129v23t2 18l-1 -1q1 2 2.5 4.5l4.5 7.5q1 2 2.5 6t2.5 5q7 15 20.5 27t29.5 22q32 20 65.5 31t56.5 14q5 1 8 1h6q15 0 20 -7q4 -5 4 -12q0 -6 -3.5 -14.5t-8.5 -19.5q-7 -17 -21.5 -39.5
t-31.5 -41.5q-26 -32 -62 -57.5t-81 -54.5l-6 -6t-5 -7q-2 25 -3 51.5t-1 49.5z" />
    <glyph glyph-name="ydieresis" unicode="&#xff;" horiz-adv-x="622" 
d="M568 256q-3 23 -14 35.5t-25 19.5q-11 4 -22 4q-28 0 -46 -19q-26 -26 -56.5 -54.5t-62 -56t-62.5 -52t-59 -42.5q-21 -15 -35 -15q-5 0 -9 4q-3 3 -6 7.5t-3 12.5q0 13 5.5 30t13.5 34t17.5 32t17.5 26q14 19 14 34q0 12 -7 21.5t-18 16.5q-8 4 -23 4q-11 0 -21 -4.5
t-19 -15.5v1q-11 -13 -24.5 -35.5t-25 -48.5t-19 -54t-7.5 -52q1 -35 13 -55t26 -32q15 -12 30 -17t32 -5q45 0 95 33q22 14 48.5 35t52.5 43t50 43t40 36q5 7 13 7q2 0 2 -4v-4q-1 -45 -4.5 -100.5t-9 -114t-14 -114.5t-20.5 -102q-1 -4 -1.5 -7t-0.5 -8q0 -18 11 -29.5
t26 -14.5v1q5 -2 10 -2q16 0 29 10.5t17 30.5q12 56 22 120.5t16.5 129t10.5 123.5t4 104q0 18 -0.5 33.5t-1.5 26.5zM327 412q0 24 -16 40.5t-40 16.5t-38.5 -16.5t-15.5 -40.5q0 -25 15.5 -40.5t39.5 -15.5q22 0 38.5 16.5t16.5 39.5zM488 412q0 24 -17 40.5t-38 16.5
q-24 0 -39 -16.5t-15 -40.5q0 -25 15.5 -40.5t39.5 -15.5q22 1 37.5 16t16.5 40z" />
    <glyph glyph-name="Sacute" unicode="&#x15a;" 
d="M482 751q-16 14 -37 14q-11 0 -20 -4q-33 -12 -41 -49q-12 -10 -28 -24t-35 -31q-41 -35 -88.5 -77t-88.5 -87q-66 -72 -66 -133v-3q0 -66 66 -126q10 -9 23.5 -21t28.5 -26q25 -22 50.5 -45t41.5 -39q20 -20 29 -38t10 -34q0 -12 -4 -24t-15 -25q-23 -31 -58.5 -54
t-61.5 -38q-14 -7 -19.5 -18t-5.5 -22t7 -23q6 -13 17 -19.5t23 -6.5q7 0 12.5 1t12.5 5q29 16 70.5 45.5t77.5 74.5q17 23 27 47.5t10 52.5v3q0 69 -66 138q-11 11 -28.5 26.5t-36.5 31.5q-23 21 -45 41.5t-36 34.5q-33 33 -33 61q0 33 37 73q32 36 75.5 75t85.5 75
q36 31 65 56.5t43 43.5q8 11 11 19.5t3 17.5q0 21 -13 31zM329 810q-11 17 -29 17q-11 0 -18 -5l-32 -16l-37 -18.5l-37 -18.5t-33 -16q-11 -6 -17 -14.5t-6 -16.5t5 -15q4 -8 10.5 -14t18.5 -6q4 0 9 1.5t11 3.5q14 7 33.5 16.5t39.5 19.5t38.5 19.5t31.5 16.5q17 11 17 27
q0 7 -5 19z" />
    <glyph glyph-name="Tcaron" unicode="&#x164;" horiz-adv-x="525" 
d="M647 480v8q0 17 -12 31t-41 14q-17 1 -38 1h-44q-33 0 -71.5 -0.5t-80.5 -0.5q-47 -1 -96 -1h-96q-59 0 -112 0.5t-95 2.5h-2q-22 0 -32.5 -12.5t-11.5 -29.5v-2q0 -17 13.5 -32t35.5 -15q23 -1 58.5 -1.5t75.5 -0.5h76q39 0 74 1q0 -14 -0.5 -28.5t-1.5 -29.5
q-1 -44 -2 -90.5t-1 -92.5q0 -54 2 -100.5t7 -82.5q4 -32 21.5 -46.5t34.5 -17.5l-1 1q5 -2 10 -2q17 0 31 10.5t17 32.5v4q0 23 -19 39q-5 23 -6.5 73t-1.5 110v85q0 29 1 57.5t2 51.5q0 7 0.5 13.5t0.5 13.5h7q33 1 62 1.5t55 0.5h49q22 0 38 -1q16 -12 38 -12q13 0 23 5
q14 6 22.5 17.5t10.5 24.5zM185 659h1q14 -14 31 -30.5t28 -27.5q10 -9 26 -9q11 0 25 8v-1q10 5 21 12t24 14q12 8 25 14.5t25 14.5q17 9 17 26q0 9 -6 17q-9 17 -30 17q-9 0 -19 -5q-7 -5 -13.5 -8t-12.5 -7h1q-14 -8 -26.5 -15.5t-23.5 -13.5v1q-5 5 -10 9t-11 9
t-12.5 11t-11.5 11q-6 5 -11.5 6t-10.5 1q-14 0 -24.5 -8.5t-10.5 -22.5q0 -5 1.5 -11.5t7.5 -11.5z" />
    <glyph glyph-name="Zacute" unicode="&#x179;" horiz-adv-x="550" 
d="M564 487q-8 21 -28.5 33.5t-55.5 12.5h-11q-97 -2 -180.5 -11.5t-159.5 -27.5q-29 -8 -44 -24q-18 -17 -18 -36q0 -16 7 -27q6 -11 13.5 -15t18.5 -4q10 0 21.5 4t22.5 11q72 17 138 25.5t144 11.5q14 0 16 -3v-1h1q0 -6 -11 -17v1q-39 -34 -82 -72.5t-87.5 -79.5
t-88.5 -82.5t-84 -81.5q-49 -51 -49 -91q0 -13 4 -21l-1 1q16 -48 102 -58q27 -3 56 -3q39 0 80 4.5t79.5 13t73 19.5t61.5 23q29 14 29 40q0 5 -1 11.5t-5 13.5q-6 11 -15.5 17.5t-23.5 6.5q-13 0 -25 -6q-19 -11 -47 -20t-61 -16t-69 -11t-72 -4q-7 0 -13 0.5t-12 0.5
q-11 1 -17 3.5t-8 4.5q0 5 6 12t15 16q40 42 96 92.5t113 101.5q38 33 72 63.5t61 56.5q22 21 33 44t11 43q0 14 -5 25zM401 726q-11 17 -29 17q-11 0 -18 -5l-32 -16l-37 -18.5l-37 -18.5t-33 -16q-11 -6 -17 -14.5t-6 -16.5t5 -15q4 -8 10.5 -14t18.5 -6q4 0 9 1.5t11 3.5
q14 7 33.5 16.5t39.5 19.5t38.5 19.5t31.5 16.5q17 11 17 27q0 7 -5 19zM161 35v-1q1 0 1 -1q-1 1 -1 2z" />
    <glyph glyph-name="sacute" unicode="&#x15b;" 
d="M427 340q10 15 10 30q0 17 -13 32v-1q-9 12 -25.5 19t-36.5 7h-3q-29 -1 -60 -9t-59.5 -19t-54 -25t-43.5 -27h1q-37 -24 -55.5 -50t-18.5 -51q0 -26 18 -49t53 -37q4 -2 6.5 -3t6.5 -3q32 -14 57.5 -27.5t41.5 -27.5q13 -13 13 -31v-4q0 -14 -3.5 -27.5t-14.5 -28.5
q-16 -26 -44.5 -53.5t-60.5 -47.5q-5 -4 -13 -4q-6 0 -10 4q-8 6 -15 8t-15 2q-14 0 -23.5 -7t-14.5 -18q-2 -6 -3.5 -12.5t-1.5 -11.5q0 -13 7 -26t24 -22q22 -12 50 -12q29 0 50 14q50 28 85 62.5t61 73.5q14 23 23.5 51t9.5 57q0 28 -10.5 56t-34.5 48q-23 18 -44.5 29
t-41.5 22q-8 4 -15.5 7.5t-15.5 7.5q-16 9 -18 16q1 10 21 24q15 11 36 21.5t43 19t42.5 14t33.5 5.5q21 -14 41 -14q22 0 34 18zM345 574q-11 17 -29 17q-11 0 -18 -5l-32 -16l-37 -18.5l-37 -18.5t-33 -16q-11 -6 -17 -14.5t-6 -16.5t5 -15q4 -8 10.5 -14t18.5 -6
q4 0 9 1.5t11 3.5q14 7 33.5 16.5t39.5 19.5t38.5 19.5t31.5 16.5q17 11 17 27q0 7 -5 19z" />
    <glyph glyph-name="zacute" unicode="&#x17a;" horiz-adv-x="430" 
d="M486 40l1 -1q-3 13 -13.5 22.5t-26.5 9.5q-5 0 -8.5 -0.5t-6.5 -1.5q-21 -6 -47.5 -11t-54.5 -8.5t-55 -5.5t-48 -2h-14t-13 1q-2 1 -4 1h-1q0 2 3 4q20 26 45 50t48 44q8 6 14 11l12 10q45 45 45 83q0 13 -6 25q-20 47 -92 47h-24t-29.5 0.5t-30 1t-26.5 1.5
q-14 9 -28 9q-13 0 -30 -10v1q-22 -13 -22 -37q0 -17 12.5 -30.5t34.5 -16.5q9 -1 22 -1.5t28.5 -1t32 -1t31.5 -0.5q14 0 14 -2q1 -2 1 -3q0 -7 -12 -17v1q-6 -5 -12.5 -11.5l-13.5 -13.5q-26 -23 -58.5 -53.5t-59.5 -65.5q-12 -14 -16.5 -27t-4.5 -25q0 -5 0.5 -9.5
t2.5 -9.5v1q11 -34 53 -42q14 -2 32.5 -3t38.5 -1q33 0 70 3t72 8t65 11t49 13v-1q17 5 24.5 17.5t7.5 25.5v4t-2 7zM345 526q-11 17 -29 17q-11 0 -18 -5l-32 -16l-37 -18.5l-37 -18.5t-33 -16q-11 -6 -17 -14.5t-6 -16.5t5 -15q4 -8 10.5 -14t18.5 -6q4 0 9 1.5t11 3.5
q14 7 33.5 16.5t39.5 19.5t38.5 19.5t31.5 16.5q17 11 17 27q0 7 -5 19z" />
    <glyph glyph-name="foursuperior" unicode="&#x2074;" horiz-adv-x="423" 
d="M401 473q0 11 -6.5 20t-20.5 9h-2q-11 -1 -22 -1t-22 -1l-38 -2q2 30 3 61.5t3 58.5v14q0 14 -7 21t-18 9q-1 0 -2 0.5t-3 0.5q-22 0 -30 -21q-18 -11 -48.5 -31t-62 -42t-59 -42.5t-39.5 -33.5q-5 -5 -7 -11.5t-2 -12.5q0 -9 2 -14q5 -9 12.5 -15t21.5 -6q60 0 123 3
l48 1v-10q-2 -34 -3.5 -56t-1.5 -43v-32q1 -20 9 -28.5t20 -8.5q14 0 28 17q9 11 9 22t-8 18q0 32 1.5 63.5t4.5 58.5q23 1 47 2t44 3q14 2 20 10t6 19zM233 556q0 -14 -1 -28.5t-3 -30.5q-54 0 -108 -3q29 20 56.5 40t56.5 39q-1 -4 -1 -9v-8z" />
    <glyph glyph-name="Aogonek" unicode="&#x104;" horiz-adv-x="682" 
d="M537 -124q14 -23 35 -37t44 -17h5q16 0 23.5 10t7.5 22q0 11 -6 20t-18 13q-23 6 -31 15l-2 2q1 -1 2 -1q2 0 2 1q-5 13 -2 22t26 29q4 4 16 9q13 -8 27 -8q16 0 32 11q16 12 16 32q0 18 -12 33q-6 8 -14 21t-16 27.5t-16 28t-12 22.5q-2 4 -4 8.5t-4 8.5l-1 1q0 1 -1 2
q5 2 10 3t10 3q18 7 24 21t6 25q-5 24 -16.5 32t-24.5 8h-4t-7 -2l1 1q-8 -2 -16.5 -3.5t-19.5 -3.5q-16 35 -34.5 82.5t-37.5 101.5q-20 54 -40.5 108.5t-42.5 104.5q-6 16 -17.5 22t-24.5 6h-4q-22 -1 -33.5 -14t-12.5 -29q-11 -17 -25.5 -45t-32 -64t-37.5 -77.5
t-40 -84.5q-30 -63 -58 -121t-51 -103q-15 -5 -33 -8q-5 -1 -13 -3q-14 0 -22.5 -6t-13 -13.5t-6 -15.5t-1.5 -13q0 -20 13 -29.5t30 -11.5q-5 -7 -8 -14t-6 -15v1q-8 -13 -8 -31q0 -16 15 -31q11 -11 28 -11q15 0 27 6q20 11 26 25.5t7 26.5q9 16 16 32t15 31q0 1 2 5
q31 7 61.5 13.5t62.5 14.5q57 13 117 27t124 29l14 -28q8 -20 23.5 -47.5t29.5 -50.5q-7 -4 -12.5 -7t-9.5 -6q-22 -16 -38 -37t-16 -45q0 -21 7 -34zM499 211q-69 -16 -140.5 -32.5t-134.5 -30.5q11 24 23 50.5t25 53.5l64 132t59 121q11 -29 22.5 -59.5t22.5 -61.5
q15 -43 31 -86.5t34 -85.5q-2 -1 -6 -1z" />
    <glyph glyph-name="Scommaaccent" unicode="&#x15e;" 
d="M482 751q-16 14 -37 14q-11 0 -20 -4q-33 -12 -41 -49q-12 -10 -28 -24t-35 -31q-41 -35 -88.5 -77t-88.5 -87q-66 -72 -66 -133v-3q0 -66 66 -126q10 -9 23.5 -21t28.5 -26q25 -22 50.5 -45t41.5 -39q20 -20 29 -38t10 -34q0 -12 -4 -24t-15 -25q-23 -31 -58.5 -54
t-61.5 -38q-14 -7 -19.5 -18t-5.5 -22t7 -23q6 -13 17 -19.5t23 -6.5q7 0 12.5 1t12.5 5q15 9 35 21.5t42 29.5q1 -2 5 -6q0 -9 -1 -23t-3.5 -30t-6.5 -32t-10 -29q-5 -8 -5 -17q0 -11 6 -19t14 -12q7 -4 15 -4q19 0 28 19q18 38 23.5 79t5.5 74v20t-1 17q-2 14 -8 22
q2 2 4.5 5t4.5 5q17 23 27 47.5t10 52.5v3q0 69 -66 138q-11 11 -28.5 26.5t-36.5 31.5q-23 21 -45 41.5t-36 34.5q-33 33 -33 61q0 33 37 73q32 36 75.5 75t85.5 75q36 31 65 56.5t43 43.5q8 11 11 19.5t3 17.5q0 21 -13 31z" />
    <glyph glyph-name="Zdotaccent" unicode="&#x17b;" horiz-adv-x="550" 
d="M564 487q-8 21 -28.5 33.5t-55.5 12.5h-11q-97 -2 -180.5 -11.5t-159.5 -27.5q-29 -8 -44 -24q-18 -17 -18 -36q0 -16 7 -27q6 -11 13.5 -15t18.5 -4q10 0 21.5 4t22.5 11q72 17 138 25.5t144 11.5q14 0 16 -3v-1h1q0 -6 -11 -17v1q-39 -34 -82 -72.5t-87.5 -79.5
t-88.5 -82.5t-84 -81.5q-49 -51 -49 -91q0 -13 4 -21l-1 1q16 -48 102 -58q27 -3 56 -3q39 0 80 4.5t79.5 13t73 19.5t61.5 23q29 14 29 40q0 5 -1 11.5t-5 13.5q-6 11 -15.5 17.5t-23.5 6.5q-13 0 -25 -6q-19 -11 -47 -20t-61 -16t-69 -11t-72 -4q-7 0 -13 0.5t-12 0.5
q-11 1 -17 3.5t-8 4.5q0 5 6 12t15 16q40 42 96 92.5t113 101.5q38 33 72 63.5t61 56.5q22 21 33 44t11 43q0 14 -5 25zM343 602q10 7 14.5 18t4.5 23t-4.5 23.5t-14.5 18.5q-15 10 -32 10q-8 0 -17 -2.5t-15 -7.5q-20 -17 -20 -39q0 -26 16 -40t36 -14q19 0 32 10zM161 35
v-1q1 0 1 -1q-1 1 -1 2z" />
    <glyph glyph-name="aogonek" unicode="&#x105;" horiz-adv-x="594" 
d="M475 -95q14 -23 35 -37t44 -17h5q16 0 23.5 10t7.5 22q0 11 -6 20t-18 13q-23 6 -31 15l-2 2q1 -1 2 -1q2 0 2 1q-5 13 -2 22t26 29q5 5 19.5 10t22.5 11q13 5 24.5 10.5t22.5 11.5q11 7 17 18t6 23q0 14 -10 27v1q-14 16 -33 16q-10 0 -22 -6q-11 -6 -26.5 -12
t-32 -11.5t-32.5 -9.5t-28 -6h-4q-11 0 -18 5t-12 19q-3 7 -4 18t-1 25v15q0 25 -13 37t-33 12q-24 0 -50 -16v1q-16 -10 -36.5 -25.5t-42 -32.5t-42 -34.5t-36.5 -30.5l-12 -9q-11 -9 -17 -9q-2 0 -2 2q-1 1 -1 8t1.5 15t4.5 13q10 21 27.5 44.5t38 45t41.5 39.5t39 30
q38 26 66 26q9 0 17.5 -2.5t15.5 -8.5q13 -9 28 -9q14 0 25.5 6.5t18.5 17.5q6 10 6 23q0 8 -4 17t-14 17q-21 17 -41.5 24.5t-40.5 7.5q-37 0 -70 -17.5t-57 -32.5q-21 -14 -45.5 -34t-48.5 -44.5t-45.5 -52.5t-36.5 -58q-21 -40 -23 -85q0 -49 28 -73q22 -19 53 -19
q37 0 80 31q12 10 24.5 20.5t26.5 21.5q22 19 41.5 35.5t32.5 24.5q3 3 6 3q0 -15 6 -33.5t13 -28.5v1q16 -23 35.5 -33.5t52.5 -10.5h10q-9 -17 -9 -34q0 -21 7 -34z" />
    <glyph glyph-name="scommaaccent" unicode="&#x15f;" horiz-adv-x="381" 
d="M427 340q10 15 10 30q0 17 -13 32v-1q-9 12 -25.5 19t-36.5 7h-3q-29 -1 -60 -9t-59.5 -19t-54 -25t-43.5 -27h1q-37 -24 -55.5 -50t-18.5 -51q0 -26 18 -49t53 -37q4 -2 6.5 -3t6.5 -3q32 -14 57.5 -27.5t41.5 -27.5q13 -13 13 -31v-4q0 -14 -3.5 -27.5t-14.5 -28.5
q-16 -26 -44.5 -53.5t-60.5 -47.5q-5 -4 -13 -4q-6 0 -10 4q-8 6 -15 8t-15 2q-14 0 -23.5 -7t-14.5 -18q-2 -6 -3.5 -12.5t-1.5 -11.5q0 -13 7 -26t24 -22q22 -12 50 -12q29 0 50 14q11 6 20.5 12.5t19.5 13.5q-1 -10 -2 -23.5t-3.5 -28t-6 -29t-9.5 -26.5q-5 -8 -5 -17
q0 -11 6 -19t14 -12q7 -4 15 -4q19 0 28 19q18 38 23.5 79t5.5 74v20t-1 17q0 5 -1 7q12 13 22 26t20 27q14 23 23.5 51t9.5 57q0 28 -10.5 56t-34.5 48q-23 18 -44.5 29t-41.5 22q-8 4 -15.5 7.5t-15.5 7.5q-16 9 -18 16q1 10 21 24q15 11 36 21.5t43 19t42.5 14t33.5 5.5
q21 -14 41 -14q22 0 34 18z" />
    <glyph glyph-name="zdotaccent" unicode="&#x17c;" horiz-adv-x="430" 
d="M486 40l1 -1q-3 13 -13.5 22.5t-26.5 9.5q-5 0 -8.5 -0.5t-6.5 -1.5q-21 -6 -47.5 -11t-54.5 -8.5t-55 -5.5t-48 -2h-14t-13 1q-2 1 -4 1h-1q0 2 3 4q20 26 45 50t48 44q8 6 14 11l12 10q45 45 45 83q0 13 -6 25q-20 47 -92 47h-24t-29.5 0.5t-30 1t-26.5 1.5
q-14 9 -28 9q-13 0 -30 -10v1q-22 -13 -22 -37q0 -17 12.5 -30.5t34.5 -16.5q9 -1 22 -1.5t28.5 -1t32 -1t31.5 -0.5q14 0 14 -2q1 -2 1 -3q0 -7 -12 -17v1q-6 -5 -12.5 -11.5l-13.5 -13.5q-26 -23 -58.5 -53.5t-59.5 -65.5q-12 -14 -16.5 -27t-4.5 -25q0 -5 0.5 -9.5
t2.5 -9.5v1q11 -34 53 -42q14 -2 32.5 -3t38.5 -1q33 0 70 3t72 8t65 11t49 13v-1q17 5 24.5 17.5t7.5 25.5v4t-2 7zM259 376q10 7 14.5 18t4.5 23t-4.5 23.5t-14.5 18.5q-15 10 -32 10q-8 0 -17 -2.5t-15 -7.5q-20 -17 -20 -39q0 -26 16 -40t36 -14q19 0 32 10z" />
    <glyph glyph-name="Racute" unicode="&#x154;" horiz-adv-x="590" 
d="M633 -64q2 5 2.5 8.5t0.5 7.5q0 14 -8.5 27t-28.5 18q-41 10 -90.5 28.5t-99.5 40.5t-95.5 46.5t-78.5 46.5v10q23 9 48 18.5t52 18.5q43 15 85.5 30.5t71.5 30.5q96 45 96 105q0 58 -90 114q-39 22 -84.5 40.5t-95 33.5t-102.5 28t-106 25q-8 7 -19 11.5t-22 4.5h-7
q-27 0 -42 -20q-4 -5 -6.5 -11.5t-2.5 -14.5q0 -16 14 -32q6 -6 15.5 -11.5t20 -10.5t21 -8t18.5 -3q5 0 8 1q1 0 1.5 -0.5t1.5 -0.5h-1q11 -2 25 -4.5t28 -6.5q-15 -43 -18.5 -98.5t-3.5 -109.5v-67q-30 -27 -30 -60q0 -17 7 -32t22 -27q0 -26 -0.5 -55.5t-1.5 -58.5
q-1 -17 -1.5 -32t-0.5 -29v-2q0 -23 14 -34.5t31 -12.5q17 0 31 10.5t15 35.5q0 11 0.5 26t1.5 32q1 15 1 30q0 16 1 30q39 -23 84.5 -45t92 -42t90.5 -36t78 -25q6 -2 14 -2q16 0 27 9.5t16 23.5zM481 374q0 -14 -33 -29q-17 -9 -41 -19t-51 -19.5t-55 -19t-54 -17.5
q-4 -2 -8 -2.5t-7 -2.5q0 2 0.5 4.5t0.5 4.5q2 71 4 127.5t14 83.5q63 -17 116 -37.5t82 -38.5q32 -21 32 -35zM467 721q-11 17 -29 17q-11 0 -18 -5l-32 -16l-37 -18.5l-37 -18.5t-33 -16q-11 -6 -17 -14.5t-6 -16.5t5 -15q4 -8 10.5 -14t18.5 -6q4 0 9 1.5t11 3.5
q14 7 33.5 16.5t39.5 19.5t38.5 19.5t31.5 16.5q17 11 17 27q0 7 -5 19z" />
    <glyph glyph-name="Abreve" unicode="&#x102;" horiz-adv-x="682" 
d="M702 32q-6 8 -14 21t-16 27.5t-16 28t-12 22.5q-2 4 -4 8.5t-4 8.5l-1 1q0 1 -1 2q5 2 10 3t10 3q18 7 24 21t6 25q-5 24 -16.5 32t-24.5 8h-4t-7 -2l1 1q-8 -2 -16.5 -3.5t-19.5 -3.5q-16 35 -34.5 82.5t-37.5 101.5q-20 54 -40.5 108.5t-42.5 104.5q-6 16 -17.5 22
t-24.5 6h-4q-22 -1 -33.5 -14t-12.5 -29q-11 -17 -25.5 -45t-32 -64t-37.5 -77.5t-40 -84.5q-30 -63 -58 -121t-51 -103q-15 -5 -33 -8q-5 -1 -13 -3q-14 0 -22.5 -6t-13 -13.5t-6 -15.5t-1.5 -13q0 -20 13 -29.5t30 -11.5q-5 -7 -8 -14t-6 -15v1q-8 -13 -8 -31
q0 -16 15 -31q11 -11 28 -11q15 0 27 6q20 11 26 25.5t7 26.5q9 16 16 32t15 31q0 1 2 5q31 7 61.5 13.5t62.5 14.5q57 13 117 27t124 29l14 -28q6 -14 15 -31.5t19.5 -35t20 -33.5t17.5 -25q16 -22 41 -22q16 0 32 11q16 12 16 32q0 18 -12 33zM499 211
q-69 -16 -140.5 -32.5t-134.5 -30.5q11 24 23 50.5t25 53.5l64 132t59 121q11 -29 22.5 -59.5t22.5 -61.5q15 -43 31 -86.5t34 -85.5q-2 -1 -6 -1zM437 702q12 7 25 19t24.5 26.5t19.5 28.5t10 26v5q-1 16 -11 23.5t-22 6.5q-11 0 -20 -6t-13 -18q-1 -6 -6.5 -14t-12.5 -16
t-13 -14l-8 -8l-2 -2q1 1 1 2q0 2 -1 2q-13 -5 -22.5 -2.5t-28.5 25.5q-4 4 -5 12.5t-3.5 17t-7.5 14.5t-17 5q-17 -2 -23 -13t-6 -21q1 -11 9.5 -28t15.5 -26q17 -22 38 -37.5t45 -15.5q20 0 34 8z" />
    <glyph glyph-name="Lacute" unicode="&#x139;" horiz-adv-x="570" 
d="M605 102l-1 1q-13 19 -36 19q-6 0 -13 -1t-14 -5q-24 -14 -58.5 -26.5t-75 -22t-84.5 -15.5t-87 -7q-31 0 -39 9q-5 7 -5 20q0 9 2.5 21.5t7.5 29.5q37 128 59.5 247t31.5 224v6q0 22 -13.5 32t-31.5 10q-17 0 -31.5 -10t-16.5 -32q-11 -84 -30 -197.5t-60 -253.5
q-18 -59 -18 -99q0 -45 25 -69q15 -17 40 -24t61 -8q47 0 98 5t100 15.5t93.5 26.5t79.5 37q14 8 19 19t5 22q0 13 -8 26zM342 824q-11 17 -29 17q-11 0 -18 -5l-32 -16l-37 -18.5l-37 -18.5t-33 -16q-11 -6 -17 -14.5t-6 -16.5t5 -15q4 -8 10.5 -14t18.5 -6q4 0 9 1.5
t11 3.5q14 7 33.5 16.5t39.5 19.5t38.5 19.5t31.5 16.5q17 11 17 27q0 7 -5 19z" />
    <glyph glyph-name="Cacute" unicode="&#x106;" horiz-adv-x="623" 
d="M629 0l-1 1q-9 33 -40 33q-6 0 -10 -0.5t-7 -1.5q-60 -16 -108 -22.5t-87 -6.5q-24 0 -46 2t-43 6q-37 5 -56 19.5t-28 34.5q-7 18 -7 45q0 29 7.5 59.5t17.5 59.5q15 43 45 86t66 81t75 68.5t73 50.5q2 -1 7 -1q29 0 46 29h-1q12 19 12 39q0 21 -14 35q-10 10 -26 10
q-18 0 -37 -11q-45 -24 -94.5 -62t-94.5 -84.5t-82 -98.5t-59 -104q-17 -40 -27 -81t-10 -80q0 -22 4 -43t13 -40q16 -39 50.5 -65t99.5 -39q46 -9 108 -9q48 0 102 7t115 22q20 5 29.5 17t9.5 28q0 5 -0.5 8.5t-1.5 7.5zM460 746q-11 17 -29 17q-11 0 -18 -5l-32 -16
l-37 -18.5l-37 -18.5t-33 -16q-11 -6 -17 -14.5t-6 -16.5t5 -15q4 -8 10.5 -14t18.5 -6q4 0 9 1.5t11 3.5q14 7 33.5 16.5t39.5 19.5t38.5 19.5t31.5 16.5q17 11 17 27q0 7 -5 19z" />
    <glyph glyph-name="Ccaron" unicode="&#x10c;" horiz-adv-x="623" 
d="M629 0l-1 1q-9 33 -40 33q-6 0 -10 -0.5t-7 -1.5q-60 -16 -108 -22.5t-87 -6.5q-24 0 -46 2t-43 6q-37 5 -56 19.5t-28 34.5q-7 18 -7 45q0 29 7.5 59.5t17.5 59.5q15 43 45 86t66 81t75 68.5t73 50.5q2 -1 7 -1q29 0 46 29h-1q12 19 12 39q0 21 -14 35q-10 10 -26 10
q-18 0 -37 -11q-45 -24 -94.5 -62t-94.5 -84.5t-82 -98.5t-59 -104q-17 -40 -27 -81t-10 -80q0 -22 4 -43t13 -40q16 -39 50.5 -65t99.5 -39q46 -9 108 -9q48 0 102 7t115 22q20 5 29.5 17t9.5 28q0 5 -0.5 8.5t-1.5 7.5zM235 686h1q14 -14 31 -30.5t28 -27.5q10 -9 26 -9
q11 0 25 8v-1q10 5 21 12t24 14q12 8 25 14.5t25 14.5q17 9 17 26q0 9 -6 17q-9 17 -30 17q-9 0 -19 -5q-7 -5 -13.5 -8t-12.5 -7h1q-14 -8 -26.5 -15.5t-23.5 -13.5v1q-5 5 -10 9t-11 9t-12.5 11t-11.5 11q-6 5 -11.5 6t-10.5 1q-14 0 -24.5 -8.5t-10.5 -22.5
q0 -5 1.5 -11.5t7.5 -11.5z" />
    <glyph glyph-name="Eogonek" unicode="&#x118;" horiz-adv-x="642" 
d="M478 -98q14 -23 35 -37t44 -17h5q16 0 23.5 10t7.5 22q0 11 -6 20t-18 13q-23 6 -31 15l-2 2q1 -1 2 -1q2 0 2 1q-5 12 -3 21.5t22 26.5q19 8 34 17q8 4 13 7t7 7q8 6 14.5 12t12.5 14v-1q7 8 8.5 15.5t1.5 15.5q0 23 -16 36h1q-12 11 -32 11q-17 0 -34 -17
q-14 -17 -32.5 -27t-42.5 -18q-57 -20 -117.5 -30t-104.5 -12h-5q-16 0 -23 8q-6 6 -8.5 18t-2.5 26v7q1 33 8 70t20 75q33 4 77 11.5t88.5 15t83.5 15t62 13.5q20 6 28 19.5t8 27.5q0 2 -0.5 4.5t-0.5 3.5q-3 15 -13 25.5t-26 10.5h-4q-1 0 -6 -2l1 1q-23 -5 -54.5 -11
t-67 -12.5t-73 -12.5t-72.5 -12q11 38 20.5 75t11.5 69q0 3 0.5 6.5t0.5 6.5q0 5 -0.5 8.5t-1.5 8.5q48 8 100 11.5t105 3.5h33t33 -1h5q20 0 30.5 12.5t11.5 29.5v6q0 15 -12 28.5t-35 13.5q-16 1 -33 1h-36q-42 0 -90.5 -2t-99 -8.5t-102 -18t-99.5 -30.5
q-17 -7 -24.5 -20t-7.5 -26q0 -17 11 -30.5t30 -13.5q11 0 18 4l-1 -1q31 10 57 17q2 1 5.5 1.5t7.5 2.5v-7q0 -4 -0.5 -7.5t-0.5 -6.5q-3 -26 -13.5 -66t-25.5 -81q-9 -2 -18 -3t-17 -2q-12 5 -22 5q-22 0 -36 -12h1q-25 -20 -25 -44q1 -17 13.5 -29t35.5 -12h3q5 -1 12 -1
h12q7 0 13 1q-3 -14 -7 -31.5t-7.5 -35.5t-6 -35t-2.5 -29q0 -35 7.5 -62.5t20.5 -47.5v1q16 -24 37.5 -34.5t47.5 -10.5h4q47 0 106 10.5t110 24.5q-1 -4 -1 -12q0 -21 7 -34z" />
    <glyph glyph-name="Ecaron" unicode="&#x11a;" horiz-adv-x="642" 
d="M640 35v-1q7 8 8.5 15.5t1.5 15.5q0 23 -16 36h1q-12 11 -32 11q-17 0 -34 -17q-14 -17 -32.5 -27t-42.5 -18q-57 -20 -117.5 -30t-104.5 -12h-5q-16 0 -23 8q-6 6 -8.5 18t-2.5 26v7q1 33 8 70t20 75q33 4 77 11.5t88.5 15t83.5 15t62 13.5q20 6 28 19.5t8 27.5
q0 2 -0.5 4.5t-0.5 3.5q-3 15 -13 25.5t-26 10.5h-4q-1 0 -6 -2l1 1q-23 -5 -54.5 -11t-67 -12.5t-73 -12.5t-72.5 -12q11 38 20.5 75t11.5 69q0 3 0.5 6.5t0.5 6.5q0 5 -0.5 8.5t-1.5 8.5q48 8 100 11.5t105 3.5h33t33 -1h5q20 0 30.5 12.5t11.5 29.5v6q0 15 -12 28.5
t-35 13.5q-16 1 -33 1h-36q-42 0 -90.5 -2t-99 -8.5t-102 -18t-99.5 -30.5q-17 -7 -24.5 -20t-7.5 -26q0 -17 11 -30.5t30 -13.5q11 0 18 4l-1 -1q31 10 57 17q2 1 5.5 1.5t7.5 2.5v-7q0 -4 -0.5 -7.5t-0.5 -6.5q-3 -26 -13.5 -66t-25.5 -81q-9 -2 -18 -3t-17 -2
q-12 5 -22 5q-22 0 -36 -12h1q-25 -20 -25 -44q1 -17 13.5 -29t35.5 -12h3q5 -1 12 -1h12q7 0 13 1q-3 -14 -7 -31.5t-7.5 -35.5t-6 -35t-2.5 -29q0 -35 7.5 -62.5t20.5 -47.5v1q16 -24 37.5 -34.5t47.5 -10.5h4q30 0 67 4.5t73.5 12t70.5 16.5t59 18q35 13 64.5 29.5
t49.5 41.5zM288 706h1q14 -14 31 -30.5t28 -27.5q10 -9 26 -9q11 0 25 8v-1q10 5 21 12t24 14q12 8 25 14.5t25 14.5q17 9 17 26q0 9 -6 17q-9 17 -30 17q-9 0 -19 -5q-7 -5 -13.5 -8t-12.5 -7h1q-14 -8 -26.5 -15.5t-23.5 -13.5v1q-5 5 -10 9t-11 9t-12.5 11t-11.5 11
q-6 5 -11.5 6t-10.5 1q-14 0 -24.5 -8.5t-10.5 -22.5q0 -5 1.5 -11.5t7.5 -11.5z" />
    </font>
</defs>
</svg>
